<svg width="198" height="198" viewBox="0 0 198 198" fill="none" xmlns="http://www.w3.org/2000/svg">
<g clip-path="url(#clip0_43_641)">
<path d="M98.6 197.2C153.055 197.2 197.2 153.055 197.2 98.6C197.2 44.1447 153.055 0 98.6 0C44.1447 0 0 44.1447 0 98.6C0 153.055 44.1447 197.2 98.6 197.2Z" fill="#013036"/>
<path d="M98.7101 46.18C114.28 46.18 129.85 46.18 145.42 46.18C148.12 46.18 150.34 47.04 151.77 49.46C152.39 50.5 152.69 51.64 152.69 52.85C152.69 75.38 152.69 97.91 152.69 120.44C152.69 123.9 150.33 126.48 146.92 126.79C143.52 127.1 140.11 126.91 136.7 126.91C108.57 126.93 80.4401 126.91 52.3201 126.91C51.3501 126.91 50.3801 126.88 49.4301 126.67C46.4901 126.03 44.5201 123.49 44.5101 120.31C44.5001 111.7 44.5101 103.09 44.5101 94.48C44.5101 80.7 44.5101 66.93 44.5101 53.15C44.5101 50.45 45.6001 48.37 47.9401 46.99C49.1901 46.25 50.6001 46.18 52.0001 46.18C67.5701 46.18 83.1401 46.18 98.7101 46.18ZM98.5701 109.85C112.56 109.85 126.55 109.85 140.54 109.85C142.05 109.85 142.06 109.85 142.06 108.29C142.06 91.61 142.06 74.93 142.06 58.25C142.06 56.81 142.06 56.8 140.64 56.8C112.66 56.8 84.6801 56.8 56.7001 56.8C55.1301 56.8 55.1301 56.8 55.1301 58.41C55.1301 75.02 55.1301 91.63 55.1301 108.24C55.1301 109.85 55.1301 109.85 56.7101 109.85C70.6601 109.85 84.6201 109.85 98.5701 109.85ZM101.16 118.65C101.15 117.17 100.05 116.07 98.5901 116.07C97.0901 116.07 96.0101 117.2 96.0301 118.76C96.0501 120.32 97.0301 121.29 98.5901 121.28C100.19 121.28 101.18 120.26 101.16 118.65Z" fill="white"/>
<path d="M98.6 151.02C85.58 151.02 72.55 151.02 59.53 151.02C57.77 151.02 57.65 150.88 57.96 149.18C59.08 143.07 63.57 139.48 70.24 139.43C74.76 139.39 79.28 139.39 83.8 139.44C84.9 139.45 85.25 139.1 85.19 138.02C85.11 136.45 85.2 134.86 85.16 133.29C85.13 132.42 85.42 132.07 86.32 132.07C94.5 132.09 102.68 132.09 110.86 132.07C111.76 132.07 112.05 132.42 112.02 133.29C111.97 134.87 112.07 136.45 111.99 138.02C111.94 139.1 112.27 139.46 113.38 139.44C117.68 139.38 121.99 139.41 126.3 139.42C127.73 139.42 129.17 139.46 130.58 139.78C135.26 140.85 138.85 144.94 139.32 149.7C139.44 150.87 139.28 151.02 137.88 151.02C124.79 151.02 111.69 151.02 98.6 151.02Z" fill="white"/>
<path d="M120.51 83.72C120.51 77.62 120.51 71.52 120.51 65.42C120.51 63.97 120.52 63.97 121.94 63.96C125.31 63.96 128.68 63.96 132.06 63.96C133.69 63.96 133.69 63.96 133.69 65.55C133.69 75.74 133.69 85.93 133.69 96.12C133.69 98.13 133.66 100.14 133.69 102.15C133.71 103.09 133.41 103.5 132.39 103.49C128.84 103.45 125.29 103.45 121.73 103.49C120.8 103.49 120.48 103.17 120.48 102.23C120.51 96.06 120.5 89.89 120.49 83.72H120.51Z" fill="white"/>
<path d="M114.59 88.53C114.59 93.01 114.59 97.5 114.59 101.98C114.59 103.41 114.55 103.46 113.17 103.47C109.69 103.47 106.21 103.45 102.73 103.49C101.75 103.5 101.4 103.15 101.4 102.18C101.42 93.07 101.42 83.95 101.4 74.84C101.4 73.9 101.69 73.49 102.7 73.5C106.25 73.54 109.8 73.54 113.36 73.5C114.29 73.5 114.61 73.82 114.61 74.76C114.58 79.35 114.59 83.94 114.6 88.54L114.59 88.53Z" fill="white"/>
<path d="M82.6201 93.35C82.6201 90.45 82.6501 87.54 82.6001 84.64C82.5901 83.71 82.9101 83.38 83.8401 83.39C87.3901 83.42 90.9401 83.43 94.4801 83.39C95.4801 83.38 95.7901 83.77 95.7901 84.72C95.7701 90.56 95.7701 96.4 95.7901 102.25C95.7901 103.17 95.4501 103.51 94.5201 103.5C90.9401 103.46 87.3501 103.47 83.7701 103.5C82.8801 103.5 82.5801 103.16 82.5901 102.29C82.6301 99.32 82.6001 96.34 82.6001 93.37L82.6201 93.35Z" fill="white"/>
<path d="M70.14 103.48C68.35 103.48 66.55 103.45 64.76 103.49C63.81 103.52 63.5 103.12 63.51 102.21C63.54 99.56 63.54 96.9 63.51 94.25C63.51 93.39 63.83 93.04 64.72 93.05C68.31 93.08 71.89 93.08 75.48 93.05C76.33 93.05 76.72 93.29 76.7 94.21C76.66 96.94 76.67 99.66 76.7 102.39C76.7 103.17 76.41 103.49 75.63 103.48C73.8 103.46 71.97 103.48 70.14 103.48Z" fill="white"/>
</g>
<defs>
<clipPath id="clip0_43_641">
<rect width="197.2" height="197.2" fill="white"/>
</clipPath>
</defs>
</svg>
