<svg width="80" height="80" viewBox="0 0 80 80" fill="none" xmlns="http://www.w3.org/2000/svg">
<path d="M42.3 7.20001C44.8 7.90001 47.3 8.40001 49.5 9.70001C53 11.8 54.7 14.8 55.2 18.8C55.4 20.6 55.4 22.5 55.4 24.3C55.4 28.9 55.5 33.4 55.4 38C55.3 40.9 56.2 43.4 58 45.7C59.4 47.4 59.3 48 57.6 49.4C56 50.8 54.4 52.2 52.8 53.6C51.3 54.9 50.6 54.9 49 53.6C48.1 52.8 47.3 51.9 46.6 51C45.2 49.1 45.2 49.1 43.5 50.7C38.6 54.9 33 55.8 27 54.3C23.3 53.3 20.8 50.8 19.6 47.2C17.5 41.1 19.2 34.4 24.1 30.5C27 28.2 30.5 27.1 34.2 26.4C36.8 25.9 39.5 25.7 42.2 25.4C42.8 25.3 43.3 25.3 43.3 24.5C43.3 23.1 43.4 21.7 43.2 20.3C42.6 17.2 39.7 15.6 36.3 16.4C33.8 17 32.1 18.4 31.3 20.9C30.7 22.8 30.4 22.9 28.4 22.7C26.3 22.5 24.2 22.2 22.1 21.9C20.5 21.7 20.1 21 20.4 19.4C21.7 13.5 25.5 10 31 8.20001C32.3 7.80001 33.7 7.50001 35.1 7.20001C37.5 7.20001 39.9 7.20001 42.3 7.20001ZM43.3 35.7C43.3 35 43.3 34.2 43.3 33.5C43.3 32.6 43 32.2 42 32.2C40.6 32.2 39.2 32.3 37.8 32.6C32.9 33.6 30.4 37.3 31.4 42.2C32 45.3 34.6 46.9 37.6 46C39.2 45.5 40.5 44.5 41.4 43.1C42.9 41 43.4 38.5 43.3 35.7Z" fill="#008A9B"/>
<path d="M7.19995 56.6C8.19995 55.7 9.19995 55.8 10.3 56.4C15 59 19.6 61.5 24.6 63.4C32.8 66.5 41.1999 66.4 49.5999 64.5C53.5999 63.6 57.3999 62.3 61.0999 60.7C61.6999 60.5 62.1999 60.2 62.7999 60.1C63.6999 59.9 64.4 60.3 64.9 61C65.4 61.8 65.2999 62.6 64.6999 63.2C64.0999 63.8 63.4999 64.3 62.7999 64.7C54.4 70.1 45.2 73 35.2 72.5C29.5 72.2 24.2 70.2 19.3 67.3C15.3 65.1 11.6 62.1 7.99995 59C7.69995 58.8 7.49995 58.4 7.19995 58.1C7.19995 57.6 7.19995 57.1 7.19995 56.6Z" fill="#008A9B"/>
<path d="M64.8999 58.1C63.4999 58.1 62.1999 58.3 60.7999 58.5C59.9999 58.6 59.1999 58.5 58.8999 57.6C58.5999 56.8 58.9999 56.2 59.5999 55.7C60.6999 54.8 61.9999 54.2 63.2999 53.8C65.7999 53.2 68.2999 53 70.8999 53.6C72.0999 53.9 72.7999 54.7 72.7999 55.9C72.7999 59.9 71.5999 63.4 68.7999 66.2C68.0999 66.9 67.3999 67.4 66.3999 66.8C65.4999 66.2 65.6999 65.3 65.9999 64.5C66.4999 63.1 66.9999 61.7 67.3999 60.3C67.9999 58.2 67.6999 58 65.5999 58C65.3999 58.1 65.0999 58.1 64.8999 58.1Z" fill="#008A9B"/>
</svg>
