<svg width="198" height="198" viewBox="0 0 198 198" fill="none" xmlns="http://www.w3.org/2000/svg">
<g clip-path="url(#clip0_43_726)">
<path d="M98.6 197.2C153.055 197.2 197.2 153.055 197.2 98.6C197.2 44.1447 153.055 0 98.6 0C44.1447 0 0 44.1447 0 98.6C0 153.055 44.1447 197.2 98.6 197.2Z" fill="#013036"/>
<path d="M78.0001 140.1C77.3001 140 76.9001 139.5 76.6001 139.2C70.4001 133.1 64.2001 126.9 58.0001 120.8C57.0001 119.8 57.1001 119.1 58.0001 118.1C76.4001 99.7 94.8001 81.3 113.2 62.9C114.3 61.8 115 61.9 116 63C122.1 69.1 128.1 75.1 134.3 81.1C135.5 82.3 135.4 83 134.3 84.2C116 102.4 97.7001 120.7 79.5001 139C79.0001 139.4 78.6001 140 78.0001 140.1Z" fill="white"/>
<path d="M133.5 112.3C133.4 112.9 132.9 113.2 132.6 113.6C129.8 116.5 127 119.4 124.1 122.2C123.1 123.2 123 123.9 124.1 125C127.6 128.5 127.6 128.5 131.1 125C133.3 122.8 135.5 120.7 137.6 118.5C138.5 117.5 139.2 117.3 140.3 118.4C142.6 120.9 145 123.3 147.5 125.7C148.5 126.7 148.6 127.3 147.5 128.4C141.2 134.6 134.8 140.8 128.6 147.1C127.4 148.3 126.6 148.2 125.5 147C118.7 140.1 111.9 133.3 105 126.5C103.8 125.4 103.6 124.6 104.9 123.4C111.1 117.3 117.3 111.2 123.5 105C124.8 103.7 125.6 103.8 126.8 105C128.7 107.1 130.7 109 132.7 111C133 111.4 133.5 111.7 133.5 112.3Z" fill="white"/>
<path d="M93.6002 72.3C93.4002 72.6 93.1002 73 92.8002 73.3C86.4002 79.8 79.9002 86.2 73.5002 92.7C72.6002 93.6 72.0001 93.5 71.2001 92.6C64.0001 85.5 56.9002 78.5 49.8002 71.4C48.8002 70.5 48.9002 69.8 49.8002 68.9C56.2002 62.5 62.6002 56.1 69.0002 49.7C69.8002 48.9 70.5002 48.7 71.4002 49.6C73.7002 52.1 76.1002 54.5 78.6002 56.9C79.7002 57.9 79.5002 58.7 78.5002 59.6C75.6002 62.4 72.9002 65.3 70.0002 68.2C69.0002 69.2 68.9002 69.8 69.9002 70.9C73.5002 74.6 73.5001 74.7 77.2001 71C79.3001 68.9 81.5002 66.8 83.6002 64.7C84.5002 63.7 85.2002 63.5 86.3002 64.6C88.4002 66.8 90.6001 68.8 92.7001 70.9C93.0001 71.2 93.4002 71.6 93.6002 72.3Z" fill="white"/>
<path d="M140.8 77.2C140.2 77.1 139.9 76.7 139.5 76.3C133.3 70.1 127.1 63.9 120.8 57.7C119.9 56.8 119.8 56.1 120.8 55.2C123.2 52.9 125.5 50.6 127.7 48.3C128.8 47.2 129.6 47.1 130.8 48.3C136.8 54.4 142.9 60.5 149 66.5C150.1 67.6 150.3 68.4 149.1 69.5C146.7 71.7 144.5 74.1 142.1 76.4C141.7 76.7 141.4 77.2 140.8 77.2Z" fill="white"/>
<path d="M48.3001 149.8C47.0001 149.9 47.3001 149 47.5001 148.3C48.0001 146.2 48.5001 144.1 49.0001 141.9C50.1001 137.2 51.2001 132.5 52.4001 127.8C52.9001 125.9 53.1001 125.8 54.5001 127.2C59.7001 132.4 64.9001 137.6 70.1001 142.8C70.9001 143.6 71.5001 144.3 69.8001 144.7C62.8001 146.4 55.8001 148.1 48.7001 149.7C48.6001 149.8 48.5001 149.8 48.3001 149.8Z" fill="white"/>
<path d="M1192.1 260.7H-292C-304.7 260.7 -315 250.4 -315 237.7V-124.7C-315 -137.4 -304.7 -147.7 -292 -147.7H1192.1C1204.8 -147.7 1215.1 -137.4 1215.1 -124.7V237.7C1215.1 250.4 1204.8 260.7 1192.1 260.7Z" stroke="#013036" stroke-miterlimit="10"/>
</g>
<defs>
<clipPath id="clip0_43_726">
<rect width="197.2" height="197.2" fill="white"/>
</clipPath>
</defs>
</svg>
