<svg width="80" height="80" viewBox="0 0 80 80" fill="none" xmlns="http://www.w3.org/2000/svg">
<path d="M17.6 74.9C15.5 74.9 13.8 73.2 13.8 71.1V7.8C15.4 4.2 19.7 4.4 21 7.1C21.7 8.6 22.6 8.8 24 8.8C36.4 8.8 48.9 8.8 61.3 8.8C65.5 8.8 67.2001 11.5 65.4001 15.3C63.6001 19 61.8001 22.6 59.9001 26.3C59.4001 27.3 59.4001 28.2 59.9001 29.3C61.7001 32.8 63.5 36.4 65.2 39.9C67.2 44 65.6 46.5 61.1 46.5C48.8 46.5 36.4 46.5 24.1 46.5C21.5 46.5 21.5 46.5 21.5 49.1C21.5 60.2 21.5 58.7 21.5 69.8C21.5 72 20.9 73.6 19.1 74.6C18.7 74.8 18.2 74.9 17.6 74.9Z" fill="#008A9B"/>
</svg>
