<svg width="198" height="198" viewBox="0 0 198 198" fill="none" xmlns="http://www.w3.org/2000/svg">
<g clip-path="url(#clip0_43_680)">
<path d="M98.6 197.2C153.055 197.2 197.2 153.055 197.2 98.6C197.2 44.1447 153.055 0 98.6 0C44.1447 0 0 44.1447 0 98.6C0 153.055 44.1447 197.2 98.6 197.2Z" fill="#013036"/>
<path d="M151.2 55.6C151.2 57.7 151.2 59.8 151.2 61.9C151.2 64.9 150.5 65.5 147.5 65.5C145.3 65.5 143.2 65.5 141 65.5C139.6 65.5 139 66.1 139.1 67.4C139.1 69.7 139.2 72 139.1 74.3C139.1 76.7 138.2 77.5 135.8 77.5C133.5 77.5 131.2 77.6 128.9 77.5C127.5 77.5 127 78.1 126.9 79.4C126.9 81.8 126.7 84.3 126.6 86.7C126.5 89.1 125.7 89.9 123.3 89.9C121.1 89.9 119 90 116.8 89.9C115.3 89.9 114.7 90.5 114.7 91.9C114.7 94.2 114.7 96.5 114.7 98.8C114.7 100.9 114 102.6 112.4 104.2C109 107.5 105.7 110.9 102.3 114.3C101.3 115.3 101 116.3 101.3 117.7C104.8 135.4 91.7001 151.5 73.8001 151.2C62.2001 151 53.6001 145.3 48.7001 134.8C43.9001 124.6 45.3001 114.6 52.4001 105.9C59.3001 97.3 68.5001 94.2 79.3001 96C81.1001 96.3 82.2001 95.9 83.5001 94.7C98.9001 79.3 114.3 63.9 129.7 48.4C131.4 46.7 133.3 45.9 135.6 45.9C139.7 45.9 143.8 45.8 147.9 45.9C150.7 45.9 151.4 46.7 151.3 49.4C151.3 51.4 151.3 53.5 151.2 55.6ZM60.0001 130.1C60.0001 134.3 63.5001 137.8 67.5001 137.7C71.4001 137.6 74.9001 134.1 75.0001 130.2C75.0001 126.2 71.3001 122.8 67.1001 122.8C62.9001 122.9 59.9001 125.9 60.0001 130.1Z" fill="white"/>
</g>
<defs>
<clipPath id="clip0_43_680">
<rect width="197.2" height="197.2" fill="white"/>
</clipPath>
</defs>
</svg>
