<svg width="198" height="198" viewBox="0 0 198 198" fill="none" xmlns="http://www.w3.org/2000/svg">
<g clip-path="url(#clip0_43_716)">
<path d="M98.6 197.2C153.055 197.2 197.2 153.055 197.2 98.6C197.2 44.1447 153.055 0 98.6 0C44.1447 0 0 44.1447 0 98.6C0 153.055 44.1447 197.2 98.6 197.2Z" fill="#013036"/>
<path d="M94.9301 155.69C83.8201 155.78 73.9101 155.25 64.0601 153.78C58.4601 152.94 52.9101 151.83 47.6201 149.69C45.2601 148.73 45.1901 148.7 45.3101 146.11C45.6701 138.73 47.9001 131.96 52.2501 125.97C54.1301 123.39 56.5701 121.34 59.4101 119.83C64.9101 116.92 70.6801 114.6 76.4401 112.26C77.3001 111.91 77.5501 112.23 77.7201 113.01C79.1901 119.55 81.0501 125.97 83.4101 132.24C85.7601 138.48 88.8101 144.39 92.1701 150.14C92.2301 150.24 92.3001 150.34 92.3601 150.44C93.3601 151.95 93.9201 151.96 94.9301 150.39C96.4301 148.06 97.6601 145.57 98.9601 143.12C103.92 133.78 107.01 123.78 109.44 113.54C109.84 111.87 109.84 111.87 111.42 112.51C116.41 114.53 121.37 116.62 126.23 118.94C132.09 121.74 136.09 126.22 138.64 132.12C140.54 136.52 141.68 141.11 142.07 145.88C142.26 148.26 141.97 148.77 139.77 149.66C134.48 151.78 128.94 152.93 123.34 153.77C117.15 154.7 110.93 155.18 104.68 155.5C101.04 155.69 97.4001 155.63 94.9201 155.69H94.9301Z" fill="white"/>
<path d="M93.63 58.87C97.6 58.95 101.39 59.77 104.96 61.57C107.67 62.93 109.44 65.03 110.07 68.03C110.18 68.53 110.29 69.03 110.67 69.43C112.99 71.84 113.54 74.9 113.86 78.05C114.02 79.62 114.14 81.2 113.89 82.78C113.77 83.52 113.98 84.12 114.56 84.69C115.51 85.63 115.69 86.91 115.78 88.2C116.15 93.34 114.19 97.63 110.88 101.4C110.37 101.98 110.03 102.6 109.78 103.33C107.84 108.98 104.44 113.37 98.79 115.71C92.2 118.44 85.61 115.34 81.64 110.71C79.81 108.58 78.49 106.16 77.61 103.5C77.29 102.54 76.76 101.76 76.11 100.98C72.7 96.93 70.84 92.37 71.69 86.97C71.8 86.26 71.96 85.5 72.48 85.02C73.54 84.04 73.54 82.79 73.58 81.53C73.66 78.89 73.39 76.23 73.94 73.6C75.64 65.39 81.84 59.9 90.31 59.12C91.41 59.02 92.51 58.8 93.62 58.88L93.63 58.87Z" fill="white"/>
<path d="M122.58 97.95C120.75 97.95 119.25 97.91 117.74 97.96C116.73 98 116.49 97.76 116.92 96.75C118.39 93.28 118.96 89.69 118.02 85.97C117.91 85.55 117.87 85.05 117.61 84.74C116.41 83.29 116.6 81.61 116.59 79.91C116.57 75.58 115.7 71.5 112.98 67.98C112.82 67.77 112.67 67.5 112.62 67.24C111.73 63 108.88 60.42 105.17 58.73C99.8 56.28 94.12 55.8 88.32 56.7C86.87 56.93 86.79 56.89 87.21 55.43C89.01 49.24 93.15 45.28 99.09 43.11C107.09 40.18 114.62 41.24 121.5 46.2C125.65 49.19 127.7 53.49 128.36 58.5C128.81 61.89 128.48 65.3 128.8 68.69C129.32 74.12 130.76 79.11 134.94 82.94C136.56 84.42 138.38 85.62 140.33 86.6C141.05 86.96 141.26 87.33 140.84 88.07C137.88 93.16 133.89 96.89 127.83 97.82C125.98 98.1 124.11 97.88 122.58 97.94V97.95Z" fill="white"/>
<path d="M151.9 129.41C151.933 131.13 151.15 132.313 149.55 132.96C147.67 133.72 145.73 134.24 143.79 134.8C142.89 135.06 142.52 134.77 142.22 133.94C140.79 129.87 138.73 126.15 135.88 122.88C133.66 120.33 130.91 118.48 127.97 116.89C126.19 115.94 124.35 115.1 122.51 114.28C121.7 113.92 121.41 113.6 121.95 112.71C124.03 109.27 125.25 105.53 125.42 101.49C125.46 100.47 125.89 100.39 126.71 100.74C130.7 102.48 134.69 104.23 138.7 105.92C142.2 107.39 144.73 109.88 146.73 113.05C149.61 117.62 151.81 124.43 151.9 129.4V129.41Z" fill="white"/>
<path d="M93.71 131.34C97.34 131.38 96.8201 130.85 97.6601 134.52C98.6601 138.87 98.61 138.88 96.4 142.86C95.67 144.18 94.94 145.49 94.21 146.81C93.83 147.5 93.51 147.57 93.08 146.81C91.66 144.34 90.33 141.82 89.09 139.25C88.86 138.77 88.79 138.29 88.92 137.76C89.31 136.1 89.69 134.44 90.03 132.78C90.23 131.77 90.72 131.24 91.81 131.34C92.44 131.4 93.08 131.35 93.71 131.35V131.34Z" fill="white"/>
<path d="M93.68 122.1C94.79 122.1 95.89 122.07 97 122.1C98.17 122.14 98.51 122.54 98.31 123.65C98.02 125.28 97.68 126.9 97.39 128.54C97.21 129.55 96.7 130.06 95.62 130.02C94.28 129.97 92.93 129.99 91.59 130.02C90.66 130.04 90.11 129.68 89.95 128.71C89.66 127 89.32 125.29 88.98 123.59C88.76 122.53 89.26 122.11 90.24 122.1C91.39 122.09 92.53 122.1 93.68 122.1Z" fill="white"/>
</g>
<defs>
<clipPath id="clip0_43_716">
<rect width="197.2" height="197.2" fill="white"/>
</clipPath>
</defs>
</svg>
