<svg width="80" height="80" viewBox="0 0 80 80" fill="none" xmlns="http://www.w3.org/2000/svg">
<path d="M42.2899 7.21C44.7499 7.88 47.2599 8.39 49.4999 9.72C52.9699 11.78 54.7399 14.84 55.1599 18.79C55.3499 20.62 55.3799 22.45 55.3799 24.28C55.3799 28.85 55.4599 33.41 55.3499 37.97C55.2799 40.89 56.1099 43.4 57.9299 45.67C59.2999 47.38 59.1899 47.99 57.5399 49.4C55.9199 50.78 54.3099 52.19 52.6899 53.58C51.1599 54.89 50.4699 54.87 48.9099 53.58C47.9799 52.81 47.2299 51.89 46.5099 50.93C45.0799 49.03 45.0899 49.03 43.3899 50.59C38.6499 54.94 33.0599 55.83 27.0499 54.28C23.3499 53.33 20.8699 50.78 19.6099 47.13C17.4999 41.01 19.2499 34.29 24.0799 30.43C27.0099 28.09 30.5199 27 34.1799 26.36C36.8299 25.89 39.4999 25.66 42.1699 25.39C42.7599 25.33 43.2999 25.26 43.2999 24.49C43.2999 23.08 43.4399 21.66 43.1499 20.28C42.5199 17.19 39.6199 15.55 36.2199 16.35C33.7599 16.93 32.0299 18.34 31.2599 20.83C30.6899 22.69 30.3599 22.88 28.3799 22.66C26.2599 22.42 24.1499 22.16 22.0399 21.87C20.4699 21.66 19.9899 20.96 20.3499 19.39C21.6799 13.54 25.4799 10.02 31.0299 8.23C32.3599 7.8 33.7599 7.56 35.1199 7.23C37.5099 7.23 39.8999 7.23 42.2899 7.23V7.21ZM43.2999 35.75C43.2999 35.02 43.2699 34.3 43.2999 33.57C43.3499 32.64 42.9499 32.27 42.0199 32.29C40.6099 32.33 39.1999 32.39 37.8199 32.68C32.9099 33.72 30.4599 37.39 31.3699 42.33C31.9399 45.41 34.5699 47.05 37.5699 46.17C39.1899 45.7 40.4299 44.71 41.3599 43.3C42.8699 41 43.4299 38.46 43.2899 35.75H43.2999Z" fill="#008A9B"/>
<path d="M7.20996 56.62C8.20996 55.7 9.20996 55.8 10.36 56.44C15.01 59.04 19.69 61.58 24.69 63.49C32.92 66.62 41.27 66.53 49.72 64.59C53.68 63.68 57.51 62.39 61.26 60.84C61.81 60.61 62.37 60.36 62.94 60.25C63.81 60.08 64.54 60.42 65.02 61.18C65.52 61.97 65.41 62.77 64.8 63.41C64.24 63.99 63.6 64.51 62.93 64.94C54.53 70.35 45.37 73.2 35.33 72.74C29.59 72.48 24.35 70.47 19.43 67.57C15.3 65.14 11.6 62.12 7.96996 59.01C7.67996 58.76 7.45996 58.44 7.20996 58.15C7.20996 57.64 7.20996 57.13 7.20996 56.61V56.62Z" fill="#008A9B"/>
<path d="M64.8599 58.15C63.4899 58.12 62.1499 58.39 60.7999 58.59C59.9599 58.71 59.2399 58.54 58.8899 57.71C58.5599 56.92 58.9499 56.29 59.5399 55.8C60.6399 54.9 61.8999 54.27 63.2799 53.93C65.7899 53.31 68.3099 53.14 70.8599 53.77C72.1099 54.08 72.7799 54.83 72.7899 56.12C72.8199 60.08 71.6099 63.57 68.7999 66.44C68.1399 67.11 67.4099 67.67 66.4399 67.04C65.5499 66.45 65.7199 65.59 65.9999 64.74C66.4599 63.32 66.9999 61.93 67.3899 60.49C67.9499 58.42 67.7199 58.16 65.6299 58.17C65.3699 58.17 65.1199 58.17 64.8599 58.17V58.15Z" fill="#008A9B"/>
</svg>
