<svg width="198" height="198" viewBox="0 0 198 198" fill="none" xmlns="http://www.w3.org/2000/svg">
<g clip-path="url(#clip0_43_651)">
<path d="M98.6 197.2C153.055 197.2 197.2 153.055 197.2 98.6C197.2 44.1447 153.055 0 98.6 0C44.1447 0 0 44.1447 0 98.6C0 153.055 44.1447 197.2 98.6 197.2Z" fill="#013036"/>
<path d="M167.6 102.6C166.3 110.5 163.2 117.3 157.3 122.4C156.1 123.4 156.4 124.6 156.7 125.8C158 131 159.4 136.1 160.7 141.3C160.9 142.1 161.5 143.2 160.9 143.8C160.1 144.5 159.3 143.5 158.6 143.1C152.5 139.7 146.3 136.3 140.3 132.7C138.1 131.4 135.9 131 133.5 131C124.3 131 116 128.2 109 122C107.3 120.5 106.9 119.5 108.8 117.6C119.7 106.6 123 93.5 118.6 78.6C118.1 76.9 118.2 76 120 75.3C134.9 69.7 154 73.9 163.2 88.1C165.4 91.5 166.3 95.4 167.6 99.2C167.4 100.4 167.5 101.5 167.6 102.6ZM149.8 92.2C149.8 86.3 146 82.5 140 82.1C134.8 81.7 129.2 85.5 128.5 90.4C128.2 92.3 127.2 95.1 130.1 95.6C132.7 96.1 132.7 93.4 133.1 91.5C133.7 88.8 135.5 87.2 138.1 86.8C140.6 86.4 142.9 86.9 144.3 89.2C145.7 91.5 145.4 94 143.8 96.1C142.7 97.6 141.3 98.8 140 100.1C137.4 102.6 136.3 105.7 136.4 109.3C136.4 110.8 136.8 112 138.6 112C140.2 112 141.1 110.9 141 109.4C140.9 105.6 142.9 103.1 145.6 100.8C148.4 98.5 150.1 95.6 149.8 92.2ZM141.7 120.4C141.5 118.5 140.3 117.2 138.4 117.3C136.3 117.4 135.4 119 135.5 120.9C135.6 122.8 136.8 124 138.7 123.9C140.7 123.9 141.8 122.6 141.7 120.4Z" fill="white"/>
<path d="M72.9999 53.2C87.5999 53.6 100.2 58.4 109.3 70.3C121.5 86.4 117.1 108.3 99.5999 119.8C90.5999 125.7 80.5999 128.1 69.8999 127.7C68.3999 127.6 67.0999 127.9 65.8999 128.7C57.3999 133.5 48.8999 138.3 40.2999 143.1C39.5999 143.5 38.6999 144.5 37.8999 143.8C37.1999 143.2 37.7999 142.1 37.9999 141.3C39.6999 134.4 41.4999 127.5 43.2999 120.6C43.6999 119.1 43.6999 118 42.3999 116.8C23.2999 100.5 25.3999 72 50.3999 58.6C57.3999 54.9 64.8999 53.1 72.9999 53.2ZM72.8999 96.5C76.3999 96.5 79.2999 93.6 79.2999 90.1C79.2999 86.8 76.1999 83.7 72.7999 83.8C69.3999 83.8 66.3999 86.8 66.3999 90.2C66.3999 93.6 69.3999 96.5 72.8999 96.5ZM55.0999 83.7C51.6999 83.6 48.7999 86.5 48.7999 90.1C48.6999 93.6 51.4999 96.5 54.9999 96.5C58.4999 96.6 61.1999 93.9 61.1999 90.2C61.1999 86.6 58.4999 83.7 55.0999 83.7ZM97.0999 89.8C96.9999 86.4 93.7999 83.5 90.4999 83.6C87.0999 83.8 84.1999 87 84.3999 90.3C84.5999 93.9 87.4999 96.6 90.9999 96.4C94.4999 96.3 97.1999 93.3 97.0999 89.8Z" fill="white"/>
</g>
<defs>
<clipPath id="clip0_43_651">
<rect width="197.2" height="197.2" fill="white"/>
</clipPath>
</defs>
</svg>
