<svg width="198" height="198" viewBox="0 0 198 198" fill="none" xmlns="http://www.w3.org/2000/svg">
<g clip-path="url(#clip0_43_695)">
<path d="M98.6 197.2C153.055 197.2 197.2 153.055 197.2 98.6C197.2 44.1447 153.055 0 98.6 0C44.1447 0 0 44.1447 0 98.6C0 153.055 44.1447 197.2 98.6 197.2Z" fill="#013036"/>
<path d="M32.3799 62.22C34.7399 56.18 39.1399 53.66 45.6399 53.73C63.7099 53.91 81.7799 53.79 99.8499 53.8C108.13 53.8 112.64 58.3 112.64 66.53C112.64 80.81 112.65 95.1 112.64 109.38C112.64 116.91 108.75 121.39 101.21 121.92C95.6399 122.31 90.0299 122.13 84.4399 122.08C82.4399 122.06 80.8099 122.61 79.1999 123.79C70.9199 129.81 62.5899 135.77 54.2399 141.69C53.2499 142.39 52.2399 143.96 51.0099 143.26C49.8499 142.6 50.4899 140.88 50.4799 139.63C50.4199 134.81 50.3599 129.99 50.4999 125.18C50.5699 122.77 49.6499 122.01 47.3299 122.08C45.1999 122.15 42.9899 122.08 40.9199 121.59C36.5299 120.56 33.8799 117.52 32.3899 113.37V62.23L32.3799 62.22ZM89.3999 101.38C92.2399 101.387 93.6632 100.28 93.6699 98.06C93.6765 94.9067 92.5565 93.3267 90.3099 93.32C86.9632 93.3067 85.2865 94.7467 85.2799 97.64C85.2799 100.12 86.6532 101.367 89.3999 101.38ZM54.3099 93.33C51.4699 93.33 50.0465 94.4367 50.0399 96.65C50.0332 99.8033 51.2499 101.38 53.6899 101.38C56.6232 101.38 58.0899 100.05 58.0899 97.39C58.0899 94.73 56.8299 93.3733 54.3099 93.32V93.33ZM67.6599 97.24C67.6599 100.007 68.9865 101.39 71.6399 101.39C74.3865 101.39 75.7599 100.04 75.7599 97.34C75.7599 94.6667 74.3732 93.33 71.5999 93.33C68.9799 93.33 67.6699 94.6367 67.6699 97.25L67.6599 97.24Z" fill="white"/>
<path d="M137.9 72.35C143.75 72.35 149.6 72.31 155.45 72.37C161.13 72.43 164.78 76.1 164.79 81.8C164.83 93.5 164.82 105.2 164.79 116.9C164.77 122.7 161.05 126.4 155.29 126.46C149.73 126.53 150.31 125.65 150.29 131.63C150.28 134.64 150.31 137.65 150.27 140.66C150.26 141.57 150.7 142.77 149.81 143.31C148.82 143.91 148.12 142.77 147.4 142.25C140.81 137.57 134.22 132.88 127.69 128.11C126.08 126.94 124.45 126.37 122.45 126.42C118.41 126.53 114.36 126.46 110.32 126.44C109.47 126.44 108.6 126.35 107.77 126.19C107.32 126.1 106.68 126 106.66 125.33C106.65 124.82 107.13 124.67 107.51 124.48C114.29 121.02 116.73 115.35 116.56 107.93C116.31 97.18 116.56 86.42 116.45 75.67C116.42 73.07 117.23 72.22 119.84 72.29C125.86 72.46 131.88 72.34 137.9 72.35ZM133.02 82.91C128.82 82.91 125.55 84.59 123.9 87.67C123.21 88.96 122.41 90.47 123.16 91.82C123.96 93.25 125.66 92.38 126.95 92.56C128.43 92.77 128.74 91.63 129.29 90.64C130.17 89.06 131.64 88.36 133.41 88.62C134.81 88.82 136.14 89.39 136.58 90.91C137.08 92.59 135.89 93.63 134.86 94.67C134.19 95.34 133.45 95.93 132.77 96.59C130.59 98.75 129.43 101.33 129.47 104.45C129.49 105.84 130.05 106.7 131.46 106.44C132.86 106.18 135.11 107.61 135.46 105.03C135.84 102.24 137.38 100.36 139.33 98.57C142.86 95.33 143.78 91.89 142.27 88.18C140.91 84.83 137.53 82.91 133.01 82.92L133.02 82.91ZM132.9 115.16C133.58 115.06 135.53 115.96 135.57 113.15C135.6 110.77 134.22 110.74 132.58 110.84C131.08 110.93 129.21 110.26 129.15 112.98C129.1 115.39 130.5 115.35 132.9 115.16Z" fill="white"/>
</g>
<defs>
<clipPath id="clip0_43_695">
<rect width="197.2" height="197.2" fill="white"/>
</clipPath>
</defs>
</svg>
