<svg width="80" height="80" viewBox="0 0 80 80" fill="none" xmlns="http://www.w3.org/2000/svg">
<path d="M41.7001 73.7C41.2001 73.7 40.6 73.7 40.1 73.7C33.4 72.4 26.7 71.1 20 69.8C14.4 68.7 8.80005 67.6 3.30005 66.6C3.30005 66.2 3.30005 65.9 3.30005 65.5C4.10005 59.8 4.80005 54.1 5.60005 48.5C6.60005 41.3 7.50005 34.1 8.40005 26.9C8.60005 25.6 9.20005 24.9 10.4 24.6C12 24.2 13.5 23.6 15 23.2C16.1 22.9 16.7 22.3 17.1 21.1C18.2 17.2 19.8 13.5 22.5 10.4C24.7 7.90002 27.4 5.70002 30.8 6.40002C34.1 7.10002 37.6 8.10002 40 11C40.7 11.8 41.2 12.9 41.6 13.9C41.8 14.4 42.0001 14.8 42.7001 14.6C44.2001 14 44.3001 14.9 44.2001 16C44.0001 19.8 43.8001 23.5 43.7001 27.3C43.5001 32.4 43.3 37.5 43.1 42.7C42.6 53 42.2001 63.3 41.7001 73.7ZM22.5 63.4C25.4 63.5 28 62.5 29.9 60C32.5 56.6 33.6 49.8 28.4 45.7C27.1 44.7 25.8 43.7 24.5 42.6C23.4 41.7 22.7001 40.5 23.2001 39C23.7001 37.5 25 36.9 26.5 36.8C28.1 36.6 29.7 36.9 31.3 37.5C32 37.8 32.4001 37.7 32.7001 36.9C33.3001 35.2 33.9 33.4 34.5 31.7C34.8 30.9 34.6001 30.3 33.7001 30.1C28.6001 29 23.9 29.5 20 33.2C15.1 37.8 15.4 44.9 20.5 49.2C21.3 49.9 22.1 50.5 22.8 51.3C24 52.7 24.2 54.3 23.4 55.5C22.6 56.7 21.2 57.1 19.4 56.5C18.1 56.1 16.9 55.5 15.8 54.7C15 54.1 14.6 54.1 14.3 55.2C14 56.3 13.7 57.4 13.3 58.5C13 59.3 13.2 59.9 13.9 60.4C16.2 62.4 19.1 63.4 22.5 63.4ZM31.1 9.10002C30.7 8.70002 30.4 8.90002 30 9.00002C27.9 9.30002 26.3 10.4 24.9 11.9C22.6 14.4 21.3001 17.5 20.2001 20.6C19.9001 21.5 20.3 21.6 21 21.3C21.7 21.1 22.4 20.8 23.1 20.7C24.3001 20.4 24.8 19.8 25.1 18.6C26 14.9 27.6 11.6 30.9 9.40002C31 9.30002 31 9.20002 31.1 9.10002ZM34.1 15.7C34 15 33.9 14.3 33.8 13.6C33.8 13.3 33.7 13 33.6 12.7C33.3 11.4 33 11.3 31.9 12.1C30 13.6 28.9 15.6 28.1 17.8C28 18.1 27.8 18.4 28 18.7C28.3 19 28.7 18.8 29 18.7C30.2 18.3 31.4 17.9 32.6 17.6C33.8 17.4 34.2 16.8 34.1 15.7ZM36.5 11.1C35.9 11.2 36.1001 11.5 36.2001 11.8C36.4001 12.9 36.6 14 36.6 15.2C36.6 15.6 36.4 16.1 37 16.2C37.7 16.3 38.4 15.9 39.1 15.6C39.5 15.4 39.4001 15 39.2001 14.7C38.7001 13.6 38.2001 12.5 37.2001 11.6C37.0001 11.4 36.7 11.3 36.5 11.1Z" fill="#008A9B"/>
<path d="M62.2001 65.6C61.6001 65.2 61.1001 64.6 60.7001 64C60.0001 64.7 59.0001 65.3 57.7001 65.3C56.5001 65.3 55.4001 64.8 54.8001 64.4C54.3001 64.1 53.8001 63.7 53.3001 63.4C51.8001 62.4 51.1001 60.7 51.4001 58.9C51.4001 58.7 51.5001 58.5 51.5001 58.3C51.3001 58.3 51.1001 58.3 50.9001 58.2C49.2001 57.9 47.9001 56.8 47.4001 55.2C47.1001 54.1 46.8001 53.1 46.7001 51.9C46.6001 50.1 47.5001 48.5 49.0001 47.7C47.5001 46.2 47.3001 44.1 48.4001 42.2L48.5001 42C48.8001 41.5 49.1001 41 49.4001 40.5C50.6001 38.6 52.2001 38.2 53.2001 38.2C53.7001 38.2 54.1001 38.3 54.6001 38.4C54.6001 38.2 54.6001 38.1 54.7001 37.9C54.8001 37.2 55.1001 36.5 55.4001 35.9C55.2001 35.9 55.1001 35.8 54.9001 35.8C54.5001 35.6 54.1001 35.5 53.7001 35.3L53.5001 35.2C52.3001 34.7 51.5001 34 51.0001 33C50.8001 32.6 50.7001 32.2 50.7001 31.7C49.2001 31.6 47.9001 30.8 47.2001 29.3C46.9001 28.7 46.7001 28.2 46.5001 27.6C46.0001 26.2 46.2001 24.7 47.1001 23.7C46.1001 22.6 45.8001 21.2 46.2001 19.7C46.4001 19.1 46.6001 18.6 46.8001 18.1L46.9001 18C47.1001 17.6 47.4001 17.2 47.7001 16.8C47.7001 16.8 47.7001 16.8 47.7001 16.7C47.1001 16 46.4001 15.4 45.7001 14.8C45.1001 14.2 44.8001 14.3 44.7001 15.2C44.4001 17.2 44.5001 19.2 44.4001 21.2C44.0001 30.9 43.5001 40.5 43.1001 50.2C42.9001 55.1 42.6001 60 42.4001 64.9C42.3001 67.8 42.2001 70.7 42.1001 73.6C42.5001 73.6 42.8001 73.6 43.2001 73.6C43.7001 73.5 44.3001 73.3 44.8001 73.2C50.3001 72 55.8001 70.8 61.3001 69.6C62.3001 69.4 62.6001 69 62.4001 68C62.5001 67.3 62.4001 66.4 62.2001 65.6Z" fill="#008A9B"/>
<path d="M54 59.2C54 58.7 54.4 58.3 54.6 57.8C55 57.1 55 56.5 54.6 55.9C54.2 55.3 53.5 55.3 52.8 55.4C52.3 55.5 51.9 55.7 51.3 55.6C50.6 55.5 50.1 55.1 49.9 54.4C49.6 53.5 49.4 52.6 49.3 51.7C49.2 50.8 49.7 50.1 50.6 49.8C51 49.7 51.4 49.6 51.8 49.5C52.4 49.3 52.8 48.8 52.8 48.2C52.8 47.6 52.6 47 52 46.6C51.7 46.4 51.4 46.2 51.1 46C50.2 45.3 50.1 44.5 50.7 43.5C51 43 51.3 42.5 51.6 42C52.4 40.8 53.2 40.6 54.4 41.3C54.6 41.4 54.8 41.6 55 41.7C55.6 42 56.2 42.1 56.8 41.7C57.4 41.2 57.5 40.6 57.4 40C57.3 39.5 57.1 39.1 57.2 38.5C57.3 37.6 57.8 37 58.7 36.9C59.3 36.8 60 36.6 60.6 36.5C61.9 36.3 62.8 36.9 63.1 38.1C63.2 38.4 63.2 38.6 63.3 38.9C63.5 39.5 63.9 39.9 64.5 40C65.1 40.1 65.7 39.9 66 39.4C66.3 39 66.5 38.6 66.8 38.3C67.5 37.5 68.3 37.4 69.2 37.9C69.8 38.2 70.4 38.6 70.9 39C71.8 39.6 72.1 40.5 71.6 41.5C71.4 41.8 71.2 42.1 71.1 42.5C70.8 43.1 70.6 43.7 71.1 44.2C71.6 44.8 72.2 45 72.9 44.8C74 44.5 75.1 44.4 75.7 45.5C76.3 46.5 76.6 47.7 76.5 49C76.4 49.8 75.9 50.2 75.2 50.4C74.9 50.5 74.6 50.5 74.3 50.6C73.6 50.8 73.1 51.2 73 51.9C73 52.5 73.4 53 74 53.4C74.3 53.6 74.5 53.7 74.8 53.9C75.6 54.6 75.7 55.4 75.2 56.3C74.9 56.9 74.6 57.4 74.2 58C73.5 59.1 72.5 59.3 71.3 58.6C71.1 58.5 70.8 58.3 70.6 58.2C70 57.9 69.5 57.9 69 58.4C68.5 58.8 68.3 59.3 68.4 60C68.5 60.4 68.6 60.8 68.7 61.2C68.8 62.2 68.3 63 67.3 63.2C66.6 63.4 65.9 63.5 65.2 63.7C64 63.9 63.2 63.4 62.8 62.3C62.8 62.2 62.7 62 62.7 61.8C62.5 61 62.2 60.3 61.3 60.2C60.4 60.1 59.9 60.6 59.5 61.3C58.5 62.8 57.7 63 56.1 62.1C55.6 61.8 55.2 61.5 54.7 61.2C54.1 60.6 53.9 60 54 59.2ZM63.8 44.5C60.8 44 57.9 46.1 57.4 49.2C56.9 52.2 59 55.1 62 55.6C64.9 56.1 68 53.9 68.4 51C69 47.8 67 45 63.8 44.5Z" fill="#008A9B"/>
<path d="M64 16C63.9 16.2 63.8 16.6 63.7 16.9C63.5 17.4 63.7 17.8 64 18.1C64.3 18.4 64.8 18.5 65.2 18.3C65.4 18.2 65.5 18.2 65.7 18.1C66.8 17.7 67.5 17.9 68 19C68.2 19.3 68.3 19.7 68.5 20C68.9 20.9 68.6 21.7 67.7 22.1C67.2 22.3 66.7 22.4 66.5 23C66.4 23.6 66.5 24 67 24.3C67.3 24.5 67.7 24.6 68 24.8C68.6 25.1 68.8 25.6 68.6 26.2C68.4 26.9 68.2 27.5 67.8 28.2C67.5 28.8 66.8 29 66.1 28.7C65.8 28.6 65.6 28.5 65.3 28.4C64.4 28.2 63.7 29 64 29.9C64 29.9 64 29.9 64 30C64.3 30.7 64.7 31.3 64.2 32C63.6 32.8 62.6 33.1 61.7 33.3C61.1 33.4 60.6 33.1 60.3 32.5C60.2 32.3 60.1 32 60 31.8C59.8 31.3 59.4 31.1 58.8 31.1C58.3 31.1 58 31.4 57.8 31.9C57.7 32.2 57.5 32.5 57.4 32.7C57.1 33.3 56.4 33.6 55.8 33.4C55.4 33.2 54.9 33.1 54.5 32.9C53.5 32.5 53.2 31.8 53.6 30.8C53.8 30.3 54 29.8 53.6 29.3C53.3 28.9 52.9 28.7 52.4 28.9C52.2 29 51.9 29.1 51.7 29.2C50.8 29.5 50.1 29.2 49.7 28.4C49.5 27.9 49.2 27.4 49.1 26.9C48.8 26.2 49.1 25.6 49.8 25.2C50.3 24.9 50.9 24.9 51.1 24.2C51.2 23.7 51 23 50.5 22.8C50.1 22.6 49.7 22.5 49.3 22.2C48.8 21.8 48.7 21.3 48.9 20.7C49.1 20.2 49.3 19.7 49.5 19.2C49.8 18.5 50.6 18.2 51.3 18.5C52 18.8 52.6 19.1 53.2 18.4C53.7 17.8 53.4 17.2 53.2 16.5C52.8 15.6 53 15 53.9 14.6C54.3 14.4 54.8 14.2 55.2 14C56.1 13.7 56.7 13.9 57.2 14.8C57.4 15.1 57.5 15.5 57.8 15.8C58.4 16.2 59.2 16.1 59.5 15.4C59.6 15.2 59.7 14.9 59.8 14.7C60.2 13.9 60.8 13.6 61.7 13.9C62.2 14.1 62.7 14.3 63.1 14.5C63.9 14.7 64.2 15.1 64 16ZM54.6 22.9C54.1 25.5 56 27.5 58.2 27.7C60.3 28 62.5 26.6 62.8 24.1C63.1 21.9 61.6 19.8 59.3 19.5C57.1 19.1 54.9 20.7 54.6 22.9Z" fill="#008A9B"/>
</svg>
