<svg width="198" height="198" viewBox="0 0 198 198" fill="none" xmlns="http://www.w3.org/2000/svg">
<g clip-path="url(#clip0_43_657)">
<path d="M98.6 197.2C153.055 197.2 197.2 153.055 197.2 98.6C197.2 44.1447 153.055 0 98.6 0C44.1447 0 0 44.1447 0 98.6C0 153.055 44.1447 197.2 98.6 197.2Z" fill="#013036"/>
<path d="M77.72 114.2C77.81 99.63 88.63 87.4 102.15 86.09C117.44 84.61 130.49 94.17 133.19 108.88C134.21 114.46 133.58 119.89 131.2 125.03C130.34 126.89 130.68 128.05 132.09 129.42C136.52 133.7 140.84 138.08 145.17 142.47C147.3 144.64 148.08 147.27 147.09 150.18C146.05 153.23 143.82 155.07 140.64 155.6C137.95 156.05 135.82 154.83 133.99 153.01C129.74 148.78 125.46 144.58 121.29 140.27C119.94 138.87 118.83 138.58 116.93 139.37C99.99 146.45 81.7 136.77 78.2 118.96C77.86 117.25 77.85 115.47 77.73 114.2H77.72ZM105.61 131.7C115.76 131.7 123.53 123.95 123.54 113.82C123.55 103.74 115.69 95.88 105.6 95.9C95.58 95.92 87.72 103.87 87.75 113.95C87.78 123.9 95.63 131.7 105.61 131.69V131.7Z" fill="white"/>
<path d="M70.37 80.96C70.37 92.47 70.37 103.99 70.37 115.5C70.37 119.7 69.65 120.41 65.52 120.41C61.84 120.41 58.16 120.41 54.49 120.41C50.47 120.41 49.71 119.68 49.7 115.68C49.68 101.05 49.69 86.42 49.69 71.79C49.69 63.32 49.69 54.84 49.69 46.37C49.69 42.37 50.51 41.53 54.42 41.52C58.26 41.51 62.1 41.49 65.93 41.52C69.44 41.55 70.35 42.44 70.36 45.94C70.38 57.61 70.36 69.28 70.36 80.96H70.37Z" fill="white"/>
<path d="M120.91 74.12C120.91 77.08 120.88 80.04 120.93 82.99C120.95 84.51 120.7 85.31 118.9 84.52C113.77 82.26 108.41 81.23 102.79 81.93C101.16 82.13 100.44 81.5 100.46 79.81C100.51 75.01 100.44 57.07 100.5 52.27C100.53 49.77 101.39 48.9 103.81 48.88C108.45 48.83 113.08 48.88 117.72 48.86C119.92 48.85 120.94 49.92 120.92 52.1C120.9 55.06 120.92 71.17 120.92 74.12H120.91Z" fill="white"/>
<path d="M77.5899 85.27C77.5899 82.08 77.5199 67.27 77.6099 64.08C77.6899 61.37 78.6099 60.53 81.2799 60.5C84.0699 60.47 86.8599 60.46 89.6499 60.5C92.1499 60.54 92.9399 61.33 93.0499 63.77C93.0599 64.01 93.0299 75.87 93.0599 76.1C93.8099 81.3 92.8899 85.35 87.2399 87.64C83.9699 88.97 81.7099 92.12 79.5599 95.03C79.1699 95.56 78.9399 96.6 78.0899 96.29C77.3299 96.01 77.5799 95.03 77.5799 94.34C77.5499 91.31 77.5699 88.28 77.5699 85.25C77.5699 85.25 77.5799 85.25 77.5899 85.25V85.27Z" fill="white"/>
</g>
<defs>
<clipPath id="clip0_43_657">
<rect width="197.2" height="197.2" fill="white"/>
</clipPath>
</defs>
</svg>
