<svg width="198" height="198" viewBox="0 0 198 198" fill="none" xmlns="http://www.w3.org/2000/svg">
<g clip-path="url(#clip0_43_665)">
<path d="M98.6 197.2C153.055 197.2 197.2 153.055 197.2 98.6C197.2 44.1447 153.055 0 98.6 0C44.1447 0 0 44.1447 0 98.6C0 153.055 44.1447 197.2 98.6 197.2Z" fill="#013036"/>
<path d="M131 57.9C127.2 57.4 123.5 56.9 119.7 56.5C116.3 56.1 114.2 53.9 114.6 51.1C115 48.1 117.5 46.6 121 47.1C128.8 48.1 136.5 49 144.3 50.1C147.8 50.6 149.2 52.7 148.8 56.3C147.9 63.7 147 71 146.1 78.4C146 79.3 145.9 80.2 145.7 81C145.1 83.4 142.9 84.9 140.5 84.6C138.2 84.3 136.5 82.4 136.5 79.9C136.5 76.4 137.2 73 137.6 69.5C137.7 68.6 137.9 67.6 137.7 66.7C136.8 66.6 136.3 67.3 135.8 67.7C123.8 77 112 86.1 100.2 95.2C96.2999 98.2 93.4999 97.7 90.9999 93.4C89.6999 91.2 88.2999 89 87.0999 86.7C86.2999 85.1 85.4999 85.1 84.1999 86.2C75.2999 93.2 66.3999 100.1 57.3999 107.1C56.4999 107.8 55.6999 108.5 54.7999 109.1C52.1999 110.8 49.1999 110.5 47.4999 108.2C45.6999 105.9 46.0999 103 48.5999 101C52.8999 97.5 57.2999 94.2 61.6999 90.8C68.8999 85.2 76.0999 79.6 83.3999 74C87.3999 70.9 90.0999 71.5 92.7999 75.9C94.1999 78.2 95.5999 80.6 96.9999 83C97.5999 84 98.0999 84.2 99.0999 83.4C109.6 75.2 120.1 67.1 130.6 58.9C130.8 58.7 131.1 58.6 131.3 58.5C131.1 58.3 131 58.1 131 57.9Z" fill="white"/>
<path d="M127.9 121.9C127.9 113.3 127.9 104.7 127.9 96.1C127.9 93.6 128 93.5 130.6 93.5C134.7 93.5 138.8 93.5 142.9 93.5C144.4 93.5 145 94 145 95.5C145 113.1 145 130.7 145 148.2C145 149.6 144.4 150.2 143.1 150.1C138.7 150.1 134.4 150.1 130 150.1C128.2 150.1 128 149.1 128 147.7C127.9 139.2 127.9 130.5 127.9 121.9Z" fill="white"/>
<path d="M119.8 127C119.8 133.9 119.7 140.8 119.8 147.6C119.8 149.5 119.2 150.2 117.2 150.2C113.1 150.1 109 150.1 104.9 150.2C103.3 150.2 102.8 149.6 102.8 148C102.8 133.9 102.8 119.8 102.8 105.7C102.8 104.2 103.3 103.7 104.8 103.7C109 103.8 113.3 103.8 117.5 103.7C119.4 103.6 119.8 104.5 119.8 106.1C119.8 113.1 119.8 120 119.8 127Z" fill="white"/>
<path d="M76.7998 130.2C76.7998 124.6 76.7998 119 76.7998 113.4C76.7998 110.8 76.9998 110.7 79.5998 110.6C83.5998 110.6 87.5998 110.6 91.6998 110.6C93.1998 110.6 93.7998 111.1 93.7998 112.6C93.7998 124.4 93.7998 136.2 93.7998 148C93.7998 149.5 93.2998 150.1 91.7998 150.1C87.5998 150.1 83.2998 150 79.0998 150.1C77.3998 150.1 76.8998 149.3 76.8998 147.7C76.7998 142 76.7998 136.1 76.7998 130.2Z" fill="white"/>
<path d="M69.1 134C69.1 138.6 69 143.1 69.1 147.7C69.1 149.5 68.6 150.3 66.7 150.2C62.5 150.1 58.4 150.1 54.2 150.2C52.6 150.2 52 149.6 52.1 148C52.1 138.7 52.1 129.5 52.1 120.2C52.1 118.7 52.5 118 54.2 118C58.5 118.1 62.8 118.1 67.1 118C68.6 118 69.2 118.6 69.1 120C69.1 124.7 69.1 129.3 69.1 134Z" fill="white"/>
</g>
<defs>
<clipPath id="clip0_43_665">
<rect width="197.2" height="197.2" fill="white"/>
</clipPath>
</defs>
</svg>
