<svg width="198" height="198" viewBox="0 0 198 198" fill="none" xmlns="http://www.w3.org/2000/svg">
<g clip-path="url(#clip0_43_752)">
<path d="M98.6 197.2C153.055 197.2 197.2 153.055 197.2 98.6C197.2 44.1447 153.055 0 98.6 0C44.1447 0 0 44.1447 0 98.6C0 153.055 44.1447 197.2 98.6 197.2Z" fill="#013036"/>
<path d="M119.99 120.08C119.99 111.16 119.99 102.24 119.99 93.32C119.99 88.2 122.57 85.65 127.7 85.63C131.22 85.63 134.75 85.62 138.27 85.63C143.25 85.66 146 88.36 146.03 93.4C146.08 101.31 146.05 109.23 146.05 117.14C146.05 127 146.05 136.85 146.04 146.71C146.04 150.3 145.31 151.03 141.76 151.03C135.86 151.04 129.96 151.03 124.06 151.03C120.62 151.03 119.99 150.42 119.99 147.05C119.99 138.06 119.99 129.07 119.99 120.07V120.08Z" fill="white"/>
<path d="M109.86 124.43C109.86 131.99 109.86 139.54 109.86 147.1C109.86 150.27 109.09 151.02 105.89 151.03C99.77 151.05 93.66 151.05 87.54 151.03C84.63 151.03 83.78 150.21 83.78 147.33C83.76 132.07 83.75 116.82 83.78 101.56C83.78 96.85 86.46 94.26 91.2 94.23C94.94 94.21 98.68 94.21 102.43 94.23C107.26 94.26 109.85 96.86 109.87 101.76C109.9 109.32 109.87 116.87 109.87 124.43H109.86Z" fill="white"/>
<path d="M73.63 132.95C73.63 137.84 73.65 142.73 73.63 147.61C73.62 150.17 72.82 151 70.29 151.02C63.89 151.06 57.5 151.06 51.1 151.02C48.51 151 47.6 150.1 47.59 147.46C47.56 137.83 47.52 128.2 47.61 118.56C47.65 113.81 50.5 111.16 55.25 111.12C58.92 111.09 62.58 111.09 66.25 111.12C70.91 111.15 73.61 113.84 73.63 118.5C73.66 123.32 73.63 128.13 73.63 132.95Z" fill="white"/>
<path d="M144.06 71.7C144.06 73.97 142.57 75 140.48 74.04C138.46 73.11 136.49 72.05 134.55 70.95C133.35 70.27 132.31 70.29 131.12 70.97C129.24 72.03 127.32 73.02 125.37 73.94C122.98 75.06 121.33 73.88 121.65 71.28C121.93 69 122.27 66.72 122.75 64.47C122.99 63.32 122.68 62.56 121.88 61.8C120.36 60.37 118.91 58.87 117.4 57.43C116.47 56.54 115.74 55.58 116.21 54.21C116.66 52.91 117.87 52.71 119 52.52C121.12 52.17 123.25 51.83 125.39 51.59C126.46 51.47 127.05 50.96 127.49 50.03C128.43 48.01 129.42 46.01 130.41 44.01C130.91 43 131.6 42.13 132.84 42.15C134.06 42.17 134.76 42.99 135.26 44.02C135.99 45.5 136.92 46.92 137.42 48.48C138.21 50.91 139.88 51.75 142.22 51.9C143.86 52.01 145.51 52.23 147.13 52.56C149.8 53.11 150.45 55.15 148.59 57.12C147.06 58.74 145.45 60.28 143.82 61.81C142.95 62.63 142.67 63.47 142.94 64.69C143.41 66.79 143.67 68.94 144.01 71.06C144.04 71.27 144.04 71.49 144.05 71.71L144.06 71.7Z" fill="white"/>
<path d="M96.77 85.01C91.89 85 88.01 81.06 88.07 76.18C88.13 71.48 92.15 67.52 96.84 67.55C101.62 67.58 105.6 71.66 105.55 76.47C105.49 81.23 101.59 85.02 96.77 85.01Z" fill="white"/>
<path d="M69.3199 92.34C69.2899 97.26 65.4099 101.05 60.4899 100.98C55.7499 100.91 51.8699 96.96 51.8799 92.21C51.8999 87.61 56.0399 83.48 60.6199 83.5C65.5099 83.52 69.3499 87.42 69.3199 92.33V92.34Z" fill="white"/>
<path d="M73.4599 89.13C72.0499 88.68 72.2599 87.08 71.5899 86.08C71.0999 85.35 71.6199 84.89 72.2799 84.6C75.9499 82.97 79.5999 81.29 83.2899 79.73C85.2699 78.89 84.9399 80.96 85.5399 81.78C86.0899 82.53 86.5799 83.45 85.2299 84.04C81.5499 85.65 77.8799 87.27 74.1999 88.88C73.9999 88.97 73.7899 89.02 73.4499 89.13H73.4599Z" fill="white"/>
<path d="M117.64 64.57C118.52 64.46 118.77 64.65 118.85 65.2C119.17 67.26 117.86 69.64 115.86 70.52C114.09 71.3 112.33 72.1 110.55 72.86C109.88 73.15 109.05 73.48 108.78 72.47C108.47 71.32 106.76 69.83 108.05 69.07C111.17 67.22 114.63 65.93 117.64 64.56V64.57Z" fill="white"/>
</g>
<defs>
<clipPath id="clip0_43_752">
<rect width="197.2" height="197.2" fill="white"/>
</clipPath>
</defs>
</svg>
