<svg width="198" height="198" viewBox="0 0 198 198" fill="none" xmlns="http://www.w3.org/2000/svg">
<g clip-path="url(#clip0_43_737)">
<path d="M98.6 197.2C153.055 197.2 197.2 153.055 197.2 98.6C197.2 44.1447 153.055 0 98.6 0C44.1447 0 0 44.1447 0 98.6C0 153.055 44.1447 197.2 98.6 197.2Z" fill="#013036"/>
<path d="M69.3999 151.3C61.1999 151.3 52.9999 151.2 44.7999 151.3C42.5999 151.3 41.8999 150.6 41.8999 148.4C41.9999 133.3 41.9999 118.2 41.8999 103.2C41.8999 100.9 42.5999 100.2 44.7999 100.3C48.8999 100.4 53.0999 100.4 57.1999 100.3C59.2999 100.2 59.7999 101 59.7999 103C59.6999 109.4 59.7999 115.8 59.7999 122.2C59.7999 123.2 59.5999 124.4 60.7999 125C61.9999 125.7 62.8999 124.9 63.8999 124.3C65.7999 123.1 67.3999 120.6 69.5999 121C71.4999 121.3 73.1999 123.3 75.0999 124.4C75.9999 125 76.7999 125.9 77.8999 125.2C78.9999 124.6 78.9999 123.5 78.9999 122.4C78.9999 115.9 79.0999 109.4 78.9999 102.9C78.9999 100.9 79.5999 100.2 81.5999 100.2C85.8999 100.3 90.1999 100.3 94.4999 100.2C96.2999 100.2 96.8999 100.8 96.8999 102.6C96.8999 118 96.7999 133.4 96.8999 148.8C96.8999 150.9 95.9999 151.2 94.1999 151.2C85.8999 151.3 77.6999 151.3 69.3999 151.3Z" fill="white"/>
<path d="M127.8 151.3C119.6 151.3 111.4 151.2 103.2 151.3C101 151.3 100.3 150.6 100.3 148.4C100.4 133.3 100.4 118.2 100.3 103.2C100.3 100.9 101 100.2 103.2 100.3C107.3 100.4 111.5 100.4 115.6 100.3C117.7 100.2 118.2 101 118.2 103C118.1 109.4 118.2 115.8 118.2 122.2C118.2 123.2 118 124.4 119.2 125C120.4 125.7 121.3 124.9 122.3 124.3C124.2 123.1 125.8 120.6 128 121C129.9 121.3 131.6 123.3 133.5 124.4C134.4 125 135.2 125.9 136.3 125.2C137.4 124.6 137.4 123.5 137.4 122.4C137.4 115.9 137.5 109.4 137.4 102.9C137.4 100.9 138 100.2 140 100.2C144.3 100.3 148.6 100.3 152.9 100.2C154.7 100.2 155.3 100.8 155.3 102.6C155.3 118 155.2 133.4 155.3 148.8C155.3 150.9 154.4 151.2 152.6 151.2C144.3 151.3 136.1 151.3 127.8 151.3Z" fill="white"/>
<path d="M98.4999 96.8C90.2999 96.8 82.0999 96.7 73.8999 96.8C71.7999 96.8 71.0999 96.1 71.0999 94C71.1999 78.8 71.1999 63.7 71.0999 48.5C71.0999 46.3 71.7999 45.7 73.8999 45.8C77.9999 45.9 82.1999 45.9 86.2999 45.8C88.4999 45.7 89.0999 46.6 88.9999 48.6C88.8999 54.8 88.9999 60.9 88.9999 67.1C88.9999 68.4 88.5999 69.8 90.0999 70.5C91.3999 71.1 92.3999 70.2 93.3999 69.5C99.5999 65.4 97.2999 65.2 103.6 69.5C104.6 70.2 105.4 71.4 106.8 70.7C108.4 70 108 68.4 108 67C108 60.8 108.1 54.7 108 48.5C108 46.5 108.5 45.6 110.7 45.7C115 45.9 119.3 45.8 123.6 45.7C125.2 45.7 125.9 46.2 125.9 47.9C125.9 63.4 125.9 78.9 125.9 94.4C125.9 96.3 125.1 96.7 123.4 96.7C115.2 96.8 106.8 96.8 98.4999 96.8Z" fill="white"/>
<path d="M63.3999 110.3C63.3999 107.6 63.3999 105 63.3999 102.3C63.3999 101 63.8999 100.4 65.2999 100.4C68.0999 100.4 70.7999 100.4 73.5999 100.4C74.8999 100.4 75.4999 100.9 75.4999 102.3C75.4999 107.7 75.4999 113.1 75.4999 118.6C75.4999 119.9 74.9999 120.2 73.8999 119.5C73.7999 119.4 73.5999 119.3 73.4999 119.2C70.8999 116.6 68.2999 116.5 65.5999 119.2C64.2999 120.5 63.4999 120 63.4999 118.1C63.3999 115.5 63.3999 112.9 63.3999 110.3Z" fill="white"/>
<path d="M121.8 110.1C121.8 107.5 121.8 104.9 121.8 102.3C121.8 101 122.3 100.4 123.7 100.4C126.5 100.4 129.2 100.4 132 100.4C133.3 100.4 133.9 100.9 133.9 102.3C133.9 107.7 133.9 113.1 133.9 118.6C133.9 119.9 133.4 120.2 132.3 119.5C132.2 119.4 132 119.3 131.9 119.2C129.3 116.6 126.7 116.6 124 119.2C122.7 120.5 121.9 120 121.9 118.1C121.8 115.4 121.8 112.7 121.8 110.1Z" fill="white"/>
<path d="M92.5999 55.6C92.5999 53 92.5999 50.4 92.5999 47.8C92.5999 46.5 93.0999 45.9 94.4999 45.9C97.2999 45.9 99.9999 45.9 102.8 45.9C104.1 45.9 104.7 46.4 104.7 47.8C104.7 53.1 104.7 58.5 104.7 63.8C104.7 65.3 104.2 65.8 102.9 64.8C102.7 64.7 102.5 64.5 102.3 64.4C98.0999 61.3 98.5999 62.2 95.1999 64.4C94.5999 64.8 93.8999 65.7 93.0999 65.2C92.4999 64.8 92.7999 63.8 92.7999 63.1C92.5999 60.6 92.5999 58.1 92.5999 55.6Z" fill="white"/>
</g>
<defs>
<clipPath id="clip0_43_737">
<rect width="197.2" height="197.2" fill="white"/>
</clipPath>
</defs>
</svg>
