<svg width="198" height="198" viewBox="0 0 198 198" fill="none" xmlns="http://www.w3.org/2000/svg">
<g clip-path="url(#clip0_43_1058)">
<path d="M98.6 197.2C153.055 197.2 197.2 153.055 197.2 98.6C197.2 44.1447 153.055 0 98.6 0C44.1447 0 0 44.1447 0 98.6C0 153.055 44.1447 197.2 98.6 197.2Z" fill="#013036"/>
<path d="M152.45 66.93C151.21 57.3 141.49 47.59 131.84 46.65C120.78 45.58 109.69 44.85 98.56 45.31C93.21 45.31 87.85 45.14 82.51 45.36C77.09 45.58 71.69 46.23 66.27 46.59C56.5 47.26 46.58 56.06 44.99 65.76C42.98 78.02 43.18 90.35 44.16 102.69C44.72 109.66 46.79 115.82 52.09 120.75C57.7 125.97 64.43 127.79 71.8 127.78C74.11 127.78 74.75 128.61 74.7 130.82C74.57 136.33 74.62 141.86 74.68 147.37C74.71 150.49 76.84 152.43 79.47 151.92C80.84 151.66 81.77 150.71 82.73 149.8C89.62 143.19 96.54 136.6 103.42 129.97C104.47 128.96 105.53 128.32 107.07 128.25C114.96 127.9 122.85 127.54 130.72 126.87C141.38 125.96 151.12 117.05 152.44 107.03C154.2 93.65 154.16 80.3 152.44 66.92L152.45 66.93ZM118.35 101.99C118.35 105.41 115.58 108.18 112.16 108.18H85.03C81.61 108.18 78.84 105.41 78.84 101.99V98.13C78.84 94.71 81.61 91.94 85.03 91.94H112.16C115.58 91.94 118.35 94.71 118.35 98.13V101.99ZM124.46 86.22H72.73C68.25 86.22 64.61 82.59 64.61 78.1C64.61 73.61 68.24 69.98 72.73 69.98H124.46C128.94 69.98 132.58 73.61 132.58 78.1C132.58 82.59 128.95 86.22 124.46 86.22Z" fill="white"/>
</g>
<defs>
<clipPath id="clip0_43_1058">
<rect width="197.2" height="197.2" fill="white"/>
</clipPath>
</defs>
</svg>
