<svg width="198" height="198" viewBox="0 0 198 198" fill="none" xmlns="http://www.w3.org/2000/svg">
<g clip-path="url(#clip0_43_956)">
<path d="M98.6 197.2C153.055 197.2 197.2 153.055 197.2 98.6C197.2 44.1447 153.055 0 98.6 0C44.1447 0 0 44.1447 0 98.6C0 153.055 44.1447 197.2 98.6 197.2Z" fill="#013036"/>
<path d="M98.6 46C127.8 46 151.2 69.4 151.2 98.4C151.2 127.8 127.8 151 98.5 151.1C69.8 151.3 45.9 127.1 46.1 98.4C46.4 69.4 69.6 46 98.6 46ZM76.2 125C76.7 124.8 77.5 124.5 78.3 124.2C87.5 120 96.6 115.8 106 111.7C108.6 110.6 110.4 108.9 111.5 106.2C115.7 97 119.9 87.5 124.3 78.3C125.1 76.4 125.6 74.6 124 72.9C122.4 71.3 120.8 71.8 119 72.6C109.4 77 100 81.4 90.4 85.6C88.5 86.4 87.2 87.7 86.2 89.7C83.4 95.7 80.7 101.7 77.9 107.7C76.1 111.4 74.3 115.3 72.7 119.1C71.3 122.3 73 125 76.2 125Z" fill="white"/>
<path d="M98.6 106.2C94.7 106.2 91 102.6 91 98.7C91 94.8 94.4 91.1 98.5 91.1C102.6 90.9 106.3 94.7 106.3 98.7C106.2 102.7 102.7 106.2 98.6 106.2Z" fill="white"/>
</g>
<defs>
<clipPath id="clip0_43_956">
<rect width="197.2" height="197.2" fill="white"/>
</clipPath>
</defs>
</svg>
