<svg width="198" height="198" viewBox="0 0 198 198" fill="none" xmlns="http://www.w3.org/2000/svg">
<g clip-path="url(#clip0_43_1007)">
<path d="M98.6 197.2C153.055 197.2 197.2 153.055 197.2 98.6C197.2 44.1447 153.055 0 98.6 0C44.1447 0 0 44.1447 0 98.6C0 153.055 44.1447 197.2 98.6 197.2Z" fill="#013036"/>
<path d="M104.38 79.23C105.09 78.42 105.39 78.03 105.74 77.69C107.11 76.34 108.72 75.63 110.65 76.23C112.7 76.87 114.14 78.23 114.32 80.42C114.54 83.06 114.53 85.73 114.51 88.39C114.51 89.67 114.78 90.29 116.21 90.66C120.54 91.78 122.7 94.54 122.74 99.05C122.83 109.18 122.78 119.3 122.76 129.43C122.75 132.98 121.31 135.86 118.55 138.16C116.28 140.05 113.65 141.78 114.47 145.5C114.72 146.62 113.76 146.86 112.79 146.86C103.69 146.85 94.59 146.84 85.5 146.86C84.29 146.86 83.81 146.43 83.83 145.21C83.89 141.72 82.34 139.2 79.31 137.42C76.75 135.91 75.58 133.52 75.59 130.52C75.62 124.08 75.56 117.65 75.61 111.21C75.64 106.92 77.81 104.06 82 103.04C83.52 102.67 83.86 102.06 83.85 100.65C83.8 93.53 83.83 86.4 83.85 79.28C83.85 76.87 85 75.21 87.23 74.32C89.23 73.53 90.97 74.09 92.39 75.55C93.25 76.43 94.26 77.39 93.08 78.85C92.77 79.23 92.9 80.01 92.9 80.6C92.9 89.7 92.88 98.79 92.92 107.89C92.92 108.77 92.34 110.25 94.02 110.24C95.66 110.23 95.14 108.77 95.14 107.87C95.18 98.77 95.14 89.68 95.18 80.58C95.18 78.64 93.75 77.1 94.07 74.99C94.52 72.1 96.19 69.99 98.86 69.86C101.45 69.73 103.69 71.68 104.08 74.54C104.27 75.88 104.26 77.26 104.37 79.24L104.38 79.23ZM103.2 96.3C103.2 100.93 103.19 105.56 103.21 110.19C103.21 110.97 102.91 112.05 104.28 112.07C105.62 112.09 105.44 111.07 105.45 110.24C105.46 100.9 105.46 91.55 105.45 82.21C105.45 81.29 105.61 80.09 104.21 80.15C102.97 80.2 103.21 81.35 103.21 82.15C103.19 86.86 103.2 91.58 103.2 96.29V96.3ZM115.76 101.96C115.76 98.87 115.76 95.78 115.76 92.69C115.76 91.82 115.81 90.86 114.51 90.93C113.33 90.99 113.52 91.94 113.52 92.66C113.5 98.75 113.5 104.85 113.52 110.94C113.52 111.69 113.42 112.55 114.61 112.56C115.77 112.56 115.76 111.76 115.76 110.97C115.76 107.97 115.76 104.96 115.76 101.96ZM84.55 112.09C84.55 109.86 84.57 107.64 84.55 105.41C84.55 104.68 84.7 103.78 83.5 103.76C82.36 103.74 82.33 104.52 82.33 105.33C82.33 109.78 82.33 114.23 82.33 118.68C82.33 119.44 82.25 120.28 83.41 120.32C84.61 120.37 84.54 119.53 84.54 118.76C84.55 116.53 84.54 114.31 84.54 112.08L84.55 112.09Z" fill="white"/>
<path d="M73.52 109.16C66.67 102.45 59.8 95.88 53.12 89.11C50.64 86.6 50.7 83.16 51.05 79.86C51.33 77.27 51.25 74.92 48.77 73.32C47.61 72.57 48.11 71.86 48.89 71.09C55.34 64.68 61.78 58.27 68.17 51.79C69.25 50.7 69.88 50.85 70.82 51.87C73.08 54.3 75.85 54.87 79.04 54.05C81.9 53.32 84.5 54 86.63 56.1C90.12 59.53 93.55 63 97.03 66.44C97.88 67.28 98.24 67.83 96.71 68.33C95.85 68.61 94.88 69.15 94.39 69.86C93.17 71.64 92.3 71.16 91.07 69.86C90.48 69.23 89.98 67.49 88.53 68.75C87.04 70.05 89.33 70.47 89.25 71.66C86.88 72.09 84.62 72.89 83.1 75.07C81.61 77.2 81.74 79.6 81.75 82C81.76 84.54 81.75 87.08 81.75 89.6C80.88 89.71 80.69 89.12 80.29 88.84C79.75 88.46 79.36 88.65 78.94 89.05C78.4 89.58 78.32 90.17 78.94 90.57C82.19 92.64 81.84 95.86 81.75 99.02C81.72 100.06 81.81 100.9 80.44 101.38C79.15 101.83 78.4 101.61 77.54 100.67C76.21 99.22 74.76 97.87 73.37 96.47C72.82 95.92 72.32 95.64 71.64 96.34C70.98 97.01 71.16 97.52 71.78 98.04C71.91 98.15 72.04 98.27 72.14 98.41C73.55 100.19 76.62 101.37 76.34 103.5C76.1 105.34 74.18 107.2 73.51 109.15L73.52 109.16Z" fill="white"/>
<path d="M124.98 96.14C123.42 92.38 121.28 89.92 117.86 88.85C116.8 88.52 116.92 87.78 116.91 87.03C116.89 85.06 116.97 83.08 116.87 81.11C116.64 76.55 112.76 73.41 108.26 74.07C107.54 74.18 106.76 74.72 106.42 73.51C105.4 69.89 102.79 68.12 99.5 67.59C103.32 63.58 107.02 59.42 111.03 55.58C113.16 53.54 116.08 53.2 119.02 53.57C121.94 53.94 124.87 54.33 126.8 51.25C127.45 50.22 128.16 50.67 128.87 51.38C135.34 57.89 141.82 64.39 148.34 70.86C149.21 71.72 149.28 72.29 148.35 73.13C145.75 75.5 145.11 78.37 145.98 81.78C146.74 84.74 145.79 87.35 143.61 89.52C139.17 93.93 134.76 98.38 130.31 102.79C129.02 104.07 127.4 105.71 125.72 105.05C124.32 104.5 125.42 102.29 125.15 100.84C124.85 99.21 125.64 98.1 126.78 97.06C128.24 95.73 129.58 94.28 130.98 92.89C131.57 92.31 132.04 91.8 131.21 90.98C130.31 90.1 129.84 90.83 129.35 91.36C127.95 92.85 126.58 94.37 124.98 96.12V96.14Z" fill="white"/>
<path d="M99.08 161.39C93.33 161.39 87.58 161.34 81.83 161.42C80.27 161.44 79.71 161.02 79.78 159.41C79.9 156.58 79.87 153.75 79.79 150.92C79.75 149.59 80.18 149.14 81.54 149.15C93.38 149.19 105.23 149.19 117.07 149.15C118.4 149.15 118.89 149.53 118.85 150.9C118.76 153.73 118.74 156.57 118.85 159.39C118.91 160.96 118.44 161.46 116.84 161.43C110.92 161.34 105 161.39 99.07 161.39H99.08Z" fill="white"/>
<path d="M160.82 66.41C160.33 66.93 159.85 67.53 159.27 68.03C157.42 69.64 156.01 72.86 153.87 72.68C152.02 72.53 150.35 69.72 148.66 68.03C141.73 61.13 134.85 54.18 127.88 47.31C126.7 46.14 126.57 45.41 127.87 44.28C129.8 42.6 131.46 39.53 133.48 39.31C135.6 39.08 137.24 42.36 139.04 44.14C145.88 50.89 152.65 57.71 159.44 64.51C159.97 65.04 160.7 65.44 160.82 66.41Z" fill="white"/>
<path d="M43.46 73.26C42.78 73.32 36.19 66.85 36.39 66.36C36.57 65.91 36.99 65.55 37.35 65.19C45.7 56.83 54.07 48.48 62.39 40.09C63.31 39.16 63.89 39.05 64.81 40.06C66.31 41.7 67.9 43.27 69.53 44.78C70.46 45.65 70.62 46.27 69.61 47.27C61.16 55.65 52.76 64.08 44.34 72.5C44.04 72.8 43.71 73.06 43.46 73.27V73.26Z" fill="white"/>
</g>
<defs>
<clipPath id="clip0_43_1007">
<rect width="197.2" height="197.2" fill="white"/>
</clipPath>
</defs>
</svg>
