<svg width="198" height="198" viewBox="0 0 198 198" fill="none" xmlns="http://www.w3.org/2000/svg">
<g clip-path="url(#clip0_43_1023)">
<path d="M98.6 197.2C153.055 197.2 197.2 153.055 197.2 98.6C197.2 44.1447 153.055 0 98.6 0C44.1447 0 0 44.1447 0 98.6C0 153.055 44.1447 197.2 98.6 197.2Z" fill="#013036"/>
<path d="M91.9 66.8C85.1 66.8 78.3 66.8 71.5 66.8C68.3 66.8 67.5 66 67.4 62.8C67.4 60.8 67.3 58.8 67.4 56.8C67.5 54 68.5 53.1 71.3 53C74 52.9 76.7 52.9 79.4 53C81.6 53.1 82.7 52.2 83 49.9C83.5 44.8 87.2 41.5 92 41.5C96.6 41.5 100.5 45.1 101 50C101.2 52.2 102.2 53.1 104.3 53C107.1 52.9 109.9 52.9 112.7 53C115.5 53.1 116.4 54 116.6 56.8C116.7 58.9 116.7 61 116.6 63.1C116.5 66 115.7 66.8 112.8 66.8C105.8 66.8 98.9 66.8 91.9 66.8Z" fill="white"/>
<path d="M122.8 122.1C119.5 122.1 117.3 124.3 117.3 127.5C117.3 130.7 119.6 132.9 122.7 133C125.9 133 128.2 130.8 128.2 127.7C128.2 126 127.7 124.6 126.7 123.6C125.7 122.6 124.4 122.1 122.8 122.1Z" fill="white"/>
<path d="M99.4 153.8C98.9 153.2 98.3 152.7 97.7 152C97.3 151.6 96.8 151.2 96.4 150.7C93 147.2 92 143.7 93.6 140.2C90.7 140.2 87.9 140.2 85 140.2C82.1 140.2 80.6 138.9 80.5 136.6C80.5 134.3 81.9 133.1 84.9 133.1C85.9 133.1 86.9 133.1 87.8 133.1C87.6 132.2 87.4 131.3 87.5 130.2C87.5 128.4 87.5 126.6 87.5 124.8C87.5 121.3 88.9 119 90.2 117.8C90.7 117.3 91.5 116.7 92.4 116.2C89.9 116.2 87.3 116.2 84.8 116.2C82 116.2 80.6 115 80.6 112.7C80.5 110.4 81.9 109.2 84.8 109.2C87.6 109.2 90.4 109.2 93.3 109.2C93.7 107.7 94.5 106.1 96.2 104.5C96.9 103.9 97.5 103.2 98.1 102.6C98.6 102.1 99.2 101.5 99.7 101C100.8 99.9 103.2 97.6 106.8 97.6C108.4 97.6 109.7 98 110.8 98.6C111.2 97.5 111.7 96.5 112.5 95.6C114.2 93.6 116.6 92.5 119.4 92.5H125.2L125.4 92.4L126.4 92.5H126.5C129.1 92.5 131.5 93.6 133.2 95.5C134 96.4 134.6 97.5 134.9 98.6C135.8 98.1 136.8 97.8 137.8 97.7C137.8 86.8 137.8 75.8 137.8 64.9C137.8 59.4 136.1 57.7 130.7 57.7C129.7 57.7 128.8 57.7 127.8 57.7C121.5 57.7 121.5 57.7 121.3 63.9C121.3 64.1 121.3 64.2 121.3 64.4C121 68.7 118.4 71.4 114.1 71.4C99.5 71.5 84.8 71.5 70.2 71.4C65.9 71.4 63.4 68.8 63.1 64.6C63 63.1 63 61.6 63.1 60.2C63.2 58.4 62.5 57.6 60.7 57.7C58.3 57.8 55.8 57.7 53.4 57.7C48.4 57.7 46.6 59.5 46.6 64.5C46.6 92.4 46.6 120.3 46.6 148.2C46.6 154.1 48.3 155.8 54.2 155.8C70.1 155.8 86 155.8 101.8 155.8C100.8 155.2 100.1 154.6 99.4 153.8ZM85 85.1C97 85.1 109 85.1 121.1 85.1C124.1 85.1 125.9 86.6 125.8 88.8C125.8 90.8 124 92.2 121 92.2C115 92.2 109 92.2 103 92.2C97 92.2 91 92.2 85 92.2C82 92.2 80.6 91 80.6 88.6C80.5 86.3 81.9 85.1 85 85.1ZM59.6 88.3C59.6 82.3 59.6 82.3 65.7 82.3C72.4 82.3 72.4 82.3 72.4 89C72.4 89.4 72.4 89.9 72.4 90.3C72.4 94.4 72 94.8 67.9 94.8C66.2 94.8 64.6 94.7 62.9 94.8C60.5 94.9 59.3 93.8 59.5 91.3C59.7 90.4 59.6 89.4 59.6 88.3ZM66.2 142.9C59.6 142.9 59.6 142.9 59.6 136.4C59.6 130.1 59.6 130.1 65.9 130.1C72.4 130.1 72.4 130.1 72.4 136.6C72.5 142.9 72.5 142.9 66.2 142.9ZM72.4 115C72.4 118.3 71.8 118.9 68.4 118.9C67.5 118.9 66.7 118.9 65.8 118.9C59.6 118.9 59.6 118.9 59.6 112.8C59.6 106.1 59.6 106.1 66.4 106.1C67.4 106.1 68.3 106.1 69.3 106.1C71.3 106.2 72.4 107.2 72.4 109.2C72.5 111.1 72.5 113.1 72.4 115Z" fill="white"/>
<path d="M128.2 152.6C128.2 151.8 127.9 150.8 128.5 150.2C130.2 148.8 132.3 148.2 134.3 147.6C135.6 147.2 136.2 148.6 136.9 149.4C138.3 150.8 139.4 150.7 140.7 149.3C141.9 148 143.2 146.7 144.5 145.5C146 144.1 146 142.9 144.5 141.6C143.8 141 142.6 140.4 142.8 139.4C143.1 137.3 144.1 135.4 145.1 133.7C145.8 132.6 147.1 133.1 148.2 133.1C150 133 150.9 132.2 150.9 130.3C150.9 128.5 150.9 126.7 150.9 125C151 123 150.1 122.1 148.1 122.2C147.2 122.2 145.9 122.6 145.3 121.8C144 120.1 143.3 118 142.7 115.9C142.3 114.7 143.8 114.1 144.5 113.3C145.9 112 145.8 110.8 144.5 109.5C143.1 108.2 141.8 106.8 140.4 105.4C139.4 104.4 138.2 104.1 137.4 105.4C135.6 108 133.7 107.4 131.3 106.4C129.1 105.5 127.7 104.5 128.1 101.9C128.3 100.6 127.8 99.4 126.2 99.4C126 99.4 125.9 99.4 125.7 99.4H119.2C117.4 99.4 117 100.8 117.2 102.2C117.6 104.7 116.1 105.6 114.1 106.3C112.1 107 110.4 108.1 108.6 105.9C107 104 106.3 104.1 104.4 105.9C103.2 107.1 102 108.3 100.8 109.5C99.4 110.8 99.5 112 100.8 113.3C101.5 114 103 114.6 102.6 115.9C102 117.9 101.3 120.1 100 121.8C99.4 122.6 98.2 122.2 97.2 122.1C95.3 122.1 94.4 122.9 94.5 124.8C94.5 126.7 94.5 128.5 94.5 130.4C94.5 132.3 95.5 133 97.3 133.1C98.4 133.1 99.7 132.6 100.4 133.8C101.4 135.6 102.3 137.5 102.7 139.5C102.9 140.3 101.9 140.8 101.3 141.4C99.3 143.4 99.3 143.8 101.3 145.9C102.4 147 103.6 148.1 104.6 149.2C106 150.8 107.3 150.7 108.7 149.2C109.4 148.5 110 147.2 111.2 147.6C113.2 148.3 115.4 148.8 117 150.3C117.6 150.9 117.3 152 117.3 152.9C117.3 154.6 117.8 155.7 119.7 155.7C119.9 155.7 120 155.7 120.2 155.7H125.5C125.6 155.7 125.7 155.7 125.8 155.7C127.8 155.7 128.2 154.4 128.2 152.6ZM122.6 140C115.6 140 110.3 134.6 110.3 127.5C110.3 120.4 115.7 115 122.9 115.1C130.1 115.1 135.3 120.5 135.2 127.7C135.1 134.7 129.7 140 122.6 140Z" fill="white"/>
<path d="M935.7 260.7H-548.5C-561.2 260.7 -571.5 250.4 -571.5 237.7V-124.7C-571.5 -137.4 -561.2 -147.7 -548.5 -147.7H935.7C948.4 -147.7 958.7 -137.4 958.7 -124.7V237.7C958.7 250.4 948.4 260.7 935.7 260.7Z" stroke="#013036" stroke-miterlimit="10"/>
</g>
<defs>
<clipPath id="clip0_43_1023">
<rect width="197.2" height="197.2" fill="white"/>
</clipPath>
</defs>
</svg>
