<svg width="80" height="80" viewBox="0 0 80 80" fill="none" xmlns="http://www.w3.org/2000/svg">
<path d="M40.01 6.95999C47.14 6.95999 54.27 6.95999 61.4 6.95999C63.99 6.95999 65.37 7.78999 66.24 10.17C68.47 16.21 70.75 22.24 72.71 28.38C73.55 31.01 72.94 33.79 71.19 36.04C69.5 38.21 67 38.04 64.62 37.78C62.91 37.59 61.33 36.94 60.24 35.49C59.81 34.91 59.58 35 59.12 35.49C56.05 38.78 50.19 38.78 47.09 35.49C46.61 34.98 46.43 35 45.96 35.49C42.88 38.78 36.98 38.78 33.92 35.49C33.45 34.98 33.27 34.97 32.79 35.48C29.69 38.77 23.82 38.78 20.76 35.5C20.3 35.01 20.12 34.94 19.63 35.47C17.44 37.82 13.47 38.65 10.53 37.41C7.86002 36.28 7.33002 33.84 6.98002 31.35C6.78002 29.94 6.98002 28.56 7.48002 27.19C9.44002 21.88 11.32 16.53 13.23 11.2C14.47 7.73999 15.56 6.95999 19.17 6.95999C26.12 6.95999 33.07 6.95999 40.01 6.95999Z" fill="#008A9B"/>
<path d="M49.35 73C44.5 73 39.66 72.97 34.81 73.02C33.62 73.03 33.22 72.67 33.23 71.46C33.28 65.2 33.23 58.93 33.28 52.67C33.29 51.43 32.97 50.99 31.67 51.02C28.33 51.11 24.99 51.09 21.66 51.02C20.56 51 20.25 51.39 20.26 52.45C20.3 58.71 20.24 64.98 20.31 71.24C20.33 72.63 19.91 73.16 18.52 73.01C17.62 72.91 16.69 73.01 15.78 72.98C13.18 72.92 11.32 71.06 11.31 68.44C11.29 60.07 11.31 51.71 11.28 43.34C11.28 42.22 11.56 41.79 12.78 41.94C14.95 42.2 17.07 41.8 19.05 40.9C19.82 40.55 20.45 40.55 21.25 40.88C24.92 42.43 28.63 42.42 32.3 40.87C33.04 40.56 33.63 40.54 34.37 40.86C38.09 42.44 41.83 42.45 45.54 40.83C46.23 40.53 46.8 40.54 47.49 40.83C51.2 42.42 54.95 42.43 58.66 40.85C59.4 40.53 60 40.54 60.73 40.87C62.81 41.8 65 42.2 67.27 41.92C68.26 41.8 68.56 42.19 68.56 43.13C68.54 51.63 68.56 60.14 68.53 68.64C68.52 71.16 66.61 72.96 64.01 72.97C59.12 73 54.23 72.97 49.33 72.97L49.35 73ZM50.81 64.03C53.28 64.03 55.75 64 58.22 64.05C59.18 64.07 59.63 63.84 59.62 62.76C59.57 59.29 59.58 55.81 59.62 52.34C59.62 51.41 59.34 51.04 58.37 51.05C53.43 51.08 48.49 51.09 43.56 51.05C42.52 51.05 42.22 51.41 42.23 52.41C42.27 55.84 42.27 59.27 42.23 62.7C42.22 63.7 42.52 64.09 43.56 64.06C45.98 64 48.41 64.04 50.83 64.04L50.81 64.03Z" fill="#008A9B"/>
</svg>
