<svg width="198" height="198" viewBox="0 0 198 198" fill="none" xmlns="http://www.w3.org/2000/svg">
<g clip-path="url(#clip0_43_1061)">
<path d="M98.6 197.2C153.055 197.2 197.2 153.055 197.2 98.6C197.2 44.1447 153.055 0 98.6 0C44.1447 0 0 44.1447 0 98.6C0 153.055 44.1447 197.2 98.6 197.2Z" fill="#013036"/>
<path d="M50.9 150.8C49.1 148.3 50.1 143.9 52.7 142.4C55.6 140.8 56.2 137.3 53.8 134.8C52.3 133.1 51.9 130 53.1 128.1C53.7 127 54.7 127 55.8 127C64.1 127 72.4 127 80.7 127C86 127 91.3 127.1 96.6 127C98.6 127 99.6 127.8 99.9 129.8C100.2 131.8 100.3 133.5 98.5 135.1C96.2 137.2 96.9 140.6 99.5 142.3C102.2 144 103.3 147.9 102 150.9C84.8 150.8 67.8 150.8 50.9 150.8Z" fill="white"/>
<path d="M105.9 150.8C106.5 147.8 105.8 144.9 104.8 142C104.4 140.7 103.2 139.9 101.9 139.3C101.4 139.1 100.9 138.8 100.9 138.2C101 137.4 101.7 137.4 102.3 137.3C102.7 137.3 103.1 137.3 103.5 137.3C116.5 137.3 129.6 137.3 142.6 137.3C144.4 137.3 145.6 137.5 145.8 139.6C145.9 140.7 146.7 141.7 147.7 142.1C149.7 142.8 150.4 144.4 150.7 146.3C150.7 147.8 151.3 149.9 150.5 150.6C149.8 151.3 147.7 150.8 146.2 150.8C132.8 150.8 119.4 150.8 105.9 150.8Z" fill="white"/>
<path d="M78 124C73.6 124 69.2 124 64.7 124C63.4 124 62.7 123.8 62.6 122.3C62.2 116.3 59.5 113.8 53.4 113.5C52.4 113.5 51.6 113.4 51.6 112.2C51.5 107.4 49.9 103 48.3 98.6C45.7 91.2 45.2 83.7 48 76.3C51.4 67.5 58.4 63.2 67.3 61.5C69.8 61 72.3 61 74.8 61C76.6 61 77.4 61.8 77.4 63.6C77.4 64.2 77.4 64.8 77.4 65.4C77.3 66.5 77.7 67.2 78.9 67.5C81.3 68 83.1 69.4 84.7 71.1C88.1 74.6 91.6 78 96.1 80.2C97.5 80.9 97.8 82.1 97 83.4C95.6 85.6 94.2 87.8 92.8 89.9C92.1 91.1 91.1 91.3 89.8 90.8C85.1 88.9 80.1 88.1 75.3 86.9C73.8 86.5 73.6 87.2 73.9 88.4C74.2 89.5 75.1 90.2 76 90.8C80.4 93.9 84.8 96.9 88.4 101.1C92.3 105.7 94.6 111.2 95.8 117C96.6 120.8 93.8 124 89.9 124C85.8 124 81.9 124 78 124ZM65.6 69.1C58.3 70.9 53.8 76.6 53.3 83.9C52.9 90.8 55.4 97.2 56.8 103.7C57.3 99.8 56.4 96.1 55.8 92.4C54.1 82.2 55.9 73.8 65.6 69.1Z" fill="white"/>
<path d="M121.2 124C114.8 124 108.4 124 102 124C99.3 124 99.1 123.6 99.5 121C101.1 109.3 102.6 97.6 104.1 85.9C104.3 84.3 104.9 83.8 106.4 83.8C116 83.8 125.7 83.8 135.3 83.8C136.9 83.8 137.6 84.3 137.8 86C139.3 97.9 140.9 109.8 142.5 121.7C142.7 123.4 142.3 124 140.6 124C134.2 123.9 127.7 124 121.2 124Z" fill="white"/>
<path d="M120.9 68.8C115.9 68.8 111 68.8 106 68.8C104.8 68.8 103.7 68.6 102.9 67.6C102.3 66.9 101.5 66.5 100.6 66.3C98.4 65.8 97.9 64.5 98 62.4C98.2 57.7 98.2 53 98.2 48.3C98.2 46.7 98.8 46 100.5 46.1C102.2 46.2 103.9 46.2 105.6 46.1C106.8 46.1 107.3 46.6 107.3 47.8C107.3 49.4 107.3 51.1 107.3 52.7C107.3 53.8 107.8 54.3 108.9 54.3C110.5 54.3 112 54.2 113.6 54.3C114.9 54.3 115.3 53.7 115.2 52.6C115.2 51 115.2 49.5 115.2 47.9C115.2 46.7 115.6 46.1 116.9 46.1C119.7 46.1 122.5 46.1 125.3 46.1C126.5 46.1 127 46.7 127 47.8C127 49.2 127.1 50.7 127 52.1C126.9 53.8 127.6 54.4 129.3 54.3C129.8 54.2 130.4 54.3 130.9 54.3C135.4 54.2 135.1 55 134.9 50.1C134.8 45.8 134.4 46.2 138.9 46.2C143.5 46.2 143.6 46.2 143.9 50.6C144.2 54.9 144.1 59.3 144.2 63.6C144.2 64.9 143.6 65.6 142.4 66C141.1 66.4 139.8 66.9 138.9 68C138.2 68.8 137.2 68.8 136.2 68.8C131 68.8 125.9 68.8 120.9 68.8Z" fill="white"/>
<path d="M121.1 71.6C126.1 71.6 131 71.6 136 71.6C139.4 71.6 141.1 73.2 141.2 76.3C141.2 79.3 139.4 81.1 136.1 81.1C126.1 81.2 116 81.2 106 81.1C102.5 81.1 100.9 79.4 101 76.1C101.1 73.1 102.7 71.7 106.1 71.7C111 71.5 116 71.6 121.1 71.6Z" fill="white"/>
<path d="M125.7 134.6C119 134.6 112.4 134.6 105.7 134.6C104.3 134.6 103.6 134.3 103.7 132.7C103.8 131.4 103.5 130.1 103.3 128.9C103 127.4 103.6 127 105 127C110 127 114.9 127 119.9 127C128.2 127 136.5 127 144.7 127C145.8 127 147.2 126.6 147.7 128C148.4 129.8 149 131.7 148.1 133.5C147.6 134.6 146.3 134.5 145.2 134.5C138.7 134.6 132.2 134.6 125.7 134.6Z" fill="white"/>
</g>
<defs>
<clipPath id="clip0_43_1061">
<rect width="197.2" height="197.2" fill="white"/>
</clipPath>
</defs>
</svg>
