<svg width="80" height="80" viewBox="0 0 80 80" fill="none" xmlns="http://www.w3.org/2000/svg">
<path d="M6.80001 36C6.80001 28.7 6.80001 21.4 6.80001 14C6.80001 9 9.20001 6.5 14.2 6.5C26.7 6.5 39.1 6.5 51.6 6.5C56.6 6.5 59.1 9 59.1 14C59.1 23 59.1 31.9 59.1 40.9C59.1 42.3 58.8 43 57.2 43.1C47.2 44.3 40.7 54 43.2 63.8C43.6 65.3 43.5 65.5 41.9 65.5C32.7 65.5 23.5 65.5 14.3 65.5C12.5 65.5 10.7 65.3 9.20001 64.2C7.30001 62.7 6.70001 60.8 6.70001 58.5C6.80001 50.9 6.80001 43.5 6.80001 36ZM39.6 26.4C42.9 26.4 46.1 26.4 49.4 26.4C50.6 26.4 51.5 26 51.4 24.7C51.4 23.4 50.5 23 49.3 23C42.8 23 36.3 23 29.8 23C28.3 23 27.6 23.6 27.6 24.7C27.7 26.1 28.7 26.3 29.8 26.3C33.1 26.4 36.4 26.4 39.6 26.4ZM39.6 38.2C42.8 38.2 46 38.2 49.3 38.2C50.8 38.2 51.6 37.6 51.5 36.5C51.4 35.1 50.4 34.9 49.2 34.9C42.8 34.9 36.3 34.9 29.9 34.9C28.7 34.9 27.7 35.2 27.7 36.6C27.7 38 28.8 38.3 29.9 38.3C33.1 38.2 36.4 38.2 39.6 38.2ZM35.6 47.3C33.6 47.3 31.7 47.3 29.7 47.3C28.6 47.3 27.8 47.6 27.7 48.9C27.7 50.2 28.5 50.6 29.6 50.6C33.5 50.6 37.5 50.6 41.4 50.6C42.5 50.6 43.3 50 43.3 48.9C43.3 47.7 42.4 47.3 41.3 47.3C39.4 47.3 37.5 47.3 35.6 47.3ZM18.3 38.5C19.1 38.5 19.8 38.1 20.3 37.5C21.7 36 23.2 34.5 24.5 33C25.2 32.2 25.4 31.4 24.6 30.6C23.7 29.8 22.9 30 22.1 30.8C21.4 31.5 20.7 32.3 19.9 33.1C18.6 34.4 18.6 34.4 17.4 33.1C16.7 32.4 16 32.1 15.1 32.6C14.2 33.2 14.1 34 14.6 34.9C15.1 35.8 15.7 36.7 16.4 37.5C16.9 38.1 17.6 38.4 18.3 38.5ZM18.4 50.7C19.2 50.7 19.8 50.4 20.3 49.9C21.7 48.4 23.2 46.9 24.6 45.4C25.3 44.6 25.4 43.7 24.6 43C23.8 42.2 22.9 42.4 22.2 43.1C21.4 43.9 20.6 44.7 19.9 45.5C18.7 46.8 18.7 46.8 17.4 45.5C16.7 44.7 15.9 44.6 15.1 45.1C14.2 45.7 14.2 46.5 14.7 47.4C15.2 48.3 15.8 49.1 16.4 49.9C16.9 50.5 17.6 50.8 18.4 50.7ZM18.4 26.7C19 26.7 19.6 26.5 20 26.1C21.6 24.5 23.2 22.9 24.7 21.2C25.4 20.5 25.4 19.6 24.7 18.9C23.9 18.1 23 18.3 22.3 19C21.5 19.8 20.6 20.6 19.9 21.5C19 22.6 18.3 22.9 17.5 21.4C17 20.5 16 20.3 15.1 20.9C14.3 21.5 14.2 22.4 14.7 23.2C15.2 24.1 15.8 24.9 16.4 25.7C16.9 26.4 17.6 26.7 18.4 26.7Z" fill="#008A9B"/>
<path d="M58.6 73.4C51.4 73.3 45 66.9 45.3 59C45.7 50.8 52.4 45.2 59.7 45.6C68.6 46.1 73.6 53.3 73.1 60.2C72.6 68.2 66 74.1 58.6 73.4ZM56.9 66C57.8 66.1 58.5 65.7 59.1 65.1C60 64.2 60.9 63.2 61.8 62.3C63.6 60.4 65.5 58.5 67.3 56.5C68.3 55.4 68.4 54.1 67.6 53.3C66.8 52.4 65.4 52.6 64.3 53.7C63.9 54.1 63.4 54.6 63 55.1C61.4 56.8 59.7 58.5 58.1 60.2C57.3 61.2 56.7 61.1 56 60.1C55.5 59.4 54.8 58.7 54.2 58.1C53.2 57.1 52.1 57 51.3 57.8C50.4 58.6 50.4 59.8 51.3 60.9C52.5 62.3 53.7 63.7 54.9 65C55.3 65.5 55.9 66 56.9 66Z" fill="#008A9B"/>
</svg>
