<svg width="198" height="198" viewBox="0 0 198 198" fill="none" xmlns="http://www.w3.org/2000/svg">
<g clip-path="url(#clip0_43_1133)">
<path d="M98.6 197.2C153.055 197.2 197.2 153.055 197.2 98.6C197.2 44.1447 153.055 0 98.6 0C44.1447 0 0 44.1447 0 98.6C0 153.055 44.1447 197.2 98.6 197.2Z" fill="#013036"/>
<path d="M157.8 106.1C156.1 114 151.4 119.6 144.7 123.8C143.5 124.5 143.3 125.3 143.4 126.6C144.1 133.3 146.2 139.5 149.5 145.3C149.9 145.9 150.7 146.7 150.1 147.4C149.4 148.2 148.5 147.5 147.8 147.2C140.2 143.9 133.8 139.1 128.9 132.5C127.6 130.7 126.3 130.2 124.1 130.4C114.6 131.4 105.4 129.9 96.7 125.6C96.2 125.3 95.5 125.2 95.4 124.2C97.9 123.8 100.5 123.5 103 123C114.7 120.7 125.4 116.2 133.9 107.5C140.1 101.1 143.7 93.6 143.8 84.6C143.8 84 143.5 83.3 144.3 83C145 82.8 145.4 83.3 145.9 83.7C152 87.8 156.2 93.3 157.8 100.6C157.8 102.4 157.8 104.3 157.8 106.1Z" fill="white"/>
<path d="M89.2 120.5C86.9 120.7 84.3 120.4 81.7 120C79.7 119.7 78.7 120.4 77.5 122C70.9 130.9 62.5 137.6 52.3 142C51.3 142.4 50 143.6 49.2 142.6C48.3 141.6 49.7 140.5 50.2 139.6C54.6 132.1 57.1 124 58.2 115.4C58.4 113.7 58.1 112.6 56.5 111.6C52.1 108.9 48.3 105.7 45.2 101.5C37.1 90.5 37.6 77.3 46.5 66.9C54.2 58 64.2 53.2 75.5 51C91.2 47.9 106.4 49.4 120.7 57.1C125.7 59.8 130 63.3 133.6 67.8C142.4 78.9 141.9 93.3 132.3 103.9C123.8 113.2 112.9 117.7 100.7 119.8C97 120.3 93.3 120.6 89.2 120.5ZM108.2 79.3C105 79.3 102.4 81.9 102.5 85C102.6 88.1 105.3 90.7 108.4 90.7C111.5 90.7 114.1 88 114.1 84.9C114 81.7 111.5 79.3 108.2 79.3ZM76.8 85C76.8 81.8 74.4 79.4 71.1 79.4C67.8 79.4 65.4 81.7 65.5 85C65.5 88.2 68 90.8 71.2 90.7C74.3 90.6 76.8 88.1 76.8 85ZM95.3 85.1C95.3 81.7 93.1 79.4 89.8 79.3C86.6 79.2 84 81.7 84 84.8C84 88 86.4 90.6 89.6 90.7C92.7 90.8 95.3 88.3 95.3 85.1Z" fill="white"/>
</g>
<defs>
<clipPath id="clip0_43_1133">
<rect width="197.2" height="197.2" fill="white"/>
</clipPath>
</defs>
</svg>
