<svg width="198" height="198" viewBox="0 0 198 198" fill="none" xmlns="http://www.w3.org/2000/svg">
<g clip-path="url(#clip0_43_1101)">
<path d="M98.6 197.2C153.055 197.2 197.2 153.055 197.2 98.6C197.2 44.1447 153.055 0 98.6 0C44.1447 0 0 44.1447 0 98.6C0 153.055 44.1447 197.2 98.6 197.2Z" fill="#013036"/>
<path d="M167.6 102.6C166.3 110.5 163.2 117.3 157.3 122.4C156.1 123.4 156.4 124.6 156.7 125.8C158 131 159.4 136.1 160.7 141.3C160.9 142.1 161.5 143.2 160.9 143.8C160.1 144.5 159.3 143.5 158.6 143.1C152.5 139.7 146.3 136.3 140.3 132.7C138.1 131.4 135.9 131 133.5 131C124.3 131 116 128.2 109 122C107.3 120.5 106.9 119.5 108.8 117.6C119.7 106.6 123 93.5 118.6 78.6C118.1 76.9 118.2 76 120 75.3C134.9 69.7 154 73.9 163.2 88.1C165.4 91.5 166.3 95.4 167.6 99.2C167.4 100.4 167.5 101.5 167.6 102.6ZM149.8 92.2C149.8 86.3 146 82.5 140 82.1C134.8 81.7 129.2 85.5 128.5 90.4C128.2 92.3 127.2 95.1 130.1 95.6C132.7 96.1 132.7 93.4 133.1 91.5C133.7 88.8 135.5 87.2 138.1 86.8C140.6 86.4 142.9 86.9 144.3 89.2C145.7 91.5 145.4 94 143.8 96.1C142.7 97.6 141.3 98.8 140 100.1C137.4 102.6 136.3 105.7 136.4 109.3C136.4 110.8 136.8 112 138.6 112C140.2 112 141.1 110.9 141 109.4C140.9 105.6 142.9 103.1 145.6 100.8C148.4 98.5 150.1 95.6 149.8 92.2ZM141.7 120.4C141.5 118.5 140.3 117.2 138.4 117.3C136.3 117.4 135.4 119 135.5 120.9C135.6 122.8 136.8 124 138.7 123.9C140.7 123.9 141.8 122.6 141.7 120.4Z" fill="white"/>
<path d="M73 53.2C87.6 53.6 100.2 58.4 109.3 70.3C121.5 86.4 117.1 108.3 99.6 119.8C90.6 125.7 80.6 128.1 69.9 127.7C68.4 127.6 67.1 127.9 65.9 128.7C57.4 133.5 48.9 138.3 40.3 143.1C39.6 143.5 38.7 144.5 37.9 143.8C37.2 143.2 37.8 142.1 38 141.3C39.7 134.4 41.5 127.5 43.3 120.6C43.7 119.1 43.7 118 42.4 116.8C23.3 100.5 25.4 72 50.4 58.6C57.4 54.9 64.9 53.1 73 53.2ZM72.9 96.5C76.4 96.5 79.3 93.6 79.3 90.1C79.3 86.8 76.2 83.7 72.8 83.8C69.4 83.8 66.4 86.8 66.4 90.2C66.4 93.6 69.4 96.5 72.9 96.5ZM55.1 83.7C51.7 83.6 48.8 86.5 48.8 90.1C48.7 93.6 51.5 96.5 55 96.5C58.5 96.6 61.2 93.9 61.2 90.2C61.2 86.6 58.5 83.7 55.1 83.7ZM97.1 89.8C97 86.4 93.8 83.5 90.5 83.6C87.1 83.8 84.2 87 84.4 90.3C84.6 93.9 87.5 96.6 91 96.4C94.5 96.3 97.2 93.3 97.1 89.8Z" fill="white"/>
<path d="M223.9 260.7H-1260.2C-1272.9 260.7 -1283.2 250.4 -1283.2 237.7V-124.7C-1283.2 -137.4 -1272.9 -147.7 -1260.2 -147.7H223.9C236.6 -147.7 246.9 -137.4 246.9 -124.7V237.7C246.9 250.4 236.6 260.7 223.9 260.7Z" stroke="#013036" stroke-miterlimit="10"/>
</g>
<defs>
<clipPath id="clip0_43_1101">
<rect width="197.2" height="197.2" fill="white"/>
</clipPath>
</defs>
</svg>
