<svg width="198" height="198" viewBox="0 0 198 198" fill="none" xmlns="http://www.w3.org/2000/svg">
<g clip-path="url(#clip0_43_1095)">
<path d="M98.6 197.2C153.055 197.2 197.2 153.055 197.2 98.6C197.2 44.1447 153.055 0 98.6 0C44.1447 0 0 44.1447 0 98.6C0 153.055 44.1447 197.2 98.6 197.2Z" fill="#013036"/>
<path d="M65.89 67.58C70.06 68.12 122.56 68.02 125.53 67.45C121.74 62.18 118.06 57.06 114.38 51.93C112.06 48.71 112.92 46.34 116.73 45.12C118.38 44.59 118.83 45.89 119.47 46.76C123.99 52.93 128.52 59.1 132.9 65.37C134.23 67.27 135.73 68 138.02 67.95C143.41 67.82 148.8 67.95 154.18 67.9C156.17 67.88 157.6 68.29 157.43 70.73C157.29 72.77 158.13 75.4 154.6 75.26C152.83 75.19 152.15 76.22 151.73 77.71C150.21 83.1 148.73 88.5 147.08 93.85C146.4 96.04 147.53 96.85 149.13 97.88C159.51 104.59 164.33 114.24 162.92 126.46C161.49 138.87 152.93 148.27 140.97 151.22C129.44 154.06 119.67 150.62 111.79 141.96C110.07 140.06 108.43 139.37 105.99 139.38C91.55 139.46 77.11 139.43 62.67 139.42C57.46 139.42 57.35 139.33 55.96 134.44C50.67 115.9 45.36 97.37 40.13 78.82C39.52 76.67 38.91 75.18 36.18 75.13C33.06 75.07 34.31 72.36 34.11 70.65C33.88 68.76 34.83 67.9 36.74 67.91C42.24 67.94 47.73 67.8 53.23 67.95C55.76 68.02 57.39 67.22 58.86 65.1C63.15 58.9 67.78 52.93 72.03 46.71C73.84 44.06 75.13 45.25 76.96 46.47C78.96 47.8 79.55 48.89 77.9 51.06C73.86 56.36 70.05 61.83 65.89 67.58ZM111.96 122.76C111.92 135.13 121.43 144.84 133.64 144.88C146.2 144.93 155.74 135.5 155.84 122.95C155.94 110.83 146.07 100.68 134.16 100.65C121.85 100.63 111.99 110.44 111.96 122.75V122.76ZM98.74 104.51C98.74 100.42 98.66 96.33 98.77 92.24C98.83 90 97.74 89.53 95.79 89.54C93.93 89.56 92.7 89.84 92.73 92.15C92.81 100.11 92.81 108.08 92.73 116.04C92.7 118.41 93.82 118.93 95.91 118.93C97.96 118.93 98.84 118.26 98.78 116.13C98.67 112.26 98.75 108.38 98.74 104.51ZM66.79 92.51C68 100.46 69.24 108.4 70.41 116.35C70.69 118.28 71.42 119.24 73.58 118.83C75.72 118.42 76.42 117.34 76.08 115.23C74.81 107.4 73.53 99.57 72.45 91.71C72.17 89.67 71.44 89.28 69.57 89.5C67.61 89.73 66.51 90.37 66.79 92.51ZM118.65 94.5C118.34 96.83 118.77 97.89 120.97 96.64C121.8 96.17 122.75 95.87 123.52 95.32C125.07 94.22 124.91 92.43 124.72 90.93C124.5 89.16 122.74 89.58 121.58 89.59C117.67 89.62 119.73 93.18 118.65 94.51V94.5Z" fill="white"/>
<path d="M130.79 133.5C129.51 133.54 128.52 132.93 127.66 132.08C126.28 130.73 124.91 129.36 123.54 127.99C120.61 125.05 120.97 122.95 124.61 120.91C126.31 119.96 127.09 121.29 127.77 122.19C129.79 124.84 131.41 124.73 133.54 122.19C135.74 119.57 138.4 117.33 140.77 114.84C142.05 113.5 143.21 113.49 144.2 114.94C145.15 116.32 148.24 117.2 146.08 119.52C141.91 124 137.47 128.22 133.11 132.52C132.5 133.12 131.68 133.47 130.78 133.49L130.79 133.5Z" fill="white"/>
</g>
<defs>
<clipPath id="clip0_43_1095">
<rect width="197.2" height="197.2" fill="white"/>
</clipPath>
</defs>
</svg>
