<svg width="198" height="198" viewBox="0 0 198 198" fill="none" xmlns="http://www.w3.org/2000/svg">
<g clip-path="url(#clip0_43_1121)">
<path d="M98.6 197.2C153.055 197.2 197.2 153.055 197.2 98.6C197.2 44.1447 153.055 0 98.6 0C44.1447 0 0 44.1447 0 98.6C0 153.055 44.1447 197.2 98.6 197.2Z" fill="#013036"/>
<path d="M98.7 46.2C114.3 46.2 129.8 46.2 145.4 46.2C148.1 46.2 150.3 47.1 151.8 49.5C152.4 50.5 152.7 51.7 152.7 52.9C152.7 75.4 152.7 98 152.7 120.5C152.7 124 150.3 126.5 146.9 126.8C143.5 127.1 140.1 126.9 136.7 126.9C108.6 126.9 80.4 126.9 52.3 126.9C51.3 126.9 50.4 126.9 49.4 126.7C46.5 126.1 44.5 123.5 44.5 120.3C44.5 111.7 44.5 103.1 44.5 94.5C44.5 80.7 44.5 66.9 44.5 53.2C44.5 50.5 45.6 48.4 47.9 47C49.2 46.3 50.6 46.2 52 46.2C67.6 46.2 83.1 46.2 98.7 46.2ZM98.6 109.8C112.6 109.8 126.6 109.8 140.6 109.8C142.1 109.8 142.1 109.8 142.1 108.2C142.1 91.5 142.1 74.8 142.1 58.2C142.1 56.8 142.1 56.8 140.7 56.8C112.7 56.8 84.7 56.8 56.8 56.8C55.2 56.8 55.2 56.8 55.2 58.4C55.2 75 55.2 91.6 55.2 108.2C55.2 109.8 55.2 109.8 56.8 109.8C70.7 109.9 84.6 109.9 98.6 109.8ZM101.2 118.6C101.2 117.1 100.1 116 98.6 116C97.1 116 96 117.1 96 118.7C96 120.3 97 121.2 98.6 121.2C100.2 121.3 101.2 120.3 101.2 118.6Z" fill="white"/>
<path d="M98.6 151C85.6 151 72.6 151 59.5 151C57.7 151 57.6 150.9 57.9 149.2C59 143.1 63.5 139.5 70.2 139.4C74.7 139.4 79.2 139.4 83.8 139.4C84.9 139.4 85.2 139.1 85.2 138C85.1 136.4 85.2 134.8 85.2 133.3C85.2 132.4 85.5 132.1 86.4 132.1C94.6 132.1 102.8 132.1 110.9 132.1C111.8 132.1 112.1 132.5 112.1 133.3C112.1 134.9 112.1 136.5 112.1 138C112 139.1 112.4 139.4 113.5 139.4C117.8 139.3 122.1 139.4 126.4 139.4C127.8 139.4 129.3 139.4 130.7 139.8C135.4 140.9 139 145 139.4 149.7C139.5 150.9 139.4 151 138 151C124.8 151 111.7 151 98.6 151Z" fill="white"/>
<path d="M120.5 83.7C120.5 77.6 120.5 71.5 120.5 65.4C120.5 64 120.5 63.9 121.9 63.9C125.3 63.9 128.6 63.9 132 63.9C133.6 63.9 133.6 63.9 133.6 65.5C133.6 75.7 133.6 85.9 133.6 96.1C133.6 98.1 133.6 100.1 133.6 102.1C133.6 103 133.3 103.5 132.3 103.4C128.7 103.4 125.2 103.4 121.6 103.4C120.7 103.4 120.3 103.1 120.4 102.1C120.5 96.1 120.5 89.9 120.5 83.7Z" fill="white"/>
<path d="M114.6 88.5C114.6 93 114.6 97.5 114.6 102C114.6 103.4 114.6 103.5 113.2 103.5C109.7 103.5 106.2 103.5 102.8 103.5C101.8 103.5 101.5 103.2 101.5 102.2C101.5 93.1 101.5 84 101.5 74.9C101.5 74 101.8 73.5 102.8 73.6C106.4 73.6 109.9 73.6 113.5 73.6C114.4 73.6 114.8 73.9 114.7 74.9C114.6 79.3 114.6 83.9 114.6 88.5Z" fill="white"/>
<path d="M82.6 93.4C82.6 90.5 82.6 87.6 82.6 84.7C82.6 83.8 82.9 83.4 83.8 83.4C87.3 83.4 90.9 83.4 94.4 83.4C95.4 83.4 95.7 83.8 95.7 84.7C95.7 90.5 95.7 96.4 95.7 102.2C95.7 103.1 95.4 103.5 94.4 103.5C90.8 103.5 87.2 103.5 83.6 103.5C82.7 103.5 82.4 103.2 82.4 102.3C82.6 99.3 82.6 96.3 82.6 93.4Z" fill="white"/>
<path d="M70.1 103.5C68.3 103.5 66.5 103.5 64.7 103.5C63.8 103.5 63.4 103.1 63.4 102.2C63.4 99.5 63.4 96.9 63.4 94.2C63.4 93.3 63.7 93 64.6 93C68.2 93 71.8 93 75.4 93C76.3 93 76.6 93.2 76.6 94.2C76.6 96.9 76.6 99.7 76.6 102.4C76.6 103.2 76.3 103.5 75.5 103.5C73.8 103.5 72 103.5 70.1 103.5Z" fill="white"/>
<path d="M456.2 260.7H-1028C-1040.7 260.7 -1051 250.4 -1051 237.7V-124.7C-1051 -137.4 -1040.7 -147.7 -1028 -147.7H456.2C468.9 -147.7 479.2 -137.4 479.2 -124.7V237.7C479.2 250.4 468.9 260.7 456.2 260.7Z" stroke="#013036" stroke-miterlimit="10"/>
</g>
<defs>
<clipPath id="clip0_43_1121">
<rect width="197.2" height="197.2" fill="white"/>
</clipPath>
</defs>
</svg>
