<svg width="80" height="80" viewBox="0 0 80 80" fill="none" xmlns="http://www.w3.org/2000/svg">
<path d="M40 8.39999C50.5 8.39999 61.1 8.39999 71.6 8.39999C72.2 8.39999 72.7 8.39999 73.3 8.59999C75 8.99999 76 10.3 76 12.3C76 19.3 76 26.2 76 33.2C76 40.9 76 48.6 76 56.2C76 59.1 74.6 60.4 71.8 60.4C63.8 60.4 55.9 60.4 47.9 60.4C47.7 60.4 47.5 60.4 47.3 60.4C46.5 60.4 46.4 60.6 46.8 61.3C47.4 62.5 48.1 63.7 48.7 64.9C49.5 66.4 50.3 67.9 51.1 69.4C51.7 70.7 51.2 71.5 49.8 71.5C43.4 71.5 36.9 71.5 30.5 71.5C29 71.5 28.5 70.7 29.2 69.3C30.5 66.7 31.9 64.2 33.2 61.7C33.9 60.4 33.9 60.3 32.4 60.3C24.3 60.3 16.3 60.3 8.2 60.3C7.4 60.3 6.6 60.2 5.9 59.8C4.6 59 4.2 57.8 4.2 56.4C4.2 49.8 4.2 43.3 4.2 36.7C4.2 28.6 4.2 20.5 4.2 12.4C4.2 9.69999 5.6 8.29999 8.3 8.29999C18.7 8.39999 29.4 8.39999 40 8.39999ZM40 50.4C50 50.4 59.9 50.4 69.9 50.4C71.1 50.4 71.1 50.3 71.1 49.2C71.1 37.3 71.1 25.4 71.1 13.5C71.1 12.3 71 12.3 69.9 12.3C50 12.3 30.2 12.3 10.3 12.3C8.9 12.3 8.9 12.3 8.9 13.7C8.9 25.5 8.9 37.3 8.9 49.1C8.9 50.4 9 50.5 10.3 50.5C20.2 50.4 30.1 50.4 40 50.4ZM40 54.8C39 54.8 38.2 55.6 38.2 56.6C38.2 57.5 39 58.4 40 58.4C41 58.4 41.9 57.6 41.9 56.6C41.8 55.7 41 54.8 40 54.8Z" fill="#008A9B"/>
<path d="M24 20.2C24 20.3 24 20.3 24 20.4C24.2 22 23.7 22.9 22 23.5C18.2 25 16.5 28.8 16.8 32C17.2 36.7 21 39.5 24.3 39.9C28.3 40.3 32.1 38.1 33.5 34.2C34 32.9 34.1 32.8 35.5 32.8C36.3 32.8 37.1 32.8 37.9 32.8C39 32.8 39.4 33.3 39.2 34.4C38 40.4 32.4 45.1 26.3 45.5C19 46 12.6 40.7 11.3 33.7C10.2 26.4 15 19 22.2 17.5C23.3 17.3 23.9 17.7 24 18.9C24 19.3 24 19.8 24 20.2Z" fill="#008A9B"/>
<path d="M41.8 27.9C41.8 24 41.8 20.2 41.8 16.3C41.8 15 42 14.8 43.3 14.8C44.2 14.8 45.2 14.8 46.1 14.8C47.3 14.8 47.6 15.1 47.6 16.3C47.6 18.8 47.6 21.2 47.6 23.7C47.6 28.9 47.6 41.2 47.6 46.3C47.6 47.9 47.4 48.1 45.8 48.1C44.9 48.1 44 48.1 43.1 48.1C42.1 48.1 41.8 47.8 41.8 46.8C41.8 42.8 41.8 31.8 41.8 27.9Z" fill="#008A9B"/>
<path d="M57.8 35.8C57.8 38.3 57.8 44.3 57.8 46.7C57.8 47.7 57.5 48 56.5 48C55.4 48 54.3 48 53.2 48C52.3 48 52 47.7 52 46.8C52 41.8 52 29.7 52 24.7C52 23.8 52.3 23.5 53.3 23.5C54.3 23.5 55.3 23.5 56.3 23.5C57.7 23.5 57.9 23.6 57.9 25C57.8 27.5 57.8 33.4 57.8 35.8Z" fill="#008A9B"/>
<path d="M67.5 37.3C67.5 39.2 67.5 44.6 67.5 46.5C67.5 47.7 67.2 48 66 48C65 48 63.9 48 62.9 48C62 48 61.7 47.7 61.7 46.8C61.7 42.8 61.7 31.6 61.7 27.6C61.7 26.7 62 26.4 62.9 26.4C64 26.4 65.1 26.4 66.2 26.4C67.1 26.4 67.5 26.7 67.5 27.7C67.6 29.8 67.5 35.3 67.5 37.3Z" fill="#008A9B"/>
<path d="M27 20.1C27 19.6 27 19 27 18.5C27.1 17.6 27.6 17.2 28.5 17.3C33.6 18.2 38.3 22.9 39.3 28C39.5 29.1 39.1 29.7 38 29.7C37.1 29.7 36.2 29.7 35.2 29.7C34.4 29.7 33.9 29.4 33.7 28.6C32.8 25.7 30.9 23.8 28 22.9C27.3 22.7 27 22.2 27 21.5C26.9 21.1 27 20.6 27 20.1Z" fill="#008A9B"/>
</svg>
