<svg width="198" height="198" viewBox="0 0 198 198" fill="none" xmlns="http://www.w3.org/2000/svg">
<g clip-path="url(#clip0_43_1081)">
<path d="M98.6 197.2C153.055 197.2 197.2 153.055 197.2 98.6C197.2 44.1447 153.055 0 98.6 0C44.1447 0 0 44.1447 0 98.6C0 153.055 44.1447 197.2 98.6 197.2Z" fill="#013036"/>
<path d="M130.5 153.2C115.9 153.2 101.2 153.2 86.6 153.2C86.3 153.1 86 153 85.7 153C72.5 151 63.9 140.9 63.8 127.6C63.8 121.9 63.8 116.2 63.8 110.5C63.8 97.4 69.6 89.1 81.9 84.6C82.8 84.3 83.6 83.9 83.6 82.7C83.5 77.1 84.2 71.4 83.1 65.9C81.9 59.4 75.6 54.4 68.9 54.5C62.1 54.6 56 59.6 54.8 66.3C54.6 67.5 54.5 68.7 54.3 70C53.9 72.4 51.9 74.2 49.5 74.3C47.2 74.4 45 72.8 44.3 70.5C43.8 69 44.1 67.4 44.3 65.9C45.6 53.7 56.7 43.9 69 44C81.5 44.1 92.3 53.7 93.6 66C94.1 70.8 93.8 75.7 93.9 80.5C94 83.5 94 83.6 97.1 83.6C107.6 83.6 118.1 83.6 128.5 83.6C133.9 83.6 138.8 85.4 143.1 88.6C149.1 93.1 152.1 99.2 153 106.5C153 114.5 153 122.5 153 130.6C152 136.9 149.5 142.5 144.6 146.9C140.7 150.5 135.8 152.3 130.5 153.2ZM107.2 129.4C108.8 129.5 110 128.6 111.1 127.6C115.2 123.6 119.3 119.5 123.4 115.5C125.8 113.1 125.9 110.4 123.8 108.4C121.8 106.5 119.1 106.6 116.8 108.8C114.6 110.9 112.4 113.1 110.3 115.3C107.4 118.2 107.4 118.2 104.3 115.6C101.9 113.6 99.4 113.6 97.5 115.5C95.8 117.3 95.9 120.3 97.9 122.3C99.8 124.2 101.7 126.1 103.7 127.9C104.7 128.9 105.8 129.6 107.2 129.4Z" fill="white"/>
</g>
<defs>
<clipPath id="clip0_43_1081">
<rect width="197.2" height="197.2" fill="white"/>
</clipPath>
</defs>
</svg>
