<svg width="198" height="198" viewBox="0 0 198 198" fill="none" xmlns="http://www.w3.org/2000/svg">
<g clip-path="url(#clip0_43_850)">
<path d="M98.6 197.2C153.055 197.2 197.2 153.055 197.2 98.6C197.2 44.1447 153.055 0 98.6 0C44.1447 0 0 44.1447 0 98.6C0 153.055 44.1447 197.2 98.6 197.2Z" fill="#013036"/>
<path d="M45.65 141.21V50.41C47.08 47.03 49.62 45.66 53.3 45.67C73.45 45.75 93.6 45.71 113.75 45.71C119.66 45.71 125.58 45.71 131.49 45.71C133.96 45.71 135.89 46.73 137.2 48.8C137.82 49.77 138.61 50.92 138.01 52.05C137.44 53.13 136.14 52.61 135.17 52.61C108.49 52.64 81.81 52.63 55.13 52.64C52.49 52.64 52.43 52.7 52.43 55.27C52.43 64 52.43 72.74 52.43 81.47C52.43 99.97 52.43 118.47 52.43 136.96C52.43 139.57 53.02 141.87 55.28 143.46C56.13 144.06 57.12 144.77 58.12 144.37C59.25 143.92 58.7 142.66 58.7 141.77C58.73 116.74 58.72 91.71 58.72 66.68C58.72 61.35 61.2 58.9 66.57 58.9C92.08 58.9 117.6 59 143.11 58.82C148.52 58.78 151.62 61.75 151.57 67.39C151.39 90.56 151.49 113.74 151.49 136.91C151.49 144.73 148.45 148.96 141.01 151.51H55.97C50.61 149.99 47.16 146.57 45.65 141.19V141.21ZM111.45 85.33C117.35 85.33 123.26 85.3 129.16 85.35C130.75 85.36 131.48 84.8 131.34 83.18C131.3 82.7 131.34 82.22 131.34 81.74C131.33 79.12 131.27 79.05 128.7 79.05C117.79 79.05 106.87 79.05 95.96 79.05C92 79.05 92.09 79.05 92.01 82.94C91.97 84.91 92.77 85.39 94.58 85.36C100.21 85.27 105.84 85.33 111.46 85.33H111.45ZM111.62 105.14C117.25 105.14 122.88 105.14 128.51 105.14C131.32 105.14 131.33 105.12 131.33 102.22C131.33 102.01 131.33 101.81 131.33 101.6C131.31 98.9 131.28 98.86 128.53 98.86C117.55 98.86 106.57 98.86 95.58 98.86C93.2 98.86 92.0167 100.077 92.03 102.51C92.03 102.58 92.03 102.65 92.03 102.72C91.77 104.65 92.68 105.21 94.53 105.18C100.23 105.09 105.92 105.15 111.62 105.15V105.14ZM111.53 124.95C116.88 124.95 122.24 124.95 127.59 124.95C131.38 124.95 131.31 124.95 131.36 121.08C131.38 119.34 130.87 118.63 129.02 118.64C117.42 118.7 105.82 118.69 94.22 118.64C92.66 118.64 91.87 119.13 92.02 120.77C92.07 121.31 92.09 121.88 92.02 122.42C91.76 124.46 92.71 125.01 94.64 124.98C100.27 124.88 105.9 124.94 111.52 124.94L111.53 124.95ZM81.96 85.33C84.0534 85.33 85.1034 84.4066 85.11 82.56C85.11 80.2266 84.17 79.0566 82.29 79.05C79.99 79.0433 78.8367 80.0033 78.83 81.93C78.83 84.1966 79.8734 85.33 81.96 85.33ZM85.11 102C85.11 99.9133 84.0434 98.8666 81.91 98.86C79.7767 98.8533 78.7467 99.7966 78.82 101.69C78.82 103.99 79.85 105.14 81.91 105.14C84.0367 105.14 85.1 104.093 85.1 102H85.11ZM81.84 124.95C84.02 124.95 85.11 123.86 85.11 121.68C85.11 119.673 84.1434 118.67 82.21 118.67C79.9634 118.67 78.8367 119.727 78.83 121.84C78.83 123.913 79.8334 124.95 81.84 124.95Z" fill="white"/>
</g>
<defs>
<clipPath id="clip0_43_850">
<rect width="197.2" height="197.2" fill="white"/>
</clipPath>
</defs>
</svg>
