<svg width="198" height="198" viewBox="0 0 198 198" fill="none" xmlns="http://www.w3.org/2000/svg">
<g clip-path="url(#clip0_43_1047)">
<path d="M98.6 197.2C153.055 197.2 197.2 153.055 197.2 98.6C197.2 44.1447 153.055 0 98.6 0C44.1447 0 0 44.1447 0 98.6C0 153.055 44.1447 197.2 98.6 197.2Z" fill="#013036"/>
<path d="M110.3 135.24C97.9 135.24 85.49 135.24 73.09 135.24C61.17 135.23 53.48 127.52 53.46 115.51C53.44 97.95 53.46 80.4 53.46 62.84C53.46 59.23 53.45 59.26 49.85 59.21C44.34 59.14 44.5 60.02 44.52 53.8C44.54 49.57 44.54 49.55 48.67 49.56C50.76 49.56 52.89 49.44 54.94 49.75C60.09 50.53 63.08 54.23 63.08 59.66C63.1 78.53 63.08 97.39 63.1 116.26C63.1 120.59 65.07 123.66 68.5 125.03C70.32 125.76 71.25 125.5 71.34 123.27C71.63 116.64 71.69 116.65 78.42 116.65C101.83 116.65 125.24 116.65 148.64 116.65C151.313 116.65 152.653 118.017 152.66 120.75C152.66 124.42 152.67 128.09 152.66 131.76C152.65 135.14 152.57 135.22 149.08 135.22C136.15 135.22 123.23 135.22 110.3 135.22V135.24Z" fill="white"/>
<path d="M125.86 80.32C125.86 89.31 125.8 98.31 125.9 107.3C125.93 109.72 125.28 110.76 122.66 110.67C117.69 110.49 112.71 110.55 107.73 110.65C105.76 110.69 104.87 110.07 104.87 107.99C104.91 89.48 104.91 70.97 104.87 52.46C104.87 50.33 105.69 49.51 107.83 49.55C112.63 49.64 117.43 49.57 122.23 49.57C125.61 49.57 125.84 49.78 125.84 53.09C125.86 62.17 125.84 71.25 125.84 80.33L125.86 80.32Z" fill="white"/>
<path d="M98.77 95.86C98.77 99.96 98.72 104.06 98.79 108.17C98.82 109.97 98.14 110.65 96.34 110.63C88.83 110.58 81.33 110.57 73.82 110.63C72 110.65 71.32 109.89 71.32 108.15C71.35 99.86 71.34 91.57 71.32 83.28C71.32 81.66 71.99 80.93 73.68 80.94C81.27 80.99 88.87 80.98 96.46 80.94C98.13 80.94 98.8 81.61 98.77 83.28C98.71 87.47 98.75 91.66 98.75 95.85L98.77 95.86Z" fill="white"/>
<path d="M131.96 91.19C131.96 85.78 132.06 80.37 131.91 74.97C131.85 72.63 132.7 71.94 134.95 72C139.92 72.13 144.89 72.1 149.86 72.01C151.85 71.97 152.69 72.65 152.68 74.71C152.62 85.79 152.62 96.87 152.68 107.94C152.68 110 151.85 110.67 149.86 110.64C144.8 110.55 139.74 110.55 134.68 110.64C132.68 110.68 131.88 110.03 131.92 107.93C132.03 102.35 131.96 96.77 131.96 91.18V91.19Z" fill="white"/>
<path d="M94.46 148.46C94.43 153.38 90.17 157.59 85.17 157.65C80.34 157.71 75.93 153.31 75.93 148.42C75.93 143.32 80.21 139.08 85.33 139.14C90.29 139.2 94.5 143.49 94.46 148.45V148.46Z" fill="white"/>
<path d="M129.96 139.16C135.12 139.23 139.22 143.48 139.11 148.65C139 153.49 134.75 157.69 129.97 157.67C124.93 157.66 120.6 153.29 120.62 148.25C120.64 143.34 125.01 139.1 129.97 139.16H129.96Z" fill="white"/>
<path d="M89.54 63.12C91.9 63.12 94.25 63.16 96.61 63.11C98.16 63.08 98.82 63.73 98.79 65.29C98.73 67.73 98.74 70.18 98.79 72.62C98.82 74.12 98.27 74.91 96.68 74.9C91.97 74.88 87.25 74.87 82.54 74.9C80.97 74.91 80.31 74.13 80.3 72.67C80.29 70.14 80.3 67.61 80.31 65.08C80.31 63.66 81.06 63.08 82.46 63.1C84.82 63.15 87.17 63.11 89.53 63.11L89.54 63.12Z" fill="white"/>
</g>
<defs>
<clipPath id="clip0_43_1047">
<rect width="197.2" height="197.2" fill="white"/>
</clipPath>
</defs>
</svg>
