<svg width="198" height="198" viewBox="0 0 198 198" fill="none" xmlns="http://www.w3.org/2000/svg">
<g clip-path="url(#clip0_43_882)">
<path d="M98.6 197.2C153.055 197.2 197.2 153.055 197.2 98.6C197.2 44.1447 153.055 0 98.6 0C44.1447 0 0 44.1447 0 98.6C0 153.055 44.1447 197.2 98.6 197.2Z" fill="#013036"/>
<path d="M146.2 152.9C141.9 150.1 138.7 146.2 135.3 142.5C132.5 139.4 130.5 138.7 126.2 140.4C110.2 146.5 92.9 135.4 91 118.2C89.5 104.3 99.4 91.2 113.1 89.2C127.6 87.1 141 96.4 143.6 110.4C144.7 116.6 143.9 122.5 140.8 128.1C139.9 129.6 140 130.6 141.3 131.8C144.7 135.1 147.9 138.5 151.2 141.9C155.3 146.1 154.8 149.8 149.8 152.8C148.6 152.9 147.4 152.9 146.2 152.9ZM117.4 102.2C110.1 102.2 104.2 108.2 104.2 115.5C104.2 122.9 110.2 129 117.6 128.9C124.8 128.9 131 122.5 130.9 115.3C130.7 108.1 124.8 102.2 117.4 102.2Z" fill="white"/>
<path d="M43.2 61.4C45.8 56.5 49 52 52 47.3C53.2 45.5 54.9 44.4 57.1 44.4C61 44.4 64.9 44.4 68.7 44.4C70.2 44.4 70.6 44.9 70 46.3C67.7 51.2 65.4 56.1 63.2 61C62.8 61.9 62.3 62.6 61.2 62.6C55.2 62.5 49.2 62.5 43.2 62.5C43.2 62 43.2 61.7 43.2 61.4Z" fill="white"/>
<path d="M76.8 66.7C79.5 66.7 82.1 66.7 84.8 66.7C86.1 66.7 87.3 66.3 87.4 64.7C87.5 63 86.2 62.5 84.8 62.5C79.8 62.4 74.7 62.5 69.7 62.5C67.1 62.5 67 62.3 68.1 59.9C70.2 55.3 72.4 50.8 74.4 46.2C75 44.8 75.9 44.3 77.4 44.3C80.4 44.4 83.3 44.4 86.3 44.3C87.7 44.3 88.6 44.7 89.3 45.9C92.8 51.8 96.4 57.6 100 63.5C100.6 64.4 100.6 65.3 100.3 66.3C95.3 80.1 90.4 93.8 85.4 107.6C85.1 108.6 84.6 109.5 83.4 109.5C82.2 109.5 81.7 108.6 81.4 107.7C76.7 94.7 72 81.6 67.3 68.6C66.7 67.1 67.4 66.7 68.8 66.7C71.5 66.8 74.2 66.7 76.8 66.7Z" fill="white"/>
<path d="M113.8 62.5C111.2 62.5 108.6 62.5 106 62.5C104.7 62.5 103.9 62.1 103.2 60.9C100.3 56 97.3 51.1 94.3 46.3C93.4 44.8 93.7 44.3 95.4 44.3C100.2 44.3 105 44.3 109.8 44.3C111.9 44.3 113.7 45.3 114.8 47C117.6 51.2 120.3 55.4 122.9 59.7C124.2 61.9 123.9 62.4 121.3 62.4C118.8 62.5 116.3 62.5 113.8 62.5Z" fill="white"/>
<path d="M75 103.2C71.3 98.9 68 95.1 64.8 91.3C58.5 84 52.2 76.8 46 69.5C45.6 69 45.2 68.6 44.9 68.1C44.3 67.3 44.5 66.8 45.5 66.8C50.8 66.8 56 66.8 61.3 66.8C62.2 66.8 62.6 67.4 62.9 68.2C66.9 79.4 71 90.7 75 101.9C75 102 75 102.3 75 103.2Z" fill="white"/>
<path d="M95.5 93.6C95 92.8 95.3 92.3 95.5 91.8C98.2 84.2 101 76.6 103.7 69C104.3 67.2 105.3 66.5 107.2 66.6C111.7 66.7 116.2 66.6 120.7 66.7C121.3 66.7 122.2 66.4 122.5 67.2C122.8 67.8 122.1 68.3 121.7 68.7C116.9 74.3 112.1 79.9 107.2 85.5C106.9 85.8 106.6 86.3 106.2 86.5C102.3 88.3 98.6 90.5 95.5 93.6Z" fill="white"/>
</g>
<defs>
<clipPath id="clip0_43_882">
<rect width="197.2" height="197.2" fill="white"/>
</clipPath>
</defs>
</svg>
