<svg width="198" height="198" viewBox="0 0 198 198" fill="none" xmlns="http://www.w3.org/2000/svg">
<g clip-path="url(#clip0_43_821)">
<path d="M98.6 197.2C153.055 197.2 197.2 153.055 197.2 98.6C197.2 44.1447 153.055 0 98.6 0C44.1447 0 0 44.1447 0 98.6C0 153.055 44.1447 197.2 98.6 197.2Z" fill="#013036"/>
<path d="M144.3 106.7C144.3 120.6 144.3 134.4 144.3 148.3C144.3 153.8 142.4 155.8 137 155.8C111.5 155.8 86.1 155.8 60.6 155.8C54.7 155.8 53 154.1 53 148.2C53 120.3 53 92.4 53 64.5C53 59.5 54.8 57.7 59.8 57.7C62.2 57.7 64.7 57.8 67.1 57.7C68.9 57.6 69.6 58.4 69.5 60.2C69.4 61.7 69.4 63.2 69.5 64.6C69.8 68.8 72.3 71.4 76.6 71.4C91.2 71.5 105.9 71.5 120.5 71.4C124.8 71.4 127.4 68.7 127.7 64.4C127.7 64.2 127.7 64.1 127.7 63.9C127.9 57.7 127.9 57.7 134.2 57.7C135.2 57.7 136.1 57.7 137.1 57.7C142.5 57.7 144.2 59.4 144.2 64.9C144.2 75.9 144.2 86.9 144.2 97.9C144.3 100.8 144.3 103.7 144.3 106.7ZM109.6 109.1C103.5 109.1 97.4 109.1 91.3 109.1C88.4 109.1 87.1 110.4 87.1 112.6C87.2 114.9 88.6 116.1 91.3 116.1C103.5 116.1 115.7 116.1 127.9 116.1C130.5 116.1 132.3 114.6 132.3 112.6C132.3 110.5 130.6 109 127.8 109C121.8 109.1 115.7 109.1 109.6 109.1ZM109.6 92.2C115.6 92.2 121.6 92.2 127.6 92.2C130.5 92.2 132.3 90.9 132.4 88.8C132.5 86.5 130.7 85.1 127.7 85.1C115.7 85.1 103.7 85.1 91.6 85.1C88.5 85.1 87.1 86.3 87.1 88.6C87.1 91 88.6 92.2 91.5 92.2C97.6 92.2 103.6 92.2 109.6 92.2ZM109.6 133.1C103.6 133.1 97.6 133.1 91.6 133.1C88.5 133.1 87.1 134.3 87.2 136.6C87.2 138.9 88.7 140.2 91.7 140.2C103.7 140.2 115.7 140.2 127.8 140.2C130.7 140.2 132.4 138.8 132.5 136.7C132.6 134.5 130.8 133.1 127.8 133.1C121.6 133.1 115.6 133.1 109.6 133.1ZM72.4 118.9C73.3 118.9 74.1 118.9 75 118.9C78.4 118.9 79 118.3 79 115C79 113.1 79 111.2 79 109.3C78.9 107.3 77.8 106.3 75.9 106.2C74.9 106.2 74 106.2 73 106.2C66.2 106.2 66.2 106.2 66.2 112.9C66.2 118.9 66.2 118.9 72.4 118.9ZM66.2 136.5C66.2 143 66.2 143 72.8 143C79 143 79 143 79 136.7C79 130.2 79 130.2 72.5 130.2C66.2 130.1 66.2 130.1 66.2 136.5ZM66.2 88.3C66.2 89.3 66.3 90.4 66.2 91.4C66 93.9 67.2 94.9 69.6 94.9C71.3 94.8 72.9 94.9 74.6 94.9C78.6 94.9 79 94.5 79.1 90.4C79.1 90 79.1 89.5 79.1 89.1C79.1 82.4 79.1 82.4 72.4 82.4C66.2 82.3 66.2 82.3 66.2 88.3Z" fill="white"/>
<path d="M98.5 66.8C91.7 66.8 84.9 66.8 78.1 66.8C74.9 66.8 74.1 66 74 62.8C74 60.8 73.9 58.8 74 56.8C74.1 54 75.1 53.1 77.9 53C80.6 52.9 83.3 52.9 86 53C88.2 53.1 89.3 52.2 89.6 49.9C90.1 44.8 93.8 41.5 98.6 41.5C103.2 41.5 107.1 45.1 107.6 50C107.8 52.2 108.8 53.1 110.9 53C113.7 52.9 116.5 52.9 119.3 53C122.1 53.1 123 54 123.2 56.8C123.3 58.9 123.3 61 123.2 63.1C123.1 66 122.3 66.8 119.4 66.8C112.4 66.8 105.5 66.8 98.5 66.8Z" fill="white"/>
</g>
<defs>
<clipPath id="clip0_43_821">
<rect width="197.2" height="197.2" fill="white"/>
</clipPath>
</defs>
</svg>
