<svg width="80" height="80" viewBox="0 0 80 80" fill="none" xmlns="http://www.w3.org/2000/svg">
<path d="M49.1 62.8C49.1 65.7 49.1 68.6 49.1 71.4C49.1 73.9 48.1 74.9 45.6 74.9C41.8 74.9 38 74.9 34.2 74.9C31.9 74.9 30.8 73.9 30.8 71.6C30.8 66.2 30.8 60.8 30.8 55.4C30.8 52.1 29.4 50.7 26.1 50.7C25.8 50.7 25.6 50.7 25.3 50.7C23.2 50.7 22.9 50.4 23 52.8C23 53.9 22.5 54.7 21.5 55.2C20.5 55.7 19.5 55.4 18.7 54.7C14.5 51 10.2 47.4 5.99999 43.6C4.39999 42.2 4.49999 40.7 6.09999 39.3C10.1 35.8 14 32.4 18 28.9C18.3 28.7 18.5 28.5 18.8 28.2C19.7 27.5 20.7 27.4 21.6 27.9C22.6 28.4 23 29.2 23 30.2C22.9 32.8 23.2 32.5 25.4 32.4C31.4 32.1 36.7 33.7 41.3 37.6C46.4 42 48.9 47.7 49.1 54.4C49.2 57.3 49.1 60.1 49.1 62.8Z" fill="#008A9B"/>
<path d="M48.8 41.8C48.2 41.7 48.1 41.2 47.9 40.9C44.1 35.4 39 31.7 32.4 30.3C31.2 30 30.7 29.4 30.8 28.2C30.9 26.9 30.8 25.7 30.8 24.4C30.8 23.4 30.4 23 29.4 23.1C29.2 23.1 29.1 23.1 28.9 23.1C27.7 23.2 26.7 22.8 26.2 21.6C25.7 20.4 26.1 19.4 26.9 18.5C29.1 16 31.4 13.4 33.6 10.9C34.9 9.40001 36.2 7.80001 37.6 6.30001C39.2 4.60001 40.7 4.50001 42.2 6.30001C45.8 10.3 49.3 14.4 52.9 18.5C53.7 19.4 54.1 20.4 53.6 21.5C53 22.7 52 23.2 50.7 23C49.3 22.9 49 23.4 49 24.7C49.1 29.8 49 34.9 49 40C49.1 40.7 49.3 41.3 48.8 41.8Z" fill="#008A9B"/>
<path d="M59.3 55.5C57.9 55.4 57 54.4 56.9 52.7C56.8 50.7 56.8 50.7 54.8 50.7C51.7 50.7 52.1 51 52.1 47.9C52.1 43.4 52.1 38.9 52.1 34.4C52.1 33.1 52.4 32.4 53.9 32.6C54 32.6 54.2 32.6 54.4 32.6C56.9 32.6 56.9 32.6 57.1 30.2C57.2 29.1 57.7 28.4 58.6 28C59.6 27.6 60.6 27.8 61.4 28.5C64.3 31 67.3 33.6 70.2 36.1C71.5 37.2 72.7 38.3 74 39.4C75.5 40.7 75.6 42.3 74.2 43.6C69.9 47.4 65.6 51.1 61.3 54.9C60.6 55.3 60 55.5 59.3 55.5Z" fill="#008A9B"/>
</svg>
