<svg width="80" height="80" viewBox="0 0 80 80" fill="none" xmlns="http://www.w3.org/2000/svg">
<path d="M40 9.50001C48.1 9.50001 56.2 9.50001 64.4 9.50001C68.8 9.50001 71.6 12.3 71.7 16.7C71.7 28.5 71.7 40.4 71.7 52.2C71.7 56.5 68.8 59.3 64.5 59.3C54.2 59.3 43.8 59.3 33.5 59.3C32.4 59.3 31.7 59.6 30.9 60.4C27.9 63.5 24.9 66.4 21.9 69.5C21 70.4 20 71 18.8 70.4C17.6 69.9 17.4 68.8 17.4 67.6C17.4 65.3 17.4 63.1 17.4 60.8C17.4 59.6 17 59.2 15.9 59.3C13.4 59.5 11.4 58.6 9.80002 56.7C8.90003 55.5 8.40002 54.2 8.40002 52.7C8.40002 40.5 8.40002 28.4 8.40002 16.2C8.40002 12.5 11.4 9.60001 15.2 9.50001C23.4 9.40001 31.7 9.50001 40 9.50001ZM43.8 43.3C46 43.3 48.2 43.3 50.4 43.3C51.9 43.3 52.8 42.7 53.2 41.2C53.9 38.7 54.6 36.2 55.3 33.7C56 31.1 55.3 30.1 52.7 29.9C51.2 29.8 49.6 29.8 48.1 29.9C47.1 29.9 46.8 29.5 46.8 28.6C46.8 27 46.8 25.3 46.8 23.7C46.8 22.6 46.5 21.7 45.4 21.2C44.2 20.7 43.4 21.4 42.7 22.2C40.6 24.5 38.5 26.9 36.4 29.2C35.9 29.7 35.7 30.3 35.7 31C35.7 34.7 35.7 38.3 35.7 42C35.7 43.1 36.1 43.4 37.1 43.3C39.3 43.2 41.5 43.3 43.8 43.3ZM30.9 36.8C30.9 34.9 30.9 33 30.9 31.2C30.9 30.4 30.6 30 29.8 30C28.3 30 26.9 30 25.4 30C24.6 30 24.3 30.3 24.3 31.1C24.3 34.8 24.3 38.5 24.3 42.2C24.3 43 24.6 43.3 25.4 43.3C26.9 43.3 28.3 43.3 29.8 43.3C30.7 43.3 31 43 30.9 42.1C30.9 40.3 30.9 38.5 30.9 36.8Z" fill="#008A9B"/>
</svg>
