<svg width="80" height="80" viewBox="0 0 80 80" fill="none" xmlns="http://www.w3.org/2000/svg">
<path d="M18.2 73.5C15.2 73 12.7 71.5 10.6 69.3C7.70001 66.2 6.20001 62.6 6.20001 58.3C6.30001 51 6.30001 43.6 6.20001 36.3C6.20001 31 8.30001 26.7 12.4 23.4C18.2 18.8 24 14.3 29.8 9.80001C36.1 4.90001 43.6 5.00001 49.9 9.80001C55.7 14.3 61.5 18.8 67.2 23.3C71.6 26.7 73.6 31.3 73.5 36.9C73.4 40.1 73.5 40.1 70.3 40.1C56 40.1 41.6 40.1 27.3 40.1C22.6 40.1 19.1 42.7 18 46.9C17.7 48 17.6 49.2 17.6 50.4C17.6 56.9 17.6 63.3 17.6 69.8C17.7 71 17.6 72.3 18.2 73.5ZM40 31C42.5 31 44.9 31 47.4 31C49 31 49.9 30.2 49.9 29C49.9 27.7 49 27 47.4 27C42.5 27 37.5 27 32.6 27C31 27 30.1 27.8 30.1 29C30.1 30.3 31 31 32.6 31C35.1 31 37.5 31 40 31Z" fill="#008A9B"/>
<path d="M42.1 58.1C42.1 55.8 42.1 53.5 42.1 51.2C42.1 46.2 46 42.2 51 42.2C55.6 42.2 60.1 42.2 64.7 42.2C69.6 42.2 73.5 46.1 73.6 51C73.6 55.7 73.6 60.3 73.6 65C73.6 69.8 69.7 73.7 64.9 73.8C60.2 73.8 55.6 73.8 50.9 73.8C46 73.8 42.2 69.8 42.1 64.9C42.1 62.6 42.1 60.3 42.1 58.1ZM64.4 54.6C64.3 53.8 63.9 53.1 63.1 52.8C62.2 52.4 61.4 52.7 60.8 53.3C59.6 54.5 58.3 55.7 57.2 57C56.4 57.9 55.9 57.9 55.2 56.9C54.5 55.8 53.2 55.6 52.3 56.2C51.4 56.8 51.1 58 51.8 59.2C52.4 60.3 53.1 61.4 53.8 62.4C54.8 63.9 56.1 64 57.4 62.7C59.5 60.6 61.5 58.5 63.6 56.5C64.1 55.8 64.4 55.3 64.4 54.6Z" fill="#008A9B"/>
<path d="M29.9 69.8C27.8 69.8 25.7 69.8 23.6 69.8C22.5 69.8 22 69.5 22 68.3C22.1 65.7 22 63.2 22 60.6C22 59.6 22.3 59.3 23.3 59.3C27.7 59.3 32.1 59.3 36.6 59.3C37.6 59.3 37.9 59.7 37.9 60.6C37.9 63.2 37.9 65.8 37.9 68.4C37.9 69.4 37.5 69.8 36.6 69.7C34.3 69.8 32.1 69.8 29.9 69.8Z" fill="#008A9B"/>
<path d="M29.9 55C27.7 55 25.5 55 23.4 55C22.4 55 22.1 54.7 22.1 53.7C22.2 52.2 22.1 50.7 22.1 49.2C22.1 46.8 23.6 45 26 44.7C28.6 44.3 31.3 44.6 33.9 44.5C37.9 44.5 37.9 44.5 37.9 48.5C37.9 50.2 37.8 51.9 37.9 53.5C37.9 54.6 37.5 55 36.4 54.9C34.2 55 32 55 29.9 55Z" fill="#008A9B"/>
</svg>
