<svg width="80" height="80" viewBox="0 0 80 80" fill="none" xmlns="http://www.w3.org/2000/svg">
<path d="M72.9 72.8C72.1 74.4 70.7 74.9 69 74.9C65.8 74.9 62.5 74.9 59.3 74.9C56.2 74.9 55.2 73.7 55.2 70.7C55.2 63.5 55.2 56.3 55.2 49C55.2 46.1 56.3 45 59.2 45C62.5 45 65.8 45 69.1 45C70.8 45 72.1 45.5 73 46.9C72.9 55.4 72.9 64.1 72.9 72.8Z" fill="#008A9B"/>
<path d="M41.4 5.20001C42.5 6.00001 42.9 7.20001 43.3 8.40001C44.5 12.2 44.5 12.2 48.5 12.2C49.1 12.2 49.8 12.2 50.4 12.3C51.5 12.5 52.4 13 52.7 14.1C53 15.2 52.6 16.1 51.7 16.8C50.7 17.5 49.7 18.2 48.7 19C47.7 19.8 47.3 20.7 47.7 21.9C48.1 23 48.4 24 48.8 25.1C49.2 26.3 49.1 27.4 48 28.3C46.9 29.1 45.9 28.8 44.9 28.1C44 27.4 43.1 26.8 42.2 26.1C41.1 25.3 40 25.3 38.9 26.1C37.9 26.8 36.9 27.6 35.9 28.3C35 29 34 29 33 28.3C32.1 27.6 31.8 26.7 32.1 25.6C32.4 24.4 32.8 23.2 33.2 22.1C33.7 20.7 33.3 19.7 32.2 18.9C31.2 18.2 30.3 17.5 29.3 16.8C28.4 16.1 27.9 15.3 28.3 14.1C28.7 12.9 29.5 12.3 30.7 12.3C32 12.2 33.3 12.2 34.5 12.3C35.8 12.3 36.5 11.7 36.9 10.6C37.2 9.60001 37.6 8.60001 37.9 7.70001C38.2 6.70001 38.7 5.80001 39.7 5.30001C40.2 5.20001 40.8 5.20001 41.4 5.20001Z" fill="#008A9B"/>
<path d="M49.1 54.7C49.1 60 49.1 65.3 49.1 70.6C49.1 73.6 48 74.7 45 74.8C41.7 74.8 38.4 74.8 35.1 74.8C32.3 74.8 31.1 73.6 31 70.9C31 60.1 30.9 49.4 31 38.6C31 35.7 32.2 34.6 35.1 34.6C38.4 34.6 41.8 34.6 45.1 34.6C47.8 34.6 49 35.8 49 38.5C49.1 43.9 49.1 49.3 49.1 54.7Z" fill="#008A9B"/>
<path d="M25.1 60C25.1 63.4 25.1 66.8 25.1 70.2C25.1 73.8 24 74.9 20.5 74.9C17.4 74.9 14.3 74.9 11.2 74.9C8.20001 74.9 7.10001 73.7 7.10001 70.8C7.10001 63.6 7.10001 56.3 7.10001 49.1C7.10001 46.2 8.20001 45.1 11.1 45.1C14.4 45.1 17.8 45.1 21.1 45.1C23.9 45.1 25 46.2 25.1 49C25.2 52.6 25.1 56.3 25.1 60Z" fill="#008A9B"/>
</svg>
