<svg width="80" height="80" viewBox="0 0 80 80" fill="none" xmlns="http://www.w3.org/2000/svg">
<path d="M6.79999 49C6.79999 46.5 6.79999 44 6.79999 41.5C6.89999 41.2 6.89999 40.8 6.99999 40.5C9.29999 28.5 18.2 19.7 30.1 17.8C32.7 17.4 34.3 18.7 34.3 21.3C34.3 26.9 34.3 32.5 34.3 38.1C34.3 40.3 35.1 42 36.7 43.5C38 44.7 39.6 45.3 41.4 45.3C47 45.3 52.5 45.3 58.1 45.3C61 45.3 62.5 47.1 62 49.9C59.8 63.2 48.2 73.1 34.7 73.1C24.7 73.1 16.9 68.9 11.1 60.8C8.69999 57.4 7.49999 53.3 6.79999 49Z" fill="#008A9B"/>
<path d="M46.7 6.79999C51.5 8.09999 56.1 9.99999 60.1 13.1C67.3 18.7 71.7 26 73.2 35C73.3 35.5 73.3 36 73.3 36.5C73.3 38.6 72 40 69.9 40C60.9 40 52 40 43 40C41.1 40 40 38.9 40 37C40 28 40 19.1 40 10.1C40 8.59999 40.8 7.59999 41.9 6.79999C43.4 6.79999 45 6.79999 46.7 6.79999Z" fill="#008A9B"/>
</svg>
