<svg width="198" height="198" viewBox="0 0 198 198" fill="none" xmlns="http://www.w3.org/2000/svg">
<g clip-path="url(#clip0_43_832)">
<path d="M98.6 197.2C153.055 197.2 197.2 153.055 197.2 98.6C197.2 44.1447 153.055 0 98.6 0C44.1447 0 0 44.1447 0 98.6C0 153.055 44.1447 197.2 98.6 197.2Z" fill="#013036"/>
<path d="M120 122.1C120 113.2 120 104.3 120 95.3C120 90.2 122.6 87.6 127.7 87.6C131.2 87.6 134.7 87.6 138.3 87.6C143.3 87.6 146 90.3 146.1 95.4C146.2 103.3 146.1 111.2 146.1 119.1C146.1 129 146.1 138.8 146.1 148.7C146.1 152.3 145.4 153 141.8 153C135.9 153 130 153 124.1 153C120.7 153 120 152.4 120 149C120 140.1 120 131.1 120 122.1Z" fill="white"/>
<path d="M109.9 126.4C109.9 134 109.9 141.5 109.9 149.1C109.9 152.3 109.1 153 105.9 153C99.8 153 93.7 153 87.6 153C84.7 153 83.8 152.2 83.8 149.3C83.8 134 83.8 118.8 83.8 103.5C83.8 98.8 86.5 96.2 91.2 96.2C94.9 96.2 98.7 96.2 102.4 96.2C107.2 96.2 109.8 98.8 109.8 103.7C109.9 111.3 109.9 118.9 109.9 126.4Z" fill="white"/>
<path d="M73.6 135C73.6 139.9 73.6 144.8 73.6 149.7C73.6 152.3 72.8 153.1 70.3 153.1C63.9 153.1 57.5 153.1 51.1 153.1C48.5 153.1 47.6 152.2 47.6 149.5C47.6 139.9 47.5 130.2 47.6 120.6C47.6 115.9 50.5 113.2 55.2 113.2C58.9 113.2 62.5 113.2 66.2 113.2C70.9 113.2 73.6 115.9 73.6 120.6C73.6 125.3 73.6 130.1 73.6 135Z" fill="white"/>
<path d="M144.1 73.7C144.1 76 142.6 77 140.5 76C138.5 75.1 136.5 74 134.6 72.9C133.4 72.2 132.4 72.2 131.2 72.9C129.3 74 127.4 74.9 125.5 75.9C123.1 77 121.5 75.8 121.8 73.2C122.1 70.9 122.4 68.6 122.9 66.4C123.1 65.2 122.8 64.5 122 63.7C120.5 62.3 119 60.8 117.5 59.3C116.6 58.4 115.8 57.4 116.3 56.1C116.8 54.8 118 54.6 119.1 54.4C121.2 54 123.4 53.7 125.5 53.5C126.6 53.4 127.2 52.9 127.6 51.9C128.5 49.9 129.5 47.9 130.5 45.9C131 44.9 131.7 44 132.9 44C134.1 44 134.8 44.8 135.3 45.9C136 47.4 137 48.8 137.5 50.4C138.3 52.8 140 53.7 142.3 53.8C143.9 53.9 145.6 54.1 147.2 54.5C149.9 55.1 150.5 57.1 148.7 59.1C147.2 60.7 145.6 62.3 143.9 63.8C143 64.6 142.7 65.5 143 66.7C143.5 68.8 143.7 70.9 144.1 73.1C144.1 73.3 144.1 73.5 144.1 73.7Z" fill="white"/>
<path d="M96.8 87C91.9 87 88 83 88.1 78.2C88.2 73.5 92.2 69.5 96.9 69.6C101.7 69.6 105.7 73.7 105.6 78.5C105.5 83.2 101.6 87 96.8 87Z" fill="white"/>
<path d="M69.3 94.3C69.3 99.2 65.4 103 60.5 102.9C55.8 102.8 51.9 98.9 51.9 94.1C51.9 89.5 56.1 85.4 60.6 85.4C65.5 85.5 69.4 89.4 69.3 94.3Z" fill="white"/>
<path d="M73.5 91.1C72.1 90.6 72.3 89.1 71.6 88.1C71.1 87.4 71.6 86.9 72.3 86.6C76 85 79.6 83.3 83.3 81.7C85.3 80.9 84.9 82.9 85.5 83.7C86 84.4 86.5 85.4 85.2 86C81.5 87.6 77.8 89.2 74.2 90.8C74 91 73.8 91 73.5 91.1Z" fill="white"/>
<path d="M117.6 66.6C118.5 66.5 118.7 66.7 118.8 67.2C119.1 69.3 117.8 71.6 115.8 72.5C114 73.3 112.3 74.1 110.5 74.8C109.8 75.1 109 75.4 108.7 74.4C108.4 73.2 106.7 71.8 108 71C111.2 69.2 114.6 67.9 117.6 66.6Z" fill="white"/>
</g>
<defs>
<clipPath id="clip0_43_832">
<rect width="197.2" height="197.2" fill="white"/>
</clipPath>
</defs>
</svg>
