<svg width="198" height="198" viewBox="0 0 198 198" fill="none" xmlns="http://www.w3.org/2000/svg">
<g clip-path="url(#clip0_43_859)">
<path d="M98.6 197.2C153.055 197.2 197.2 153.055 197.2 98.6C197.2 44.1447 153.055 0 98.6 0C44.1447 0 0 44.1447 0 98.6C0 153.055 44.1447 197.2 98.6 197.2Z" fill="#013036"/>
<path d="M149.42 58.57V97.05C148.96 97.07 148.5 97.11 148.04 97.11C142.32 97.11 136.6 97.11 130.89 97.11C128.89 97.11 128.34 97.96 129.13 99.81C130.33 102.63 131.1 105.55 131.36 108.61C131.73 112.96 129.34 115.89 125.07 116.22C124.45 116.27 123.82 116.25 123.19 116.25C120.52 116.25 116.96 114.7 116.55 110.83C116.39 109.29 116.49 107.79 116.74 106.29C117.13 104 117.84 101.8 118.74 99.66C119.44 97.98 118.87 97.15 117.03 97.11C116.4 97.1 115.77 97.11 115.15 97.11C110.56 97.11 105.96 97.11 101.37 97.11C100.68 97.11 100.15 97.07 100.16 96.14C100.19 91.71 100.18 87.28 100.16 82.85C100.16 82.04 100.46 81.88 101.19 82.14C103.44 82.93 105.76 83.47 108.15 83.62C113.33 83.96 116.87 82.16 118.65 77.52C119.41 75.55 119.33 73.48 119.18 71.44C118.91 67.83 116.44 63.43 110.99 62.92C107.68 62.61 104.55 63.29 101.44 64.23C100.21 64.6 100.17 64.59 100.17 63.28C100.17 58.55 100.17 53.83 100.17 49.1C100.17 47.79 100.19 47.77 101.5 47.77C113.37 47.77 125.23 47.77 137.1 47.77C139.41 47.77 141.54 48.44 143.48 49.66C146.77 51.74 148.66 54.77 149.43 58.54L149.42 58.57Z" fill="white"/>
<path d="M97.05 149.41H58.37C57.96 149.29 57.55 149.16 57.14 149.05C51.59 147.49 47.8 142.55 47.8 136.8C47.79 125.03 47.8 113.27 47.8 101.5C47.8 100.18 47.82 100.16 49.12 100.16C53.38 100.16 57.65 100.16 61.91 100.16C63.56 100.16 65.22 100.18 66.87 100.14C68.26 100.11 68.82 99.23 68.36 97.93C68.27 97.68 68.16 97.44 68.05 97.2C66.92 94.5 66.19 91.7 65.93 88.78C65.53 84.34 67.93 81.37 72.2 81.05C72.82 81 73.45 81.02 74.08 81.02C76.82 81.02 80.32 82.6 80.74 86.41C80.91 87.94 80.81 89.45 80.55 90.95C80.14 93.34 79.38 95.62 78.45 97.86C77.89 99.21 78.48 100.06 79.93 100.15C80.29 100.17 80.66 100.16 81.02 100.16C86.01 100.16 91 100.18 95.99 100.15C96.85 100.15 97.14 100.44 97.14 101.3C97.11 105.63 97.11 109.96 97.14 114.29C97.14 115.18 96.86 115.4 96.03 115.11C93.81 114.34 91.52 113.82 89.17 113.65C83.91 113.28 80.24 115.19 78.62 119.93C77.73 122.55 77.72 125.31 78.56 127.93C80.13 132.86 83.89 134.78 89.16 134.42C91.55 134.25 93.86 133.72 96.12 132.94C96.84 132.69 97.17 132.85 97.14 133.66C97.11 134.85 97.14 136.04 97.14 137.23C97.12 141.29 97.09 145.36 97.07 149.42L97.05 149.41Z" fill="white"/>
<path d="M149.42 100.22V138.5C149.35 138.75 149.28 139.01 149.21 139.26C147.64 145.41 142.69 149.26 136.35 149.26C124.78 149.26 113.22 149.26 101.65 149.26C100.17 149.26 100.17 149.26 100.16 147.77C100.16 142.15 100.16 136.53 100.16 130.92C100.16 128.87 99.33 128.33 97.48 129.11C94.66 130.3 91.74 131.08 88.68 131.35C84.4 131.73 81.4 129.34 81.05 125.18C80.99 124.49 81.03 123.8 81.03 123.11C81.03 120.5 82.6 116.96 86.41 116.55C87.94 116.39 89.44 116.48 90.95 116.74C93.31 117.14 95.56 117.89 97.76 118.8C99.22 119.4 100.08 118.82 100.15 117.25C100.17 116.89 100.15 116.52 100.15 116.16C100.15 111.24 100.17 106.31 100.13 101.39C100.13 100.44 100.44 100.14 101.38 100.14C105.68 100.18 109.97 100.17 114.27 100.14C115.16 100.14 115.37 100.41 115.08 101.25C114.31 103.47 113.79 105.76 113.62 108.11C113.24 113.51 115.34 117.35 120.56 118.89C122.01 119.32 123.51 119.2 124.99 119.2C127.07 119.2 128.96 118.58 130.66 117.4C133.93 115.13 134.62 111.8 134.39 108.13C134.24 105.74 133.69 103.43 132.91 101.17C132.66 100.45 132.82 100.14 133.63 100.15C135.51 100.18 137.4 100.15 139.28 100.15C142.65 100.17 146.02 100.19 149.39 100.22H149.42Z" fill="white"/>
<path d="M47.79 77.65C47.79 71.93 47.78 66.21 47.79 60.49C47.81 53.43 53.4 47.81 60.44 47.8C72.17 47.78 83.91 47.8 95.64 47.8C97.1 47.8 97.1 47.8 97.1 49.3C97.1 54.99 97.1 60.67 97.1 66.36C97.1 68.4 97.92 68.96 99.76 68.18C102.55 67 105.43 66.2 108.46 65.95C113.62 65.52 116.35 68.62 116.19 73.18C116.16 74.04 116.23 74.89 116.05 75.74C115.37 78.92 113.12 80.76 109.75 80.83C106.38 80.9 103.22 79.97 100.13 78.75C99.79 78.62 99.46 78.45 99.12 78.35C98.04 78.04 97.29 78.52 97.13 79.63C97.07 80.02 97.09 80.42 97.09 80.82C97.09 85.81 97.09 90.8 97.09 95.79C97.09 97.11 97.08 97.12 95.76 97.12C91.53 97.12 87.3 97.12 83.07 97.12C81.9 97.12 81.84 97.04 82.2 95.94C82.94 93.7 83.43 91.42 83.63 89.07C84.27 81.37 78.98 77.96 73.73 78.07C72.41 78.1 71.08 78 69.79 78.38C64.58 79.91 62.46 83.7 62.84 89.15C63 91.5 63.53 93.79 64.3 96.01C64.59 96.83 64.41 97.13 63.5 97.13C58.64 97.1 53.78 97.1 48.92 97.13C47.96 97.13 47.76 96.74 47.76 95.89C47.78 89.81 47.77 83.73 47.77 77.64L47.79 77.65Z" fill="white"/>
</g>
<defs>
<clipPath id="clip0_43_859">
<rect width="197.2" height="197.2" fill="white"/>
</clipPath>
</defs>
</svg>
