<svg width="80" height="80" viewBox="0 0 80 80" fill="none" xmlns="http://www.w3.org/2000/svg">
<path d="M69.63 70.28H10.23C7.83999 69.43 6.21 67.82 5.37 65.42V44.37C13.73 44.14 22.08 44.31 30.44 44.28C31.26 44.28 31.39 44.77 31.39 45.43C31.39 47.05 31.37 48.67 31.41 50.28C31.45 52.03 32.26 52.87 33.98 52.89C37.94 52.93 41.89 52.93 45.85 52.89C47.59 52.87 48.4 52.04 48.45 50.31C48.49 48.83 48.53 47.34 48.45 45.86C48.38 44.62 48.83 44.24 50.06 44.25C57.7 44.29 65.34 44.29 72.98 44.25C74.19 44.25 74.62 44.6 74.61 45.85C74.55 51.46 74.49 57.08 74.62 62.7C74.71 66.49 73.1 68.95 69.62 70.28H69.63Z" fill="#008A9B"/>
<path d="M5.37 40.06V27.65C6.7 24.16 9.17 22.5 12.96 22.66C15.7 22.78 18.45 22.66 21.19 22.69C22.17 22.7 22.57 22.33 22.55 21.34C22.51 19.63 22.52 17.92 22.55 16.21C22.61 12.67 25.47 9.75 29 9.74C36.29 9.71 43.58 9.71 50.86 9.74C54.39 9.76 57.25 12.67 57.3 16.22C57.33 17.88 57.35 19.55 57.3 21.21C57.26 22.33 57.7 22.72 58.8 22.7C61.86 22.65 64.92 22.67 67.98 22.7C71.68 22.73 74.55 25.59 74.59 29.29C74.62 32.21 74.59 35.14 74.59 38.06C74.59 39.4667 73.8733 40.17 72.44 40.17C50.67 40.17 28.89 40.17 7.12 40.17C6.54 40.17 5.96 40.1 5.37 40.07V40.06ZM39.91 22.69C42.24 22.69 44.58 22.65 46.91 22.71C48.07 22.74 48.6 22.35 48.47 21.16C48.44 20.89 48.47 20.62 48.47 20.35C48.47 18.63 48.42 18.58 46.75 18.58C42.49 18.58 38.23 18.58 33.96 18.58C31.33 18.58 31.37 18.58 31.37 21.25C31.37 22.4 31.84 22.72 32.91 22.7C35.24 22.65 37.58 22.68 39.91 22.68V22.69Z" fill="#008A9B"/>
</svg>
