<svg width="198" height="198" viewBox="0 0 198 198" fill="none" xmlns="http://www.w3.org/2000/svg">
<g clip-path="url(#clip0_43_909)">
<path d="M98.6 197.2C153.055 197.2 197.2 153.055 197.2 98.6C197.2 44.1447 153.055 0 98.6 0C44.1447 0 0 44.1447 0 98.6C0 153.055 44.1447 197.2 98.6 197.2Z" fill="#013036"/>
<path d="M96.4 161.2C95.6 160.9 94.8 160.7 94 160.4C90.8 159 89.7 157 90.1 153.5C90.7 147.2 91.2 141 91.8 134.7C92.1 130.9 92.5 127.1 92.8 123.3C92.9 121.7 93.7 120.6 95.2 119.8C97.3 118.7 99.5 118.7 101.7 119.5C103.6 120.2 104.5 121.6 104.7 123.7C105.2 129.9 105.8 136 106.3 142.2C106.7 146.2 106.9 150.1 107.4 154.1C107.7 157 106.3 158.9 103.9 160.2C103 160.7 102 160.9 101 161.2C99.3 161.2 97.9 161.2 96.4 161.2Z" fill="white"/>
<path d="M42.8 124.7C42.7 121.8 43.9 120 46.5 118.8C55.5 114.7 64.5 110.5 73.5 106.2C76.8 104.6 78.7 105.7 80.4 107.8C81.5 109.1 82 110.6 82.1 112.3C82.1 113.8 81.6 115 80.3 115.9C71.7 121.9 63 128 54.4 134C52.9 135 51.4 135.1 49.8 134.6C45.9 133.4 42.8 128.9 42.8 124.7Z" fill="white"/>
<path d="M154.4 124.6C154.1 128.7 152.3 131.9 148.8 134.1C146.6 135.4 144.5 135.4 142.3 133.9C134.7 128.5 127 123.1 119.3 117.8C118.5 117.3 117.8 116.7 117 116.2C115.4 115.2 114.9 113.7 115.1 111.9C115.4 109.6 116.5 107.8 118.4 106.4C119.8 105.4 121.3 105.2 123 106C131.6 110.1 140.3 114.1 149 118.1C149.6 118.4 150.1 118.6 150.7 118.9C153.3 119.8 154.5 121.8 154.4 124.6Z" fill="white"/>
<path d="M82 85.2C81.8 87.5 80.7 89.6 78.4 91.1C77 92 75.6 92 74.1 91.3C66.8 87.9 59.4 84.5 52.1 81C50.3 80.2 48.6 79.3 46.8 78.5C43.4 77 42.6 75.5 42.7 71.8C42.9 68 46 63.7 49.4 62.5C51.2 61.8 52.8 62 54.4 63.1C62.9 69.1 71.5 75.1 80.1 81.1C81.5 82.1 82.1 83.3 82 85.2Z" fill="white"/>
<path d="M98.6 36C100.3 35.9 101.8 36.2 103.3 36.9C106.5 38.4 107.5 40.3 107.2 43.8C106.6 50 106.1 56.3 105.5 62.5C105.2 66.3 104.8 70.2 104.5 74C104.4 75.5 103.6 76.7 102.2 77.4C100.3 78.4 98.4 78.6 96.4 78C93.8 77.2 92.9 75.9 92.7 73.2C92.3 68.1 91.8 62.9 91.3 57.8C90.9 53.8 90.6 49.7 90.2 45.7C90.1 44.8 90.1 43.8 90 42.9C89.7 40.2 91.1 38.5 93.3 37.3C94.9 36.3 96.7 36 98.6 36Z" fill="white"/>
<path d="M154.4 72.8C154.4 75.5 153.3 77.3 150.8 78.5C141.7 82.7 132.6 86.9 123.6 91.2C120.7 92.6 118.9 91.8 117 89.7C116 88.6 115.4 87.3 115.2 85.9C114.9 84 115.3 82.4 117.1 81.2C125.4 75.4 133.8 69.6 142.1 63.7C144.5 62 146.7 61.6 149.8 63.8C152.7 66 154.2 69.1 154.4 72.8Z" fill="white"/>
</g>
<defs>
<clipPath id="clip0_43_909">
<rect width="197.2" height="197.2" fill="white"/>
</clipPath>
</defs>
</svg>
