<svg width="198" height="198" viewBox="0 0 198 198" fill="none" xmlns="http://www.w3.org/2000/svg">
<g clip-path="url(#clip0_43_950)">
<path d="M98.6 197.2C153.055 197.2 197.2 153.055 197.2 98.6C197.2 44.1447 153.055 0 98.6 0C44.1447 0 0 44.1447 0 98.6C0 153.055 44.1447 197.2 98.6 197.2Z" fill="#013036"/>
<path d="M98.6 46.5C109.8 46.5 121.1 46.5 132.3 46.5C136.4 46.5 138.6 47.8 139.9 51.6C143.4 61.1 147 70.6 150.1 80.3C151.4 84.4 150.5 88.8 147.7 92.4C145 95.8 141.1 95.6 137.3 95.1C134.6 94.8 132.1 93.8 130.4 91.5C129.7 90.6 129.4 90.7 128.6 91.5C123.8 96.7 114.5 96.7 109.6 91.5C108.8 90.7 108.6 90.7 107.8 91.5C102.9 96.7 93.6 96.7 88.8 91.5C88.1 90.7 87.8 90.7 87 91.5C82.1 96.7 72.9 96.7 68 91.5C67.3 90.7 67 90.6 66.2 91.5C62.7 95.2 56.5 96.5 51.9 94.6C47.7 92.8 46.9 89 46.3 85C46 82.8 46.3 80.6 47.1 78.4C50.2 70 53.1 61.6 56.2 53.2C58.2 47.7 59.9 46.5 65.6 46.5C76.7 46.5 87.7 46.5 98.6 46.5Z" fill="white"/>
<path d="M113.3 150.6C105.7 150.6 98 150.6 90.4 150.6C88.5 150.6 87.9 150.1 87.9 148.1C88 138.2 87.9 128.4 88 118.5C88 116.6 87.5 115.8 85.5 115.9C80.2 116 75 116 69.7 115.9C68 115.9 67.5 116.5 67.5 118.2C67.6 128.1 67.5 137.9 67.6 147.8C67.6 150 67 150.8 64.8 150.6C63.4 150.4 61.9 150.6 60.5 150.6C56.4 150.5 53.5 147.6 53.5 143.4C53.5 130.2 53.5 117 53.5 103.8C53.5 102 53.9 101.4 55.9 101.6C59.3 102 62.7 101.4 65.8 100C67 99.5 68 99.4 69.3 100C75.1 102.4 80.9 102.4 86.7 100C87.9 99.5 88.8 99.5 90 100C95.9 102.5 101.8 102.5 107.6 100C108.7 99.5 109.6 99.5 110.7 100C116.6 102.5 122.5 102.5 128.3 100C129.5 99.5 130.4 99.5 131.6 100C134.9 101.5 138.3 102.1 141.9 101.7C143.5 101.5 143.9 102.1 143.9 103.6C143.9 117 143.9 130.4 143.9 143.8C143.9 147.8 140.9 150.6 136.8 150.6C128.8 150.6 121 150.6 113.3 150.6ZM115.6 136.5C119.5 136.5 123.4 136.5 127.3 136.5C128.8 136.5 129.5 136.2 129.5 134.5C129.4 129 129.4 123.5 129.5 118.1C129.5 116.6 129.1 116.1 127.5 116.1C119.7 116.2 111.9 116.2 104.2 116.1C102.6 116.1 102.1 116.7 102.1 118.2C102.2 123.6 102.2 129 102.1 134.4C102.1 136 102.6 136.6 104.2 136.5C108 136.4 111.8 136.5 115.6 136.5Z" fill="white"/>
</g>
<defs>
<clipPath id="clip0_43_950">
<rect width="197.2" height="197.2" fill="white"/>
</clipPath>
</defs>
</svg>
