<svg width="198" height="198" viewBox="0 0 198 198" fill="none" xmlns="http://www.w3.org/2000/svg">
<g clip-path="url(#clip0_43_867)">
<path d="M98.6 197.2C153.055 197.2 197.2 153.055 197.2 98.6C197.2 44.1447 153.055 0 98.6 0C44.1447 0 0 44.1447 0 98.6C0 153.055 44.1447 197.2 98.6 197.2Z" fill="#013036"/>
<path d="M92.3 58.7C89.1 62.8 84.8 65.8 81.2 69.4C79.2 71.4 77 73.2 75 75.2C69.7 80.6 69.3 88.9 74 94.6C78.8 100.3 87 101.6 93.3 97.4C95.6 95.8 97.7 93.8 99.7 91.9C100.9 90.8 101.9 90.6 103.2 91.7C112.8 99.5 122.4 107.2 132 115.1C135.5 117.9 135.9 121.7 133.4 125.1C129.9 130 126.6 131.2 122.4 128.8C121.1 128.1 120.5 128.2 119.6 129.3C118.1 131.2 116.6 133 115.1 134.9C111.6 139.1 106.9 139.7 102.9 136.1C100.9 134.3 99.6 134.1 97.3 135.8C92.2 139.7 85.4 139.2 80.5 134.8C75.1 129.9 69.6 125 64.3 120.1C63.2 119.1 62.2 118.3 60.7 118.5C59.1 118.6 58.6 117.8 58.6 116.3C58.6 102 58.6 87.7 58.6 73.3C58.6 72.4 58.9 71.6 59.5 71C63 67.5 66.5 64 70.1 60.5C70.9 59.7 72.1 59.2 73.1 58.6C79.6 58.7 85.9 58.7 92.3 58.7Z" fill="white"/>
<path d="M123.8 58.7C129.5 61.9 133.2 67.2 137.8 71.5C138.4 72.1 138.4 72.9 138.4 73.7C138.4 85.8 138.4 97.9 138.4 109.9C138.4 110.5 138.6 111.2 138 111.5C137.3 111.9 136.9 111.1 136.5 110.8C127 103.1 117.6 95.4 108.1 87.8C106.4 86.5 106.3 85.6 108 84.3C109.1 83.4 110.2 82.3 111.2 81.3C112.6 79.9 113 78.3 111.6 76.7C110.1 75.1 108.5 75.6 107.1 76.9C102.1 81.5 97.1 86 92.1 90.6C90 92.5 87.6 93.9 84.7 93.5C81.2 93.1 78.5 91.5 77.3 88C76 84.6 77 81.5 79.6 79C83.5 75.4 87.4 71.8 91.3 68.2C93.7 66 96.2 63.9 98.5 61.6C99.8 60.3 101.3 59.4 103 58.7C110 58.7 116.9 58.7 123.8 58.7Z" fill="white"/>
<path d="M32.4 72.1C38.4 72.1 44.4 72 50.4 72C52.6 72 52.6 73.4 52.6 75C52.6 84.3 52.6 93.7 52.6 103C52.6 107.7 52.6 112.4 52.6 117.1C52.5 122.5 49.7 125.3 44.3 125.3C40.4 125.3 36.4 125.2 32.5 125.2C32.4 107.5 32.4 89.8 32.4 72.1ZM45.2 115.1C45.1 113.4 44.2 112.2 42.4 112.2C40.6 112.2 39.5 113.3 39.5 115.1C39.5 116.7 40.5 117.8 42.3 117.9C44 117.9 45.1 117 45.2 115.1Z" fill="white"/>
<path d="M164.7 98.6C164.7 106.4 164.6 114.2 164.7 122C164.7 124.4 164.1 125.4 161.5 125.3C158.2 125.1 155 125.3 151.7 125.2C147.3 125.1 144.3 122.4 144.3 118C144.2 103.4 144.3 88.8 144.2 74.3C144.2 72.7 144.8 72 146.5 72C151.7 72 156.8 72.1 162 72C164.1 72 164.6 72.8 164.6 74.8C164.7 82.7 164.7 90.6 164.7 98.6ZM154.7 117.9C156.5 117.8 157.6 116.8 157.6 115C157.5 113.2 156.3 112.2 154.5 112.2C152.8 112.2 151.8 113.3 151.8 115C151.8 116.9 152.8 117.8 154.7 117.9Z" fill="white"/>
</g>
<defs>
<clipPath id="clip0_43_867">
<rect width="197.2" height="197.2" fill="white"/>
</clipPath>
</defs>
</svg>
