<svg width="80" height="80" viewBox="0 0 80 80" fill="none" xmlns="http://www.w3.org/2000/svg">
<path d="M40 7.60001C58 7.60001 72.4 22 72.4 39.9C72.4 58 58 72.3 39.9 72.4C22.2 72.5 7.49999 57.6 7.59999 39.9C7.79999 22 22.1 7.60001 40 7.60001ZM26.2 56.3C26.5 56.2 27 56 27.5 55.8C33.2 53.2 38.8 50.6 44.6 48.1C46.2 47.4 47.3 46.4 48 44.7C50.6 39 53.2 33.2 55.9 27.5C56.4 26.3 56.7 25.2 55.7 24.2C54.7 23.2 53.7 23.5 52.6 24C46.7 26.7 40.9 29.4 35 32C33.8 32.5 33 33.3 32.4 34.5C30.7 38.2 29 41.9 27.3 45.6C26.2 47.9 25.1 50.3 24.1 52.6C23.2 54.6 24.2 56.3 26.2 56.3Z" fill="#008A9B"/>
<path d="M40 44.7C37.6 44.7 35.3 42.5 35.3 40.1C35.3 37.7 37.4 35.4 39.9 35.4C42.4 35.3 44.7 37.6 44.7 40.1C44.7 42.5 42.5 44.7 40 44.7Z" fill="#008A9B"/>
</svg>
