<svg width="80" height="80" viewBox="0 0 80 80" fill="none" xmlns="http://www.w3.org/2000/svg">
<path d="M40.1 72.6C34.7 72.6 29.3 72.6 23.9 72.6C20.6 72.6 18.6 70.7 18.2 67.5C17.9 64.9 19.7 62.6 22.6 61.9H22.7C25.1 61.3 25.1 61.3 25.6 58.8C26.7 52.3 27.8 45.8 28.9 39.2C29.1 38.1 29.5 37.8 30.6 37.8C37 37.8 43.3 37.8 49.7 37.8C50.8 37.8 51.2 38.2 51.3 39.2C52.4 46.2 53.6 53.1 54.8 60.1C55 61.1 55.3 61.5 56.4 61.6C61 62 63.3 66.1 61.2 69.9C60.2 71.7 58.7 72.6 56.7 72.6C51.1 72.5 45.6 72.6 40.1 72.6Z" fill="#008A9B"/>
<path d="M40 33.6C35.7 33.6 31.3 33.6 27 33.6C22 33.6 18.3 29.8 18.3 24.9C18.3 20 18.3 15.2 18.3 10.3C18.3 8.19999 19 7.49999 21.1 7.49999C22.3 7.49999 23.5 7.49999 24.7 7.49999C26.3 7.49999 27.1 8.29999 27.1 9.89999C27.1 11.6 27.1 13.2 27.1 14.9C27.1 15.8 27.4 16.1 28.3 16.1C29.7 16.1 31 16.1 32.4 16.1C33.2 16.1 33.5 15.8 33.5 15C33.5 13.5 33.5 12 33.5 10.5C33.5 8.59999 34.3 7.59999 36.2 7.49999C38.8 7.39999 41.4 7.39999 44 7.49999C45.8 7.59999 46.6 8.59999 46.6 10.4C46.6 11.9 46.6 13.4 46.6 14.9C46.6 15.7 46.8 16.2 47.7 16.1C49 16.1 50.4 16.1 51.8 16.1C52.7 16.1 53 15.7 52.9 14.9C52.9 13.3 52.9 11.7 52.9 9.99999C52.9 8.19999 53.7 7.49999 55.5 7.39999C56.8 7.39999 58 7.39999 59.3 7.39999C60.9 7.39999 61.7 8.19999 61.8 9.79999C61.8 15 61.9 20.2 61.8 25.3C61.7 29.7 57.9 33.4 53.5 33.5C48.9 33.6 44.5 33.6 40 33.6Z" fill="#008A9B"/>
</svg>
