<svg width="198" height="198" viewBox="0 0 198 198" fill="none" xmlns="http://www.w3.org/2000/svg">
<g clip-path="url(#clip0_43_969)">
<path d="M98.6 197.2C153.055 197.2 197.2 153.055 197.2 98.6C197.2 44.1447 153.055 0 98.6 0C44.1447 0 0 44.1447 0 98.6C0 153.055 44.1447 197.2 98.6 197.2Z" fill="#013036"/>
<path d="M87.2 155.2C85.8 141 80 129.2 68.2 120.8C66.5 119.6 64.7 118.6 62.9 117.6C62.4 117.3 61.9 117 61 117.1C61.2 118.5 62.2 119.4 62.8 120.5C63.4 121.7 64.2 122.7 64.9 123.9C66.6 127.1 65.9 130.5 63 132.2C60.2 133.9 56.7 133 54.8 130C51.4 124.6 48.2 119 44.6 113.7C40.2 107.4 41.4 103.4 47.8 99.9C53.4 96.8 58.7 93.1 64.2 89.8C68.2 87.4 72.6 89.3 73.4 93.7C73.9 96.2 72.7 98.2 70.7 99.6C68.7 101 66.6 102.2 64.5 103.5C63.3 104.2 62.9 104.8 64.5 105.5C73.1 109.1 80.6 114.4 87.1 121C87.5 121.4 87.9 122 88.6 121.8C89.4 121.6 89.3 120.7 89.3 120.1C90.1 107.3 90.8 94.4 91.6 81.6C91.9 76 92.2 70.4 92.5 64.9C92.5 64.3 92.9 63.4 92 63.2C91.4 63 91 63.7 90.6 64.1C89.1 65.6 87.6 67.1 86.1 68.6C83.5 71 79.9 71 77.6 68.7C75.4 66.4 75.4 62.8 77.8 60.3C83.2 54.8 88.6 49.4 94 44.1C96.6 41.6 100.4 41.6 103 44.1C108.5 49.4 113.9 54.9 119.2 60.3C121.7 62.8 121.6 66.6 119.2 68.8C116.8 71.1 113.2 70.9 110.7 68.3C109.3 66.9 108 65.4 106.7 63.9C106.4 63.5 106 63 105.5 63.1C104.7 63.3 105 64.1 105 64.6C105.2 70.1 105.3 75.6 105.6 81.1C105.9 87.7 106.4 94.3 106.8 100.9C106.8 101.7 106.5 102.7 107.4 103.1C108.3 103.6 108.9 102.6 109.4 102.1C116.3 95.6 124 90.5 132.8 86.9C133.3 86.7 133.9 86.6 134 86.1C134.1 85.4 133.3 85.2 132.9 84.9C131 83.7 129.1 82.6 127.3 81.4C124.1 79.3 123.1 76 124.9 73.1C126.6 70.2 130.1 69.4 133.4 71.4C139.8 75.3 146.2 79.3 152.5 83.3C153.9 84.2 154.7 85.5 155.3 86.9C155.3 88.4 155.3 89.8 155.3 91.3C154.5 92.5 153.7 93.6 153 94.8C149.5 100.4 146.1 105.9 142.6 111.5C140.7 114.5 137.2 115.5 134.4 113.8C131.6 112.1 130.8 108.7 132.5 105.5C133.2 104.1 134.1 102.9 134.9 101.5C135.4 100.6 136.3 99.9 136.2 98.5C133.8 99.4 131.9 100.5 130 101.8C116.2 111.2 109.6 124.4 109.1 140.8C108.9 145.7 109 150.5 108.9 155.4C101.6 155.2 94.4 155.2 87.2 155.2Z" fill="white"/>
</g>
<defs>
<clipPath id="clip0_43_969">
<rect width="197.2" height="197.2" fill="white"/>
</clipPath>
</defs>
</svg>
