<svg width="80" height="80" viewBox="0 0 80 80" fill="none" xmlns="http://www.w3.org/2000/svg">
<path d="M42.5 13.3C47.5 14.7 51 17.7 52 22.9C52.6 26.3 52.7 29.8 51.9 33.2C50.5 39.2 44.7 43 38.4 42.3C32.5 41.6 27.9 36.4 27.9 30.4C27.9 28.8 27.9 27.3 27.9 25.7C27.9 19.7 31.2 15.2 37 13.5C37.2 13.4 37.5 13.3 37.7 13.3C39.3 13.3 40.9 13.3 42.5 13.3Z" fill="#008A9B"/>
<path d="M76.4 65.3C75.5 66.4 74.4 66.7 73.1 66.6C70.4 66.5 67.8 66.6 65.1 66.6C64.2 66.6 63.9 66.3 64 65.4C64.5 61.3 64.4 57.2 63.9 53.1C63.8 52.2 63.9 51.7 64.9 51.5C67.6 50.9 70 49.7 72 47.8C72.7 47.2 73.1 47.3 73.6 48C75.1 49.8 75.8 52 76.5 54.2C76.4 57.9 76.4 61.6 76.4 65.3Z" fill="#008A9B"/>
<path d="M39.9 66.6C34.5 66.6 29.1 66.6 23.7 66.6C21.4 66.6 20.5 65.8 20.6 63.5C20.7 59.6 20.1 55.7 21.2 51.8C22.2 48.2 24.1 45.1 26.8 42.5C27.5 41.8 28 41.9 28.7 42.5C35.6 48.5 44.4 48.5 51.4 42.5C52.1 41.9 52.6 41.8 53.3 42.5C57.3 46.3 59.4 50.8 59.5 56.3C59.5 58.7 59.5 61 59.5 63.4C59.5 65.8 58.7 66.6 56.2 66.6C50.8 66.6 45.4 66.6 39.9 66.6Z" fill="#008A9B"/>
<path d="M8.5 36.3C8.5 30.5 11.2 26.6 16.2 25.6C18.2 25.2 20.1 25.4 22 26.1C22.8 26.4 23.3 26.9 23.3 27.9C23.2 31.1 23.5 34.3 24.9 37.3C25.2 37.9 24.9 38.3 24.5 38.7C22 40.8 20.1 43.4 18.6 46.3C18.1 47.4 17.3 47.3 16.3 47.1C11.9 46.2 8.6 42.2 8.5 37.7C8.5 37.3 8.5 36.8 8.5 36.3Z" fill="#008A9B"/>
<path d="M71.7 36.4C72.1 42.6 68 46.1 64.4 47.1C63 47.5 62.1 47.4 61.4 45.9C60.1 43.2 58.2 40.9 55.9 38.9C55.3 38.4 55.1 37.9 55.4 37.1C56.7 34.3 57 31.4 56.9 28.4C56.8 27 57.4 26.3 58.7 25.9C65 23.7 71.6 28.3 71.7 34.9C71.7 35.4 71.7 35.9 71.7 36.4Z" fill="#008A9B"/>
<path d="M10.6 66.6C9.10002 66.6 7.70002 66.6 6.20002 66.6C4.90002 66.6 3.80002 65.9 3.80002 64.6C3.70002 60.8 3.30002 57 4.10002 53.2C4.50002 51.3 5.40002 49.6 6.60002 48.1C7.10002 47.4 7.60002 47.1 8.40002 47.9C10.4 49.8 12.7 51.1 15.4 51.6C16.4 51.8 16.5 52.2 16.4 53.2C15.9 57.3 15.8 61.4 16.3 65.5C16.4 66.5 16.1 66.8 15.2 66.7C13.6 66.6 12.1 66.6 10.6 66.6Z" fill="#008A9B"/>
</svg>
