<svg width="80" height="80" viewBox="0 0 80 80" fill="none" xmlns="http://www.w3.org/2000/svg">
<path d="M64.7 5.9C65.6 6.1 66.5 6.4 67.4 6.6C70.3 7.3 72.1 9.1 73.1 11.8C74.8 16.7 74.4 21.7 72.9 26.6C70.6 34.3 65.7 40.1 59.7 45.1C53.4 50.3 46.5 54.7 39.4 58.6C38.3 59.2 37.3 59.9 36.2 60.5C32.8 62.2 29 61.7 26.2 59.1C24.4 57.4 22.7 55.7 21 53.9C17.8 50.5 17.4 46.7 19.8 42.7C23.4 36.5 26.8 30 31.2 24.3C34.6 19.9 38 15.4 42.5 12C46.9 8.7 51.8 6.7 57.2 6C57.4 6 57.6 5.9 57.8 5.8C60 5.9 62.3 5.9 64.7 5.9ZM54.9 16.8C50.1 16.8 46.4 20.5 46.4 25.2C46.5 29.7 50.3 33.5 54.8 33.5C59.3 33.5 63.1 29.7 63.2 25.2C63.3 20.6 59.5 16.8 54.9 16.8Z" fill="#008A9B"/>
<path d="M5.89999 65.7C6.29999 62.6 6.49999 59.6 7.19999 56.5C7.99999 53 9.99999 50.6 13 48.8C13.9 48.2 14.3 48.5 14.5 49.5C14.8 52.3 16.1 54.6 18.1 56.6C19.8 58.3 21.5 60 23.2 61.7C25.2 63.7 27.6 65 30.4 65.3C31.6 65.4 31.5 65.9 31.1 66.8C28.8 70.9 25.1 72.6 20.7 73.2C16.7 73.7 12.8 74.1 8.79999 74.1C7.59999 74.1 6.69999 73.8 5.99999 72.9C5.89999 70.5 5.89999 68.1 5.89999 65.7Z" fill="#008A9B"/>
<path d="M5.89999 40.7C7.19999 36.3 8.99999 32.2 11.9 28.6C15.6 24 19.9 20.2 25.9 18.9C27 18.7 28.1 18.4 29.2 18.5C29.5 18.5 29.9 18.4 30 18.7C30.1 19 29.8 19.3 29.6 19.5C27.2 22.8 24.8 26.1 22.7 29.6C20.8 32.7 19 35.8 17.2 39C16.8 39.7 16.3 40.1 15.5 40.3C13.5 40.9 11.8 41.9 10.1 43.1C8.19999 44.6 7.59999 44.5 5.79999 43C5.89999 42.3 5.89999 41.5 5.89999 40.7Z" fill="#008A9B"/>
<path d="M61.3 51C61 54.8 59.9 58.5 57.5 61.6C52.8 67.8 46.7 72 39 73.9C38.7 74 38.4 74 38.1 74.1C37.1 74.2 36.3 73.9 35.9 73C35.4 72.1 35.5 71.2 36.2 70.4C37.9 68.4 39.1 66.2 39.8 63.7C40 63 40.5 62.7 41 62.4C47.7 58.7 54.2 54.7 60.3 50C60.5 49.8 60.8 49.5 61.1 49.7C61.5 49.9 61.2 50.4 61.3 51Z" fill="#008A9B"/>
</svg>
