<svg width="80" height="80" viewBox="0 0 80 80" fill="none" xmlns="http://www.w3.org/2000/svg">
<path d="M4.39999 35.9C5.09999 31.6 6.19999 27.5 8.29999 23.7C14.1 12.8 23.1 6.3 35.3 4.7C54.6 2.2 72 15.1 75.1 34.4C76.8 44.5 74.4 53.8 68 62C66.7 63.7 64.9 64 63.4 62.9C62 61.8 61.8 59.9 63.1 58.3C67.4 52.6 69.6 46.3 69.3 39.2C68.7 27.3 63 18.5 52.3 13.5C34.7 5.2 14.7 15.5 11 34.5C9.39999 42.7 11.1 50.4 16 57.3C16.2 57.6 16.5 58 16.7 58.3C17.8 59.9 17.6 61.8 16.3 62.8C14.9 63.9 13 63.6 11.8 62C8.19999 57.5 5.89999 52.4 4.79999 46.8C4.59999 45.9 4.49999 45.1 4.29999 44.2C4.39999 41.4 4.39999 38.7 4.39999 35.9Z" fill="#008A9B"/>
<path d="M19.1 75.6C18.3 69.4 20.8 64.6 26.1 61.5C35.4 56.2 44.8 56.2 54 61.6C59.2 64.7 61.5 69.4 60.8 75.6C46.9 75.6 33 75.6 19.1 75.6Z" fill="#008A9B"/>
<path d="M63.8 39.4C63.7 45.3 62.1 50.1 58.9 54.4C57.7 56 55.9 56.4 54.4 55.3C53 54.3 52.7 52.5 53.8 50.9C55.8 48.1 57.1 45.1 57.4 41.6C58.1 33.4 53.1 26.5 46.8 23.9C36.4 19.5 24.7 25.8 22.6 36.9C21.7 41.5 22.6 45.8 25.2 49.8C25.5 50.2 25.8 50.6 26.1 51.1C27.1 52.7 26.8 54.4 25.4 55.4C23.9 56.4 22.2 56.1 21 54.6C18.4 51.3 16.8 47.6 16.3 43.5C15.2 33.1 19.1 24.9 28.1 19.5C42 11.2 60.4 19.8 63.3 35.6C63.6 37 63.7 38.5 63.8 39.4Z" fill="#008A9B"/>
<path d="M40 31.1C45.1 31.1 48.9 35.1 48.9 40.3C48.9 45.3 44.9 49.1 39.8 49.1C34.8 49.1 30.9 45.1 31 40C30.9 34.9 34.9 31 40 31.1Z" fill="#008A9B"/>
</svg>
