<svg width="80" height="80" viewBox="0 0 80 80" fill="none" xmlns="http://www.w3.org/2000/svg">
<path d="M74.4 30.7C74.4 40 74.4 49.3 74.4 58.7C74.4 58.9 74.3 59.1 74.3 59.3C73.5 66.8 67.1 74.6 55.9 74.5C45.3 74.4 34.7 74.5 24 74.5C22.5 74.5 21 74.4 19.5 74.1C11.1 72.3 5.69998 65.4 5.59998 56.7C5.59998 48.8 5.59998 41 5.59998 33.1C5.59998 30.7 5.59998 30.7 7.99998 30.7C29.4 30.7 50.9 30.7 72.3 30.7C73 30.5 73.7 30.6 74.4 30.7ZM29.3 47.8C29.3 51.2 29.3 54.7 29.3 58.1C29.3 59.4 29.6 60.5 30.9 61.1C32.1 61.7 33.3 61.4 34.3 60.7C39.2 57.3 44.1 53.9 49 50.4C51.3 48.7 51.3 46.6 49 45C44.1 41.6 39.2 38.2 34.3 34.7C33.2 34 32.1 33.6 30.9 34.2C29.6 34.9 29.3 36 29.3 37.4C29.4 40.9 29.3 44.3 29.3 47.8Z" fill="#008A9B"/>
<path d="M74.4 24.5C68.1 24.5 61.9 24.5 55.6 24.6C54.9 24.6 54.5 24.3 54.3 23.7C52.4 17.9 50.4 12 48.5 6.2C48.4 6 48.5 5.8 48.5 5.6C51.9 5.6 55.3 5.6 58.7 5.6C62.4 6.2 65.9 7.5 68.7 10.1C72 13.1 73.8 17 74.4 21.3C74.4 22.4 74.4 23.5 74.4 24.5Z" fill="#008A9B"/>
<path d="M23.4 5.6C25.3 11.3 27.2 17 29.1 22.7C29.7 24.5 29.6 24.6 27.8 24.6C21.1 24.6 14.4 24.6 7.79996 24.6C5.79996 24.6 5.59995 24.4 5.69995 22.3C6.29995 13.5 12.1 7.1 20.9 5.8C21.1 5.8 21.3 5.7 21.5 5.6C22.1 5.6 22.8 5.6 23.4 5.6Z" fill="#008A9B"/>
<path d="M42.1 5.6C44 11.3 45.9 17 47.8 22.7C48.4 24.5 48.3 24.6 46.5 24.6C43.5 24.6 40.5 24.6 37.5 24.6C36.7 24.6 36 24.5 35.7 23.5C33.8 17.8 31.9 12.1 30 6.4C29.9 6.1 29.9 5.8 29.9 5.5C33.9 5.6 38 5.6 42.1 5.6Z" fill="#008A9B"/>
</svg>
