<svg width="198" height="198" viewBox="0 0 198 198" fill="none" xmlns="http://www.w3.org/2000/svg">
<g clip-path="url(#clip0_43_892)">
<path d="M98.6 197.2C153.055 197.2 197.2 153.055 197.2 98.6C197.2 44.1447 153.055 0 98.6 0C44.1447 0 0 44.1447 0 98.6C0 153.055 44.1447 197.2 98.6 197.2Z" fill="#013036"/>
<path d="M67.35 75.25C68 79.99 67.11 84.7 67.08 89.43C67.06 92.42 66.79 95.41 66.79 98.41C66.81 105.71 72.32 111.73 79.45 112.35C86.64 112.98 93.08 108.13 94.57 100.97C95.13 98.26 94.96 95.5 95.09 92.76C95.17 91.11 95.83 90.45 97.47 90.28C109.39 89.09 121.3 87.79 133.22 86.6C137.35 86.19 140.28 88.48 140.94 92.34C141.93 98.14 140.48 101.34 136.1 102.55C134.66 102.94 134.2 103.49 134.42 104.95C134.75 107.17 134.91 109.41 135.11 111.65C135.6 116.94 132.72 120.55 127.38 120.97C125.05 121.15 123.96 121.7 123.64 124.35C122.86 130.67 117.77 135.06 111.38 135.43C104.41 135.83 97.43 136.19 90.45 136.51C88.99 136.58 87.66 136.69 86.63 137.92C85.62 139.13 84.67 138.74 83.7 137.77C73.96 128.01 64.22 118.25 54.45 108.51C53.52 107.59 53.39 106.53 53.47 105.32C54.08 95.83 57.15 87.29 63.18 79.86C63.44 79.54 63.6 79.15 63.81 78.79C64.99 77.61 66.17 76.43 67.34 75.26L67.35 75.25Z" fill="white"/>
<path d="M80.43 62.17C86.39 57.92 92.82 54.84 100.07 53.37C105.11 52.35 108.9 53.01 112.62 57.18C119.25 64.6 126.6 71.38 133.63 78.44C134.13 78.94 135.08 79.38 134.78 80.18C134.47 81.01 133.46 80.63 132.76 80.71C121.35 81.92 109.92 83.04 98.52 84.38C95.88 84.69 95.28 83.83 95.63 81.49C95.8 80.34 95.74 79.17 95.76 78C95.8 75.99 95.02 74.47 92.85 74.42C90.75 74.37 90.03 75.91 89.95 77.76C89.65 84.24 89.34 90.72 89.11 97.2C89 100.28 88.06 102.88 85.46 104.74C82.79 106.64 80.01 107.05 77.02 105.56C74.03 104.07 72.49 101.53 72.59 98.33C72.87 89.27 73.35 80.22 73.84 71.17C73.9 70.04 74.46 68.94 74.79 67.83C76.67 65.95 78.56 64.06 80.44 62.18L80.43 62.17Z" fill="white"/>
<path d="M35.53 125.4C39.61 121.26 43.72 117.14 47.77 112.97C49.26 111.44 50.24 112.45 51.28 113.5C57.55 119.78 63.83 126.05 70.1 132.32C73.44 135.66 76.82 138.97 80.11 142.36C83.78 146.12 83.73 149.93 80.01 153.68C77.32 156.39 74.56 159.04 71.83 161.71C59.73 149.61 47.63 137.51 35.52 125.4H35.53ZM73.63 146C72.28 144.87 70.87 144.81 69.69 146.13C68.56 147.4 68.54 148.96 69.83 150.12C71.01 151.18 72.42 151.14 73.6 149.94C74.86 148.66 74.85 147.33 73.62 145.99L73.63 146Z" fill="white"/>
<path d="M144.33 53.02C149.67 58.36 154.95 63.76 160.39 69.01C162.15 70.71 162.09 71.86 160.33 73.43C158.22 75.31 156.31 77.41 154.3 79.4C150.42 83.24 146.74 83.27 142.82 79.4C137.33 73.98 131.89 68.49 126.43 63.03C122.32 58.92 118.26 54.77 114.08 50.73C112.55 49.25 112.44 48.16 114.05 46.63C117.49 43.36 120.83 40 124.11 36.57C125.55 35.06 126.57 35.18 127.98 36.62C133.38 42.14 138.87 47.56 144.33 53.02ZM150.67 72.92C151.72 71.68 151.81 70.22 150.53 69.05C149.28 67.92 147.67 67.95 146.51 69.21C145.44 70.37 145.43 71.8 146.62 73.01C147.9 74.32 149.24 74.19 150.67 72.92Z" fill="white"/>
</g>
<defs>
<clipPath id="clip0_43_892">
<rect width="197.2" height="197.2" fill="white"/>
</clipPath>
</defs>
</svg>
