<svg width="80" height="80" viewBox="0 0 80 80" fill="none" xmlns="http://www.w3.org/2000/svg">
<path d="M41.3 2.7C41.8 2.9 42.3 3 42.7 3.2C44.6 4.1 45.3 5.2 45.1 7.3C44.7 11 44.4 14.8 44.1 18.5C43.9 20.8 43.7 23 43.5 25.3C43.4 26.2 42.9 26.9 42.1 27.4C41 28 39.8 28.1 38.6 27.7C37.1 27.2 36.5 26.5 36.4 24.9C36.2 21.8 35.9 18.8 35.6 15.7C35.3 12.8 35.1 9.8 34.8 6.9C34.6 5.2 35.5 4.1 36.9 3.4C37.5 3.1 38.1 3 38.7 2.8C39.6 2.7 40.4 2.7 41.3 2.7Z" fill="#008A9B"/>
<path d="M30.2 48.1C30.2 49.1 29.9 49.8 29.1 50.4C24 54 18.8 57.6 13.7 61.2C12.9 61.8 12 61.9 11.1 61.6C8.40001 60.8 6.30001 57.2 6.90001 54.5C7.10001 53.5 7.70001 52.7 8.70001 52.3C14.3 49.7 19.9 47.1 25.4 44.5C26.7 43.9 27.6 44 28.7 45C29.6 45.8 30.1 46.9 30.2 48.1Z" fill="#008A9B"/>
<path d="M73.3 55.4C73.3 58.2 71.2 60.9 68.8 61.5C68 61.7 67.2 61.6 66.5 61.1C61.3 57.4 56.1 53.8 50.8 50.1C50.2 49.7 49.9 49 49.9 48.3C49.9 46.6 50.6 45.4 51.9 44.4C52.7 43.8 53.6 43.8 54.6 44.2C59.7 46.6 64.8 49 70 51.4C70.4 51.6 70.7 51.8 71.1 51.9C72.6 52.6 73.3 53.8 73.3 55.4Z" fill="#008A9B"/>
<path d="M30.1 32C30 33.3 29.3 34.6 28 35.5C27.2 36 26.3 36.1 25.4 35.6C21 33.5 16.5 31.5 12.1 29.4C11.1 28.9 10.1 28.5 9.1 28C7.1 27.1 6.6 26.2 6.7 24C6.8 21.7 8.7 19.1 10.8 18.4C11.8 18 12.8 18.1 13.7 18.8C18.8 22.4 23.9 26 29 29.6C29.8 30.1 30.2 30.8 30.1 32Z" fill="#008A9B"/>
<path d="M40 77.3C39 77.3 38.1 77.2 37.2 76.8C35.3 75.9 34.7 74.8 34.9 72.7C35.3 69 35.6 65.2 35.9 61.5C36.1 59.2 36.3 57 36.5 54.7C36.6 53.8 37.1 53.1 37.9 52.6C39.1 52 40.4 51.9 41.7 52.4C42.9 52.8 43.4 53.7 43.5 54.9C43.8 58.6 44.1 62.2 44.5 65.9C44.7 68.3 44.9 70.6 45.1 73C45.3 74.8 44.5 75.9 43 76.6C42.1 77.1 41.1 77.3 40 77.3Z" fill="#008A9B"/>
<path d="M73.3 24.6C73.3 26.2 72.6 27.3 71.1 28C65.7 30.5 60.3 33 54.9 35.6C53.2 36.4 52.1 36 51 34.8C50.4 34.1 50 33.3 49.9 32.5C49.7 31.4 50 30.4 51 29.7C56 26.2 60.9 22.8 65.9 19.3C67.3 18.3 68.6 18 70.4 19.4C72.3 20.5 73.2 22.3 73.3 24.6Z" fill="#008A9B"/>
</svg>
