<svg width="80" height="80" viewBox="0 0 80 80" fill="none" xmlns="http://www.w3.org/2000/svg">
<path d="M39.9 4.4C46 4.4 52.1 4.4 58.2 4.4C62.2 4.4 64.4 6.4 64.1 10.3C63.8 14 64.9 16.7 67.8 19C70.1 20.8 72 23.1 74.1 25.2C75.4 26.4 76 27.9 75.9 29.6C75.8 31.3 75.9 33 75.9 34.7C75.8 38.3 73.9 41 70.8 41.9C67.4 42.9 64.2 41.6 62.2 38.5C61.6 37.5 61.2 37.5 60.6 38.5C57.4 43.4 51.2 43.5 47.9 38.6C47.1 37.4 47 37.4 46.2 38.7C43.2 43.4 36.7 43.4 33.7 38.7C32.9 37.5 32.8 37.5 32 38.7C28.9 43.5 22.4 43.4 19.4 38.6C18.7 37.5 18.4 37.6 17.8 38.6C16.1 41.5 12.9 42.8 9.59999 42C6.39999 41.2 4.29999 38.6 4.19999 35.2C4.09999 33.1 4.19999 30.9 4.19999 28.8C4.19999 27.4 4.89999 26.3 5.89999 25.3C8.79999 22.5 11.6 19.6 14.5 16.8C15.6 15.8 16 14.7 15.9 13.3C15.8 12.1 15.9 10.8 15.9 9.6C15.9 6.4 18 4.4 21.2 4.3C27.3 4.4 33.6 4.4 39.9 4.4Z" fill="#008A9B"/>
<path d="M40 75.6C29.8 75.6 19.6 75.6 9.39999 75.6C6.79999 75.6 5.19999 74.4 4.99999 72.3C4.69999 70.1 6.29999 68.1 8.59999 68.1C10.8 68.1 10.7 68.1 10.7 65.8C10.7 60.4 10.7 55 10.7 49.6C10.7 48.4 11 47.8 12.3 47.7C13.9 47.6 15.4 47.3 16.8 46.6C18.1 46 18.3 46.1 18.3 47.6C18.3 52.9 18.3 58.1 18.3 63.4C18.3 64.3 18.4 65.3 18.3 66.2C18.2 67.6 18.8 68 20.1 67.9C24.9 67.8 29.7 67.8 34.5 67.9C35.8 67.9 36.2 67.6 36.2 66.2C36.1 60.5 36.2 54.7 36.2 49C36.2 47.2 36.2 47.2 37.9 47.5C39.3 47.7 40.6 47.7 42 47.5C43.7 47.2 43.7 47.3 43.7 49.1C43.7 54.8 43.7 60.5 43.7 66.2C43.7 67.5 44 68 45.4 68C50.2 67.9 55 67.9 59.8 68C61.2 68 61.6 67.6 61.6 66.2C61.5 60.2 61.6 54.2 61.6 48.1C61.6 45.9 61.6 45.9 63.5 46.7C64.8 47.3 66.2 47.6 67.6 47.6C69 47.6 69.2 48.2 69.2 49.4C69.2 54.9 69.2 60.3 69.2 65.8C69.2 67.8 69.2 67.8 71.2 67.9C73.2 68 74.7 69.3 74.9 71.2C75.1 73.2 73.9 74.8 72 75.3C71.3 75.5 70.6 75.5 69.9 75.5C60 75.6 50 75.6 40 75.6Z" fill="#008A9B"/>
<path d="M50.4 61.7C48.4 61.7 47 60.3 47 58.3C47 56.3 48.5 54.7 50.5 54.8C52.4 54.8 54 56.4 54 58.3C54 60.2 52.5 61.7 50.4 61.7Z" fill="#008A9B"/>
</svg>
