<svg width="80" height="80" viewBox="0 0 80 80" fill="none" xmlns="http://www.w3.org/2000/svg">
<path d="M10.1 48.1C10.7 47.7 11.4 47.4 12.1 47.4C14.3 47.4 16.6 47.3 18.8 47.4C21 47.5 22.2 48.6 22.2 50.7C22.3 58.4 22.2 66.1 22.2 73.8C22.2 75.1 21.5 76.1 20.5 76.9C17.4 76.9 14.2 76.9 11.1 76.9C10.3 76.9 10.1 76.7 10.1 75.9C10.1 66.7 10.1 57.4 10.1 48.1Z" fill="#008A9B"/>
<path d="M38.5 72.3C34.8 72.3 31.1 72.3 27.4 72.3C26 72.3 25.4 72 25.4 70.4C25.5 65.4 25.5 60.3 25.4 55.3C25.4 54.2 25.7 53.5 26.8 53.2C27.9 52.9 28.9 52.2 29.7 51.3C31.9 49.2 34.4 48.2 37.5 48.3C39.5 48.3 41.4 48.3 43.4 48.3C46.5 48.4 48.9 50.3 49.7 53C50 54.1 49.8 54.8 48.7 55.3C47.5 55.8 46.3 56.1 45 56.1C42.5 56.1 40.1 56.1 37.6 56.1C36.5 56.1 35.4 56.4 35.5 57.7C35.5 58.9 36.5 59.3 37.6 59.3C40.3 59.3 43.1 59.4 45.8 59.3C50.2 59.1 53.4 56.9 55.1 52.9C57.3 48.1 62.1 47.6 66.4 48.6C68.6 49.1 70.3 51.6 69.7 53.6C67.8 59.7 65.5 65.6 59.7 69.2C56.4 71.2 52.8 72.1 49 72.2C45.6 72.4 42 72.3 38.5 72.3Z" fill="#008A9B"/>
<path d="M25.3 39.1C25.3 44.6 25.3 34.5 25.3 40C25.3 43.1 24.3 44.2 21.2 44.2C19.4 44.2 17.5 44.2 15.7 44.2C13.6 44.2 12.6 43.3 12.3 41.1C12.2 40.5 12.2 39.9 12.2 39.3C12.2 28.9 12.2 47.5 12.2 37.1C12.2 33.1 13.2 32.2 17.2 32.1C18.7 32.1 20.1 32.1 21.6 32.1C24.2 32.2 25.4 33.4 25.4 36C25.3 41.4 25.3 33.6 25.3 39.1Z" fill="#008A9B"/>
<path d="M32.8 32.1C32.8 28.5 32.8 35.1 32.8 31.5C32.8 29.2 33.9 28 36.3 27.9C38.3 27.8 40.2 27.8 42.2 27.9C44.6 28 45.8 29.2 45.8 31.6C45.8 38.7 45.8 33.6 45.8 40.6C45.8 43 44.6 44.2 42.2 44.3C40.2 44.4 38.3 44.4 36.3 44.3C34 44.2 32.8 43.1 32.8 40.7C32.8 37.2 32.8 35.7 32.8 32.1Z" fill="#008A9B"/>
<path d="M61.2 11.8C61.2 12.8 61.2 13.8 61.2 14.8C61.2 16.4 62.2 17.5 63.5 17.5C64.9 17.6 65.9 16.5 66 14.9C66.1 12 66.2 9.1 66.3 6.2C66.3 3.9 65.4 3 63.1 3C60.2 3 57.3 3 54.4 3C52.6 3 51.6 3.9 51.6 5.4C51.6 6.8 52.7 7.8 54.4 7.8C55.3 7.8 56.3 7.8 57.2 7.9C57.3 7.9 57.3 7.9 57.7 8.1C54.6 10.8 52.4 14.3 48.6 16.2C47.5 16.8 46.2 16.8 45 16.8C41.9 16.8 19.4 16.8 16.2 16.8C15.5 16.8 14.8 16.8 14.1 16.9C12.7 17.1 11.8 18 11.9 19.4C12 20.9 13 21.7 14.4 21.7C17.2 21.8 39.3 21.7 42.1 21.7C43.5 21.7 44.9 21.8 46.3 21.7C49.4 21.4 52.2 20.3 54.4 18C56.5 15.9 58.6 13.6 60.7 11.5C60.9 11.6 61.1 11.7 61.2 11.8Z" fill="#008A9B"/>
<path d="M53.3 34.6C53.3 32.5 53.3 27.1 53.3 25C53.3 22.8 54.4 21.7 56.6 21.7C58.7 21.7 60.7 21.7 62.8 21.7C65 21.8 66.2 22.9 66.2 25.2C66.2 29.3 66.2 36.9 66.2 41C66.2 43 65.1 44.3 63 44.4C60.8 44.5 58.5 44.5 56.3 44.4C54.4 44.3 53.3 43 53.3 41.1C53.3 38.9 53.3 36.8 53.3 34.6Z" fill="#008A9B"/>
</svg>
