<svg width="80" height="80" viewBox="0 0 80 80" fill="none" xmlns="http://www.w3.org/2000/svg">
<path d="M46 76.6C42 76.6 37.9 76.6 33.9 76.6C31.4 76.2 28.8 75.9 26.3 75.2C17.9 72.8 13.3 66.8 13.1 58C12.9 51.9 15.2 46.6 18.6 41.8C21.7 37.3 25.6 33.4 29.5 29.6C29.9 29.2 30.5 28.9 30.6 28.2C30.3 28.1 30.1 28.1 29.9 28.1C28.5 27.8 27.6 26.7 27.7 25.4C27.8 24 28.8 23.1 30.3 23C30.7 23 31 23 31.4 23C33.5 23 33.5 23 32.5 21C31.3 18.7 30.1 16.4 29 14.1C26.7 9 30.2 3.6 35.8 3.5C38.4 3.5 41.1 3.5 43.7 3.5C49.9 3.5 53.4 9.1 50.7 14.7C49.8 16.5 48.9 18.3 47.9 20.1C46.5 22.8 46.5 22.8 49.6 23C51.1 23.1 52.1 23.9 52.2 25.2C52.4 26.6 51.7 27.7 50.2 28C48.8 28.3 49.5 28.7 50 29.2C51.4 30.6 52.9 32 54.3 33.5C60.4 39.8 65.8 46.5 66.9 55.6C66.9 56.5 66.9 57.4 66.9 58.3C66.8 58.6 66.8 59 66.7 59.3C65.8 67.9 61.6 72.8 53.4 75.1C51 75.9 48.5 76.1 46 76.6ZM38.9 57.2C37.8 57.2 36.8 57.2 35.7 57.2C35.6 57.2 35.5 57.2 35.4 57.2C33.9 57.3 32.8 58.2 32.8 59.4C32.8 60.7 33.8 61.6 35.4 61.8C35.6 61.8 35.8 61.8 36 61.8C37.1 61.7 37.6 62.1 37.5 63.3C37.5 63.8 37.6 64.4 37.7 64.9C38 65.9 38.7 66.5 39.8 66.5C40.9 66.5 41.6 65.9 41.9 64.8C42 64.4 42.1 63.9 42.1 63.5C42 62.2 42.5 61.7 43.7 61.5C47.1 60.8 49.4 57.8 49.4 54.5C49.3 51.1 46.9 48.3 43.5 47.6C41.6 47.2 39.8 47.5 37.9 47.4C36 47.3 34.9 46.5 34.9 44.9C34.9 43.3 36 42.3 37.9 42.3C39.7 42.3 41.5 42.3 43.4 42.3C43.9 42.3 44.3 42.3 44.8 42.2C46 42 46.9 41.3 46.9 40C46.9 38.6 46 37.9 44.7 37.7C44.3 37.6 43.9 37.6 43.5 37.6C42.5 37.7 42.1 37.3 42.1 36.3C42.1 35.6 42.1 34.9 41.8 34.2C41.4 33.3 40.7 32.8 39.8 32.9C38.9 32.9 38.1 33.4 37.8 34.3C37.6 34.8 37.5 35.4 37.5 35.9C37.6 37.2 37.1 37.7 35.9 37.9C32.5 38.6 30.2 41.6 30.2 44.9C30.3 48.3 32.7 51.1 36.1 51.8C38 52.2 39.8 51.9 41.7 52C43.6 52.1 44.7 52.9 44.7 54.5C44.7 56.1 43.6 57.1 41.7 57.1C40.9 57.2 39.9 57.2 38.9 57.2Z" fill="#008A9B"/>
</svg>
